<svg width="28" height="26" viewBox="0 0 28 26" fill="none" xmlns="http://www.w3.org/2000/svg">
<path fill-rule="evenodd" clip-rule="evenodd" d="M0.169922 12.9996C0.169922 5.83164 6.38239 -3.05176e-05 14.0187 -3.05176e-05C21.6548 -3.05176e-05 27.8673 5.83164 27.8673 12.9996C27.8673 20.168 21.6548 25.9999 14.0187 25.9999C6.38239 25.9999 0.169922 20.168 0.169922 12.9996ZM2.39348 12.9996C2.39348 19.0172 7.60846 23.9126 14.0187 23.9126C20.4288 23.9126 25.6437 19.0172 25.6437 12.9996C25.6437 6.98244 20.4288 2.08714 14.0187 2.08714C7.60846 2.08714 2.39348 6.98244 2.39348 12.9996ZM21.4397 9.14778C15.6575 6.63869 7.53649 7.75203 7.19362 7.80061C6.58674 7.88677 6.16915 8.41831 6.26061 8.98814C6.35208 9.55796 6.91879 9.95116 7.52523 9.865C7.60275 9.854 15.336 8.79926 20.5068 11.0429C20.6577 11.1085 20.8165 11.1395 20.9726 11.1395C21.3927 11.1395 21.7947 10.9149 21.9825 10.5334C22.2401 10.0099 21.997 9.38968 21.4397 9.14778ZM7.68385 11.8533C7.99382 11.8094 15.3345 10.8029 20.5692 13.0742C21.1266 13.3161 21.3697 13.9365 21.1122 14.4598C20.9242 14.8414 20.5222 15.066 20.1021 15.0661C19.946 15.0661 19.7876 15.0351 19.6364 14.9695C15.0131 12.9634 8.08484 13.9079 8.01546 13.9178C7.40873 14.0034 6.84216 13.6108 6.75085 13.0408C6.65939 12.471 7.07697 11.9394 7.68385 11.8533ZM7.94203 15.7557C8.21434 15.7171 14.6659 14.8327 19.2752 16.8323C19.8326 17.0742 20.0755 17.6944 19.8181 18.2176C19.6302 18.599 19.2282 18.8235 18.8081 18.8236C18.652 18.8236 18.4933 18.7926 18.3424 18.727C14.3321 16.9872 8.33427 17.811 8.27408 17.8196C7.66735 17.9053 7.10049 17.5135 7.00873 16.9435C6.91697 16.3735 7.33485 15.8418 7.94203 15.7557Z" fill="#969696"/>
</svg>
