<svg width="27" height="26" viewBox="0 0 27 26" fill="none" xmlns="http://www.w3.org/2000/svg">
<path d="M13.3755 2.3833C16.8548 2.3833 17.2897 2.3833 18.7032 2.49163C22.2912 2.59997 23.9222 4.3333 24.0309 7.79996C24.1396 9.2083 24.1396 9.5333 24.1396 13C24.1396 16.4666 24.1396 16.9 24.0309 18.2C23.9222 21.6666 22.1825 23.4 18.7032 23.5083C17.2897 23.6166 16.9636 23.6166 13.3755 23.6166C9.89622 23.6166 9.4613 23.6166 8.15656 23.5083C4.56853 23.4 2.9376 21.6666 2.82888 18.2C2.72015 16.7916 2.72015 16.4666 2.72015 13C2.72015 9.5333 2.72015 9.09996 2.82888 7.79996C2.9376 4.3333 4.67726 2.59997 8.15656 2.49163C9.4613 2.3833 9.89622 2.3833 13.3755 2.3833ZM13.3755 -3.05176e-05C9.78749 -3.05176e-05 9.35257 -3.05176e-05 8.04783 0.108303C3.26379 0.324969 0.65431 2.92497 0.436853 7.69163C0.328125 8.99163 0.328125 9.42496 0.328125 13C0.328125 16.575 0.328125 17.0083 0.436853 18.3083C0.65431 23.075 3.26379 25.6749 8.04783 25.8916C9.35257 26 9.78749 26 13.3755 26C16.9636 26 17.3985 26 18.7032 25.8916C23.4873 25.6749 26.0967 23.075 26.3142 18.3083C26.4229 17.0083 26.4229 16.575 26.4229 13C26.4229 9.42496 26.4229 8.99163 26.3142 7.69163C26.0967 2.92497 23.4873 0.324969 18.7032 0.108303C17.3985 -3.05176e-05 16.9636 -3.05176e-05 13.3755 -3.05176e-05ZM13.3755 6.2833C9.67876 6.2833 6.63437 9.31663 6.63437 13C6.63437 16.6833 9.67876 19.7166 13.3755 19.7166C17.0723 19.7166 20.1167 16.6833 20.1167 13C20.1167 9.31663 17.0723 6.2833 13.3755 6.2833ZM13.3755 17.3333C10.9835 17.3333 9.02639 15.3833 9.02639 13C9.02639 10.6166 10.9835 8.66663 13.3755 8.66663C15.7675 8.66663 17.7247 10.6166 17.7247 13C17.7247 15.3833 15.7675 17.3333 13.3755 17.3333ZM20.3341 4.54997C19.4643 4.54997 18.8119 5.19997 18.8119 6.06663C18.8119 6.9333 19.4643 7.5833 20.3341 7.5833C21.204 7.5833 21.8563 6.9333 21.8563 6.06663C21.8563 5.19997 21.204 4.54997 20.3341 4.54997Z" fill="#969696"/>
<path d="M13.3755 2.3833C16.8548 2.3833 17.2897 2.3833 18.7032 2.49163C22.2912 2.59997 23.9222 4.3333 24.0309 7.79996C24.1396 9.2083 24.1396 9.5333 24.1396 13C24.1396 16.4666 24.1396 16.9 24.0309 18.2C23.9222 21.6666 22.1825 23.4 18.7032 23.5083C17.2897 23.6166 16.9636 23.6166 13.3755 23.6166C9.89622 23.6166 9.4613 23.6166 8.15656 23.5083C4.56853 23.4 2.9376 21.6666 2.82888 18.2C2.72015 16.7916 2.72015 16.4666 2.72015 13C2.72015 9.5333 2.72015 9.09996 2.82888 7.79996C2.9376 4.3333 4.67726 2.59997 8.15656 2.49163C9.4613 2.3833 9.89622 2.3833 13.3755 2.3833ZM13.3755 -3.05176e-05C9.78749 -3.05176e-05 9.35257 -3.05176e-05 8.04783 0.108303C3.26379 0.324969 0.65431 2.92497 0.436853 7.69163C0.328125 8.99163 0.328125 9.42496 0.328125 13C0.328125 16.575 0.328125 17.0083 0.436853 18.3083C0.65431 23.075 3.26379 25.6749 8.04783 25.8916C9.35257 26 9.78749 26 13.3755 26C16.9636 26 17.3985 26 18.7032 25.8916C23.4873 25.6749 26.0967 23.075 26.3142 18.3083C26.4229 17.0083 26.4229 16.575 26.4229 13C26.4229 9.42496 26.4229 8.99163 26.3142 7.69163C26.0967 2.92497 23.4873 0.324969 18.7032 0.108303C17.3985 -3.05176e-05 16.9636 -3.05176e-05 13.3755 -3.05176e-05ZM13.3755 6.2833C9.67876 6.2833 6.63437 9.31663 6.63437 13C6.63437 16.6833 9.67876 19.7166 13.3755 19.7166C17.0723 19.7166 20.1167 16.6833 20.1167 13C20.1167 9.31663 17.0723 6.2833 13.3755 6.2833ZM13.3755 17.3333C10.9835 17.3333 9.02639 15.3833 9.02639 13C9.02639 10.6166 10.9835 8.66663 13.3755 8.66663C15.7675 8.66663 17.7247 10.6166 17.7247 13C17.7247 15.3833 15.7675 17.3333 13.3755 17.3333ZM20.3341 4.54997C19.4643 4.54997 18.8119 5.19997 18.8119 6.06663C18.8119 6.9333 19.4643 7.5833 20.3341 7.5833C21.204 7.5833 21.8563 6.9333 21.8563 6.06663C21.8563 5.19997 21.204 4.54997 20.3341 4.54997Z" fill="#969696"/>
<path d="M13.3755 2.3833C16.8548 2.3833 17.2897 2.3833 18.7032 2.49163C22.2912 2.59997 23.9222 4.3333 24.0309 7.79996C24.1396 9.2083 24.1396 9.5333 24.1396 13C24.1396 16.4666 24.1396 16.9 24.0309 18.2C23.9222 21.6666 22.1825 23.4 18.7032 23.5083C17.2897 23.6166 16.9636 23.6166 13.3755 23.6166C9.89622 23.6166 9.4613 23.6166 8.15656 23.5083C4.56853 23.4 2.9376 21.6666 2.82888 18.2C2.72015 16.7916 2.72015 16.4666 2.72015 13C2.72015 9.5333 2.72015 9.09996 2.82888 7.79996C2.9376 4.3333 4.67726 2.59997 8.15656 2.49163C9.4613 2.3833 9.89622 2.3833 13.3755 2.3833ZM13.3755 -3.05176e-05C9.78749 -3.05176e-05 9.35257 -3.05176e-05 8.04783 0.108303C3.26379 0.324969 0.65431 2.92497 0.436853 7.69163C0.328125 8.99163 0.328125 9.42496 0.328125 13C0.328125 16.575 0.328125 17.0083 0.436853 18.3083C0.65431 23.075 3.26379 25.6749 8.04783 25.8916C9.35257 26 9.78749 26 13.3755 26C16.9636 26 17.3985 26 18.7032 25.8916C23.4873 25.6749 26.0967 23.075 26.3142 18.3083C26.4229 17.0083 26.4229 16.575 26.4229 13C26.4229 9.42496 26.4229 8.99163 26.3142 7.69163C26.0967 2.92497 23.4873 0.324969 18.7032 0.108303C17.3985 -3.05176e-05 16.9636 -3.05176e-05 13.3755 -3.05176e-05ZM13.3755 6.2833C9.67876 6.2833 6.63437 9.31663 6.63437 13C6.63437 16.6833 9.67876 19.7166 13.3755 19.7166C17.0723 19.7166 20.1167 16.6833 20.1167 13C20.1167 9.31663 17.0723 6.2833 13.3755 6.2833ZM13.3755 17.3333C10.9835 17.3333 9.02639 15.3833 9.02639 13C9.02639 10.6166 10.9835 8.66663 13.3755 8.66663C15.7675 8.66663 17.7247 10.6166 17.7247 13C17.7247 15.3833 15.7675 17.3333 13.3755 17.3333ZM20.3341 4.54997C19.4643 4.54997 18.8119 5.19997 18.8119 6.06663C18.8119 6.9333 19.4643 7.5833 20.3341 7.5833C21.204 7.5833 21.8563 6.9333 21.8563 6.06663C21.8563 5.19997 21.204 4.54997 20.3341 4.54997Z" fill="#969696"/>
<path d="M13.3755 2.3833C16.8548 2.3833 17.2897 2.3833 18.7032 2.49163C22.2912 2.59997 23.9222 4.3333 24.0309 7.79996C24.1396 9.2083 24.1396 9.5333 24.1396 13C24.1396 16.4666 24.1396 16.9 24.0309 18.2C23.9222 21.6666 22.1825 23.4 18.7032 23.5083C17.2897 23.6166 16.9636 23.6166 13.3755 23.6166C9.89622 23.6166 9.4613 23.6166 8.15656 23.5083C4.56853 23.4 2.9376 21.6666 2.82888 18.2C2.72015 16.7916 2.72015 16.4666 2.72015 13C2.72015 9.5333 2.72015 9.09996 2.82888 7.79996C2.9376 4.3333 4.67726 2.59997 8.15656 2.49163C9.4613 2.3833 9.89622 2.3833 13.3755 2.3833ZM13.3755 -3.05176e-05C9.78749 -3.05176e-05 9.35257 -3.05176e-05 8.04783 0.108303C3.26379 0.324969 0.65431 2.92497 0.436853 7.69163C0.328125 8.99163 0.328125 9.42496 0.328125 13C0.328125 16.575 0.328125 17.0083 0.436853 18.3083C0.65431 23.075 3.26379 25.6749 8.04783 25.8916C9.35257 26 9.78749 26 13.3755 26C16.9636 26 17.3985 26 18.7032 25.8916C23.4873 25.6749 26.0967 23.075 26.3142 18.3083C26.4229 17.0083 26.4229 16.575 26.4229 13C26.4229 9.42496 26.4229 8.99163 26.3142 7.69163C26.0967 2.92497 23.4873 0.324969 18.7032 0.108303C17.3985 -3.05176e-05 16.9636 -3.05176e-05 13.3755 -3.05176e-05ZM13.3755 6.2833C9.67876 6.2833 6.63437 9.31663 6.63437 13C6.63437 16.6833 9.67876 19.7166 13.3755 19.7166C17.0723 19.7166 20.1167 16.6833 20.1167 13C20.1167 9.31663 17.0723 6.2833 13.3755 6.2833ZM13.3755 17.3333C10.9835 17.3333 9.02639 15.3833 9.02639 13C9.02639 10.6166 10.9835 8.66663 13.3755 8.66663C15.7675 8.66663 17.7247 10.6166 17.7247 13C17.7247 15.3833 15.7675 17.3333 13.3755 17.3333ZM20.3341 4.54997C19.4643 4.54997 18.8119 5.19997 18.8119 6.06663C18.8119 6.9333 19.4643 7.5833 20.3341 7.5833C21.204 7.5833 21.8563 6.9333 21.8563 6.06663C21.8563 5.19997 21.204 4.54997 20.3341 4.54997Z" fill="#969696"/>
</svg>
