<svg width="33" height="26" viewBox="0 0 33 26" fill="none" xmlns="http://www.w3.org/2000/svg">
<path fill-rule="evenodd" clip-rule="evenodd" d="M26.0043 2.81537L26.0129 2.81614L26.0215 2.81685C27.088 2.90553 27.6641 3.12387 27.9968 3.33812C28.2871 3.52512 28.5628 3.81658 28.8153 4.43478C29.4152 5.90353 29.6167 8.45446 29.6167 13.0542C29.6167 17.6525 29.4158 20.2444 28.8124 21.7352C28.5569 22.3663 28.2823 22.6499 28.0095 22.8232C27.697 23.0218 27.1416 23.2286 26.0902 23.2868L26.0902 23.2868L26.0788 23.2875C21.371 23.5702 10.8004 23.5708 6.06788 23.2893C5.01881 23.1992 4.44973 22.9828 4.11989 22.7703C3.82952 22.5834 3.55382 22.2919 3.30134 21.6737C2.7015 20.2049 2.5 17.654 2.5 13.0542C2.5 8.45446 2.7015 5.90353 3.30134 4.43478C3.55382 3.81658 3.82952 3.52512 4.11989 3.33812C4.45258 3.12387 5.02867 2.90553 6.09521 2.81685L6.10377 2.81614L6.11233 2.81537C10.7806 2.39488 21.336 2.39488 26.0043 2.81537ZM0 13.0542C0 22.0222 0.669097 25.3491 5.88806 25.783C10.7056 26.0723 21.4111 26.0723 26.2286 25.783C31.4476 25.4937 32.1167 22.0222 32.1167 13.0542C32.1167 4.08623 31.4476 0.759388 26.2286 0.325452C21.4111 -0.108484 10.7056 -0.108484 5.88806 0.325452C0.669097 0.759388 0 4.08623 0 13.0542ZM13.5204 18.0428C12.8541 18.4029 12.0449 17.9204 12.0449 17.1631V8.94574C12.0449 8.18838 12.8541 7.70591 13.5204 8.066L21.1227 12.1747C21.8221 12.5526 21.8221 13.5562 21.1227 13.9341L13.5204 18.0428Z" fill="#969696"/>
<path fill-rule="evenodd" clip-rule="evenodd" d="M26.0043 2.81537L26.0129 2.81614L26.0215 2.81685C27.088 2.90553 27.6641 3.12387 27.9968 3.33812C28.2871 3.52512 28.5628 3.81658 28.8153 4.43478C29.4152 5.90353 29.6167 8.45446 29.6167 13.0542C29.6167 17.6525 29.4158 20.2444 28.8124 21.7352C28.5569 22.3663 28.2823 22.6499 28.0095 22.8232C27.697 23.0218 27.1416 23.2286 26.0902 23.2868L26.0902 23.2868L26.0788 23.2875C21.371 23.5702 10.8004 23.5708 6.06788 23.2893C5.01881 23.1992 4.44973 22.9828 4.11989 22.7703C3.82952 22.5834 3.55382 22.2919 3.30134 21.6737C2.7015 20.2049 2.5 17.654 2.5 13.0542C2.5 8.45446 2.7015 5.90353 3.30134 4.43478C3.55382 3.81658 3.82952 3.52512 4.11989 3.33812C4.45258 3.12387 5.02867 2.90553 6.09521 2.81685L6.10377 2.81614L6.11233 2.81537C10.7806 2.39488 21.336 2.39488 26.0043 2.81537ZM0 13.0542C0 22.0222 0.669097 25.3491 5.88806 25.783C10.7056 26.0723 21.4111 26.0723 26.2286 25.783C31.4476 25.4937 32.1167 22.0222 32.1167 13.0542C32.1167 4.08623 31.4476 0.759388 26.2286 0.325452C21.4111 -0.108484 10.7056 -0.108484 5.88806 0.325452C0.669097 0.759388 0 4.08623 0 13.0542ZM13.5204 18.0428C12.8541 18.4029 12.0449 17.9204 12.0449 17.1631V8.94574C12.0449 8.18838 12.8541 7.70591 13.5204 8.066L21.1227 12.1747C21.8221 12.5526 21.8221 13.5562 21.1227 13.9341L13.5204 18.0428Z" fill="#969696"/>
<path fill-rule="evenodd" clip-rule="evenodd" d="M26.0043 2.81537L26.0129 2.81614L26.0215 2.81685C27.088 2.90553 27.6641 3.12387 27.9968 3.33812C28.2871 3.52512 28.5628 3.81658 28.8153 4.43478C29.4152 5.90353 29.6167 8.45446 29.6167 13.0542C29.6167 17.6525 29.4158 20.2444 28.8124 21.7352C28.5569 22.3663 28.2823 22.6499 28.0095 22.8232C27.697 23.0218 27.1416 23.2286 26.0902 23.2868L26.0902 23.2868L26.0788 23.2875C21.371 23.5702 10.8004 23.5708 6.06788 23.2893C5.01881 23.1992 4.44973 22.9828 4.11989 22.7703C3.82952 22.5834 3.55382 22.2919 3.30134 21.6737C2.7015 20.2049 2.5 17.654 2.5 13.0542C2.5 8.45446 2.7015 5.90353 3.30134 4.43478C3.55382 3.81658 3.82952 3.52512 4.11989 3.33812C4.45258 3.12387 5.02867 2.90553 6.09521 2.81685L6.10377 2.81614L6.11233 2.81537C10.7806 2.39488 21.336 2.39488 26.0043 2.81537ZM0 13.0542C0 22.0222 0.669097 25.3491 5.88806 25.783C10.7056 26.0723 21.4111 26.0723 26.2286 25.783C31.4476 25.4937 32.1167 22.0222 32.1167 13.0542C32.1167 4.08623 31.4476 0.759388 26.2286 0.325452C21.4111 -0.108484 10.7056 -0.108484 5.88806 0.325452C0.669097 0.759388 0 4.08623 0 13.0542ZM13.5204 18.0428C12.8541 18.4029 12.0449 17.9204 12.0449 17.1631V8.94574C12.0449 8.18838 12.8541 7.70591 13.5204 8.066L21.1227 12.1747C21.8221 12.5526 21.8221 13.5562 21.1227 13.9341L13.5204 18.0428Z" fill="#969696"/>
<path fill-rule="evenodd" clip-rule="evenodd" d="M26.0043 2.81537L26.0129 2.81614L26.0215 2.81685C27.088 2.90553 27.6641 3.12387 27.9968 3.33812C28.2871 3.52512 28.5628 3.81658 28.8153 4.43478C29.4152 5.90353 29.6167 8.45446 29.6167 13.0542C29.6167 17.6525 29.4158 20.2444 28.8124 21.7352C28.5569 22.3663 28.2823 22.6499 28.0095 22.8232C27.697 23.0218 27.1416 23.2286 26.0902 23.2868L26.0902 23.2868L26.0788 23.2875C21.371 23.5702 10.8004 23.5708 6.06788 23.2893C5.01881 23.1992 4.44973 22.9828 4.11989 22.7703C3.82952 22.5834 3.55382 22.2919 3.30134 21.6737C2.7015 20.2049 2.5 17.654 2.5 13.0542C2.5 8.45446 2.7015 5.90353 3.30134 4.43478C3.55382 3.81658 3.82952 3.52512 4.11989 3.33812C4.45258 3.12387 5.02867 2.90553 6.09521 2.81685L6.10377 2.81614L6.11233 2.81537C10.7806 2.39488 21.336 2.39488 26.0043 2.81537ZM0 13.0542C0 22.0222 0.669097 25.3491 5.88806 25.783C10.7056 26.0723 21.4111 26.0723 26.2286 25.783C31.4476 25.4937 32.1167 22.0222 32.1167 13.0542C32.1167 4.08623 31.4476 0.759388 26.2286 0.325452C21.4111 -0.108484 10.7056 -0.108484 5.88806 0.325452C0.669097 0.759388 0 4.08623 0 13.0542ZM13.5204 18.0428C12.8541 18.4029 12.0449 17.9204 12.0449 17.1631V8.94574C12.0449 8.18838 12.8541 7.70591 13.5204 8.066L21.1227 12.1747C21.8221 12.5526 21.8221 13.5562 21.1227 13.9341L13.5204 18.0428Z" fill="#969696"/>
</svg>
