<svg width="96" height="93" viewBox="0 0 96 93" fill="none" xmlns="http://www.w3.org/2000/svg">
<path d="M35.8819 30.6932L30.0423 25.1743C30.7225 23.9385 31.1432 22.5394 31.1432 21.03C31.1432 16.2464 27.2685 12.3717 22.4829 12.3717C17.6972 12.3717 13.8164 16.2443 13.8164 21.03C13.8164 25.8156 17.6972 29.6924 22.4829 29.6924C24.17 29.6924 25.7305 29.1899 27.0622 28.3566L32.8937 33.8694C33.7761 32.7031 34.7708 31.6348 35.8819 30.6932Z" fill="#FEEE67"/>
<path d="M60.5797 30.0028L68.3393 16.9449C69.1032 17.1634 69.8957 17.3207 70.727 17.3207C75.5209 17.3207 79.3956 13.444 79.3956 8.65831C79.3956 3.87469 75.5209 0 70.727 0C65.9414 0 62.0687 3.87265 62.0687 8.65831C62.0687 11.0338 63.0267 13.1805 64.5749 14.7471L56.8398 27.7683C58.1695 28.3708 59.4236 29.1225 60.5797 30.0028Z" fill="#FEEE67"/>
<path d="M87.3432 40.9345C83.6177 40.9345 80.4619 43.3018 79.2385 46.6025L68.458 45.5384C68.458 45.6201 68.4702 45.6977 68.4702 45.7773C68.4702 47.1826 68.315 48.5552 68.0352 49.8808L78.8116 50.9449C79.4631 55.079 83.0233 58.2491 87.3432 58.2491C92.1269 58.2491 95.9995 54.3764 95.9995 49.5928C95.9995 44.8112 92.1269 40.9345 87.3432 40.9345Z" fill="#FEEE67"/>
<path d="M57.5938 74.9876L55.1837 64.4563C53.8233 64.9302 52.4078 65.2692 50.9311 65.4388L53.3454 75.9721C50.5777 77.4203 48.668 80.2819 48.668 83.6235C48.668 88.4071 52.5406 92.2777 57.3344 92.2777C62.1181 92.2777 65.9907 88.405 65.9907 83.6235C65.9968 78.9277 62.2549 75.1265 57.5938 74.9876Z" fill="#FEEE67"/>
<path d="M29.3247 49.9583L15.9052 54.454C14.357 52.0887 11.6915 50.52 8.65831 50.52C3.87265 50.52 0 54.3947 0 59.1783C0 63.9681 3.87265 67.8428 8.65831 67.8428C13.4399 67.8428 17.3227 63.9681 17.3227 59.1783C17.3227 58.9782 17.2798 58.7943 17.2635 58.5983L30.7259 54.0904C30.1192 52.7811 29.6372 51.4024 29.3247 49.9583Z" fill="#FEEE67"/>
<path d="M48.6755 60.6286C56.8776 60.6286 63.5268 53.9795 63.5268 45.7773C63.5268 37.5752 56.8776 30.9261 48.6755 30.9261C40.4734 30.9261 33.8242 37.5752 33.8242 45.7773C33.8242 53.9795 40.4734 60.6286 48.6755 60.6286Z" fill="#FEEE67"/>
</svg>
