<svg width="75" height="63" viewBox="0 0 75 63" fill="none" xmlns="http://www.w3.org/2000/svg">
<path d="M39.8333 16C37.7162 16 36 17.7909 36 20C36 22.2091 37.7162 24 39.8333 24H55.1667C57.2838 24 59 22.2091 59 20C59 17.7909 57.2838 16 55.1667 16H39.8333Z" fill="#FEEE67"/>
<path d="M39.8333 51C37.7162 51 36 52.7908 36 55C36 57.2092 37.7162 59 39.8333 59H55.1667C57.2838 59 59 57.2092 59 55C59 52.7908 57.2838 51 55.1667 51H39.8333Z" fill="#FEEE67"/>
<path d="M39.9 4C37.746 4 36 5.79088 36 8C36 10.2091 37.746 12 39.9 12H71.1C73.254 12 75 10.2091 75 8C75 5.79088 73.254 4 71.1 4H39.9Z" fill="#FEEE67"/>
<path d="M39.9 39C37.746 39 36 40.7908 36 43C36 45.2092 37.746 47 39.9 47H71.1C73.254 47 75 45.2092 75 43C75 40.7908 73.254 39 71.1 39H39.9Z" fill="#FEEE67"/>
<path d="M3.85714 0C1.72688 0 0 1.72688 0 3.85713V23.1429C0 25.2732 1.72688 27 3.85714 27H23.1429C25.2731 27 27 25.2732 27 23.1429V3.85713C27 1.72688 25.2731 0 23.1429 0H3.85714Z" fill="#FEEE67"/>
<path d="M3.85714 35C1.72688 35 0 36.7908 0 39V59C0 61.2092 1.72688 63 3.85714 63H23.1429C25.2731 63 27 61.2092 27 59V39C27 36.7908 25.2731 35 23.1429 35H3.85714Z" fill="#FEEE67"/>
</svg>
