<svg width="85" height="71" viewBox="0 0 85 71" fill="none" xmlns="http://www.w3.org/2000/svg">
<g opacity="0.2">
<path d="M24.6074 58.2295C23.397 58.2051 22.3319 58.3515 21.2667 58.5954C21.073 59.3029 21.0972 60.3275 21.2667 61.0594C22.5497 60.7667 23.276 60.7423 24.099 60.7423C25.6968 60.7423 26.4715 61.4009 26.4715 62.7183V62.8403C25.9873 62.7915 25.4305 62.7427 25.019 62.7427C22.3803 62.7427 20.1289 63.6941 20.1289 66.2557C20.1289 69.1344 22.1624 70.1102 25.1158 70.1102C26.5199 70.1102 28.0208 69.8662 29.4248 69.4271V62.9379C29.4248 59.8396 27.7787 58.3027 24.6074 58.2295ZM26.4715 67.5486C26.302 67.5974 25.5273 67.6706 25.1642 67.6706C23.7359 67.6706 22.9855 67.2559 22.9855 66.2313C22.9855 65.2311 23.7601 64.8163 25.1642 64.8163C25.6484 64.8163 26.181 64.8651 26.4715 64.8895V67.5486Z" fill="black"/>
<path d="M18.9193 58.3759C17.4426 58.3759 16.6195 58.9614 15.8206 59.986C15.748 59.4493 15.6512 59.0346 15.4817 58.4979C15.1912 58.4003 14.6586 58.3759 14.2229 58.3759C13.8114 58.3759 13.2546 58.4247 12.9883 58.4979V69.8419C13.3514 69.9395 13.9808 69.9638 14.5376 69.9638C15.0702 69.9638 15.748 69.9151 16.0869 69.8419V64.3041C16.0869 62.1084 17.2247 60.9131 18.774 60.9131C19.0403 60.9131 19.5245 60.9131 19.7908 60.9618C19.9602 60.23 19.9844 59.181 19.8392 58.4491C19.6213 58.4491 19.1614 58.3759 18.9193 58.3759Z" fill="black"/>
<path d="M6.03905 58.2783C5.14335 58.2783 4.27185 58.4735 3.73927 58.7662V53.204C2.86778 53.5212 1.94787 53.9847 1.1732 54.619C0.785873 54.9361 0.640625 55.2777 0.640625 55.7412V69.4759C1.4637 69.8175 3.13407 70.1346 4.7076 70.1346C8.72616 70.1346 11.0501 67.6463 11.0501 64.0601C11.0744 60.4983 9.42819 58.2783 6.03905 58.2783ZM4.90126 67.5731C4.58656 67.5731 4.07819 67.5731 3.73927 67.4511V61.2058C4.15081 60.9862 4.75602 60.8643 5.53068 60.8643C7.08 60.8643 7.90308 61.9377 7.90308 63.9625C7.87887 66.1093 6.91054 67.5731 4.90126 67.5731Z" fill="black"/>
<path d="M38.4073 55.7412V58.4735C37.8506 58.3271 37.2938 58.3027 36.7854 58.3027C33.372 58.3027 31.0723 60.5959 31.0723 64.2797C31.0723 68.0366 33.3236 70.1102 36.858 70.1102C38.48 70.1102 40.0535 69.8907 41.4818 69.4027V53.204C40.6103 53.5212 39.6904 53.9847 38.9157 54.619C38.5284 54.9361 38.4073 55.2533 38.4073 55.7412ZM38.4073 67.4023C37.8748 67.5487 37.5116 67.5731 37.1001 67.5731C35.0666 67.5731 34.2677 66.2313 34.2677 64.2553C34.2677 62.0841 35.0666 60.7423 37.0759 60.7423C37.6811 60.7423 38.0442 60.8155 38.4073 60.9131V67.4023Z" fill="black"/>
<path d="M60.46 63.1331L59.2254 62.5964C58.4991 62.3036 58.0876 62.0353 58.0876 61.5717C58.0876 60.8399 58.7412 60.6935 59.5885 60.6935C60.4358 60.6935 61.3073 60.7911 62.4935 61.1814C62.6387 60.352 62.6387 59.5713 62.4935 58.8638C61.743 58.4735 60.3632 58.2539 59.1285 58.2539C56.7319 58.2539 54.9163 59.5469 54.9163 61.4986C54.9163 63.255 55.6668 64.1333 57.7487 64.9871L58.717 65.3775C59.6369 65.7434 59.9032 65.9874 59.9032 66.5728C59.9032 67.4755 59.0075 67.6219 58.2571 67.6219C57.0224 67.6219 56.0783 67.3779 54.8679 66.9388C54.6742 67.6707 54.6742 68.6221 54.8679 69.3783C55.8846 69.9394 57.2887 70.1102 58.7412 70.1102C61.1136 70.1102 63.0019 68.866 63.0019 66.5972C63.0019 64.7432 62.2272 63.8649 60.46 63.1331Z" fill="black"/>
<path d="M70.0447 67.5486C68.4954 67.5486 67.4787 66.3289 67.4787 64.1576C67.4787 62.1084 68.3018 60.7667 70.069 60.7667C70.8194 60.7667 71.3278 60.8886 72.0298 61.157C72.2235 60.4495 72.6108 59.6445 73.1192 58.9858C72.1509 58.4735 71.2067 58.2051 69.6574 58.2051C66.2441 58.2051 64.2832 60.6447 64.2832 64.1332C64.2832 67.7682 66.2925 70.0614 69.7785 70.0614C71.0373 70.0614 72.2235 69.8418 73.1676 69.3051C72.7561 68.744 72.2719 68.0122 72.0056 67.1339C71.1341 67.5242 70.771 67.5486 70.0447 67.5486Z" fill="black"/>
<path d="M78.6641 58.2295C75.2023 58.2295 73.2656 60.6203 73.2656 64.1821C73.2656 67.817 75.2991 70.0858 78.6641 70.0858C82.15 70.0858 84.0867 67.7682 84.0867 64.1821C84.0867 60.5959 82.15 58.2295 78.6641 58.2295ZM78.6641 67.5974C76.9453 67.5974 76.4369 66.1825 76.4369 64.1821C76.4369 62.2304 76.9695 60.7179 78.6641 60.7179C80.4313 60.7179 80.9154 62.1816 80.9154 64.1821C80.9154 66.3045 80.3586 67.5974 78.6641 67.5974Z" fill="black"/>
<path d="M48.5969 58.2295C45.2561 58.2295 43.2227 60.4739 43.2227 64.2309C43.2227 67.9878 45.3772 70.0858 49.081 70.0858C50.3399 70.0858 51.7197 69.8662 52.5912 69.4271C52.7607 68.6953 52.7607 67.7438 52.5912 67.012C51.4534 67.3291 50.4851 67.5487 49.4199 67.5487C47.7012 67.5487 46.515 66.89 46.2729 65.0603H53.2933C53.3901 64.792 53.4143 63.8649 53.4143 63.4746C53.3901 60.1324 51.5018 58.2295 48.5969 58.2295ZM46.2729 62.8159C46.4908 61.4497 47.3138 60.6203 48.5485 60.6203C49.9525 60.6203 50.4851 61.5717 50.5335 62.8159H46.2729Z" fill="black"/>
<path d="M41.0693 9.90176C38.2611 9.90176 35.2109 10.1701 32.1849 10.6824C35.2351 6.73032 40.101 4.16878 45.5236 4.16878C49.5179 4.16878 53.5123 5.68131 56.1994 7.95011C56.6836 8.36483 57.0709 8.38923 57.434 8.02329C57.7971 7.65736 57.7729 7.26703 57.3614 6.80351C53.8512 2.68065 48.6949 -0.0760605 42.6186 0.0215221C34.6541 0.167896 27.9 5.24219 25.3097 12.2681C22.9616 13.0244 20.7828 13.9026 18.8946 14.9761C18.362 15.2688 18.1925 15.6347 18.362 16.0739C18.5557 16.4886 18.9188 16.635 19.4514 16.4886C21.0975 16.0007 22.7679 15.5859 24.5351 15.22C24.3414 16.147 24.2446 17.0985 24.2446 18.0987C24.0993 24.5635 27.5369 30.7356 32.8385 34.1022C33.3711 34.4438 33.8068 34.4438 34.0973 34.029C34.3878 33.6143 34.3636 33.2484 33.9037 32.8581C30.5387 29.833 28.6747 25.2954 28.6747 20.831C28.6747 18.5622 29.1346 16.391 29.9819 14.415C31.7491 14.2686 33.6374 14.1466 35.7435 14.1466C49.3485 14.1466 60.7989 18.6598 60.7989 24.5879C60.7989 27.5886 57.0225 30.5893 52.544 32.5897C51.4546 33.0776 51.3578 33.4192 51.503 33.8827C51.6483 34.3218 52.1324 34.4682 52.6892 34.2974C60.5327 31.7115 66.4637 27.4422 66.4637 22.2947C66.4637 15.3176 55.2553 9.90176 41.0693 9.90176Z" fill="black"/>
<path d="M47.5561 45.5194V30.516C47.5561 29.9306 46.9993 29.7354 46.5636 30.0037L42.7871 32.1993V46.2512H46.8541C47.2172 46.2268 47.5561 45.9097 47.5561 45.5194Z" fill="black"/>
<path d="M38.1641 35.3952V45.7633C38.1641 46.0317 38.3577 46.2268 38.624 46.2268H41.4806V32.9068L38.624 34.5657C38.3335 34.7609 38.1641 35.0293 38.1641 35.3952Z" fill="black"/>
</g>
</svg>
