<svg width="308" height="470" viewBox="0 0 308 470" fill="none" xmlns="http://www.w3.org/2000/svg">
<path d="M59.9135 1.30273L54.5918 32.5325H63.103L68.4291 1.30273H59.9135Z" fill="white"/>
<path d="M47.4548 1.34153L39.1187 22.6393L38.23 19.4235C36.5859 15.5488 31.9188 9.9841 26.4395 6.47716L34.0619 32.5209L43.0679 32.5056L56.4717 1.33496L47.4548 1.34153Z" fill="white"/>
<path d="M35 3.58112C34.5053 1.67879 33.0714 1.11181 31.2917 1.04395H18.0958L17.9863 1.66565C28.2554 4.15685 35.0504 10.1594 37.8699 17.3768L35 3.58112Z" fill="white"/>
<path d="M85.6798 7.29794C88.4644 7.25416 90.4827 7.86273 92.0501 8.49319L92.8185 8.85439L93.9699 2.08568C92.2843 1.45303 89.6421 0.774414 86.3453 0.774414C77.9348 0.774414 72.0067 5.01032 71.9607 11.0807C71.906 15.5662 76.1835 18.0705 79.4146 19.5657C82.7311 21.098 83.8432 22.0722 83.8278 23.4404C83.8016 25.531 81.1834 26.4898 78.7382 26.4898C75.3297 26.4898 73.5194 26.0191 70.7239 24.8545L69.6271 24.3554L68.4297 31.3452C70.4218 32.2187 74.0973 32.9695 77.9129 33.009C86.8597 33.009 92.674 28.8234 92.7353 22.3371C92.7725 18.7885 90.5024 16.0806 85.5835 13.8587C82.6063 12.4095 80.785 11.4463 80.8025 9.98397C80.8025 8.68583 82.348 7.29794 85.6798 7.29794Z" fill="white"/>
<path d="M115.814 1.33984H109.238C107.195 1.33984 105.676 1.89588 104.778 3.93174L92.1406 32.5521H101.079C101.079 32.5521 102.537 28.7036 102.867 27.8608C103.846 27.8608 112.53 27.874 113.767 27.874C114.021 28.9641 114.804 32.5521 114.804 32.5521H122.7L115.814 1.33984ZM105.317 21.4686C106.017 19.6758 108.708 12.7407 108.708 12.7407C108.662 12.8261 109.402 10.9347 109.842 9.75913L110.415 12.4517C110.415 12.4517 112.046 19.9078 112.388 21.4686H105.317Z" fill="white"/>
<path d="M36.5844 161.872C35.901 161.872 35.5594 161.522 35.5594 160.822V157.922H28.3844C28.051 157.922 27.7844 157.847 27.5844 157.697C27.401 157.531 27.3094 157.297 27.3094 156.997C27.3094 156.697 27.501 156.264 27.8844 155.697L35.5094 144.597C35.8094 144.131 36.1927 143.897 36.6594 143.897C36.926 143.897 37.151 143.989 37.3344 144.172C37.5344 144.339 37.6344 144.597 37.6344 144.947V156.172H39.4594C40.1094 156.172 40.4344 156.464 40.4344 157.047C40.4344 157.631 40.1094 157.922 39.4594 157.922H37.6344V160.822C37.6344 161.522 37.2844 161.872 36.5844 161.872ZM35.5594 156.172V147.372L29.5344 156.172H35.5594ZM48.9996 161.922C48.0329 161.922 47.0746 161.781 46.1246 161.497C45.1913 161.214 44.3496 160.772 43.5996 160.172C43.3496 160.006 43.1996 159.806 43.1496 159.572C43.1163 159.322 43.1579 159.097 43.2746 158.897C43.3913 158.697 43.5579 158.564 43.7746 158.497C44.0079 158.431 44.2663 158.489 44.5496 158.672C45.8663 159.622 47.3413 160.097 48.9746 160.097C50.1913 160.097 51.1496 159.756 51.8496 159.072C52.5496 158.389 52.8996 157.489 52.8996 156.372C52.8996 155.222 52.5663 154.281 51.8996 153.547C51.2329 152.814 50.3163 152.447 49.1496 152.447C48.4329 152.447 47.7663 152.581 47.1496 152.847C46.5496 153.114 46.0079 153.539 45.5246 154.122C45.4079 154.256 45.2663 154.372 45.0996 154.472C44.9496 154.556 44.7746 154.597 44.5746 154.597C43.9746 154.597 43.6746 154.306 43.6746 153.722V145.022C43.6746 144.389 43.9913 144.072 44.6246 144.072H53.1246C53.7579 144.072 54.0746 144.364 54.0746 144.947C54.0746 145.531 53.7579 145.822 53.1246 145.822H45.6996V152.122C46.6663 151.156 47.9413 150.672 49.5246 150.672C50.6246 150.672 51.5829 150.906 52.3996 151.372C53.2163 151.839 53.8413 152.497 54.2746 153.347C54.7246 154.181 54.9496 155.156 54.9496 156.272C54.9496 157.372 54.7079 158.347 54.2246 159.197C53.7413 160.047 53.0496 160.714 52.1496 161.197C51.2663 161.681 50.2163 161.922 48.9996 161.922ZM63.9898 161.922C63.0232 161.922 62.0648 161.781 61.1148 161.497C60.1815 161.214 59.3398 160.772 58.5898 160.172C58.3398 160.006 58.1898 159.806 58.1398 159.572C58.1065 159.322 58.1482 159.097 58.2648 158.897C58.3815 158.697 58.5482 158.564 58.7648 158.497C58.9982 158.431 59.2565 158.489 59.5398 158.672C60.8565 159.622 62.3315 160.097 63.9648 160.097C65.1815 160.097 66.1398 159.756 66.8398 159.072C67.5398 158.389 67.8898 157.489 67.8898 156.372C67.8898 155.222 67.5565 154.281 66.8898 153.547C66.2232 152.814 65.3065 152.447 64.1398 152.447C63.4232 152.447 62.7565 152.581 62.1398 152.847C61.5398 153.114 60.9982 153.539 60.5148 154.122C60.3982 154.256 60.2565 154.372 60.0898 154.472C59.9398 154.556 59.7648 154.597 59.5648 154.597C58.9648 154.597 58.6648 154.306 58.6648 153.722V145.022C58.6648 144.389 58.9815 144.072 59.6148 144.072H68.1148C68.7482 144.072 69.0648 144.364 69.0648 144.947C69.0648 145.531 68.7482 145.822 68.1148 145.822H60.6898V152.122C61.6565 151.156 62.9315 150.672 64.5148 150.672C65.6148 150.672 66.5732 150.906 67.3898 151.372C68.2065 151.839 68.8315 152.497 69.2648 153.347C69.7148 154.181 69.9398 155.156 69.9398 156.272C69.9398 157.372 69.6982 158.347 69.2148 159.197C68.7315 160.047 68.0398 160.714 67.1398 161.197C66.2565 161.681 65.2065 161.922 63.9898 161.922ZM79.2051 161.922C77.1217 161.922 75.5134 161.172 74.3801 159.672C73.2634 158.156 72.7051 156.039 72.7051 153.322C72.7051 150.272 73.3301 147.931 74.5801 146.297C75.8301 144.664 77.5801 143.847 79.8301 143.847C80.5967 143.847 81.3801 143.997 82.1801 144.297C82.9967 144.597 83.7134 145.022 84.3301 145.572C84.5467 145.756 84.6634 145.964 84.6801 146.197C84.7134 146.431 84.6717 146.647 84.5551 146.847C84.4384 147.047 84.2717 147.181 84.0551 147.247C83.8551 147.297 83.6217 147.222 83.3551 147.022C82.7884 146.539 82.2051 146.197 81.6051 145.997C81.0051 145.781 80.3967 145.672 79.7801 145.672C78.1467 145.672 76.8884 146.281 76.0051 147.497C75.1384 148.714 74.7051 150.522 74.7051 152.922V154.147C75.0217 153.047 75.6051 152.189 76.4551 151.572C77.3217 150.956 78.3384 150.647 79.5051 150.647C80.5384 150.647 81.4551 150.889 82.2551 151.372C83.0551 151.839 83.6801 152.489 84.1301 153.322C84.5801 154.156 84.8051 155.114 84.8051 156.197C84.8051 157.314 84.5634 158.306 84.0801 159.172C83.6134 160.022 82.9551 160.697 82.1051 161.197C81.2717 161.681 80.3051 161.922 79.2051 161.922ZM79.0801 160.172C80.1967 160.172 81.0967 159.814 81.7801 159.097C82.4801 158.381 82.8301 157.439 82.8301 156.272C82.8301 155.122 82.4801 154.189 81.7801 153.472C81.0967 152.739 80.1967 152.372 79.0801 152.372C77.9634 152.372 77.0551 152.739 76.3551 153.472C75.6717 154.189 75.3301 155.122 75.3301 156.272C75.3301 157.439 75.6717 158.381 76.3551 159.097C77.0551 159.814 77.9634 160.172 79.0801 160.172ZM99.8406 161.922C98.8573 161.922 97.8823 161.781 96.9156 161.497C95.9489 161.214 95.1073 160.797 94.3906 160.247C94.1239 160.047 93.9656 159.831 93.9156 159.597C93.8823 159.347 93.9156 159.122 94.0156 158.922C94.1323 158.722 94.3073 158.597 94.5406 158.547C94.7739 158.481 95.0323 158.539 95.3156 158.722C96.0489 159.206 96.7823 159.556 97.5156 159.772C98.2489 159.989 99.0073 160.097 99.7906 160.097C101.057 160.097 102.024 159.822 102.691 159.272C103.374 158.706 103.716 157.881 103.716 156.797C103.716 155.764 103.374 154.981 102.691 154.447C102.007 153.914 101.016 153.647 99.7156 153.647H97.9406C97.2906 153.647 96.9656 153.347 96.9656 152.747C96.9656 152.164 97.2906 151.872 97.9406 151.872H99.5406C100.674 151.872 101.566 151.581 102.216 150.997C102.882 150.397 103.216 149.581 103.216 148.547C103.216 147.631 102.907 146.922 102.291 146.422C101.691 145.922 100.832 145.672 99.7156 145.672C98.9489 145.672 98.2323 145.781 97.5656 145.997C96.9156 146.214 96.2656 146.581 95.6156 147.097C95.3656 147.281 95.1239 147.347 94.8906 147.297C94.6739 147.247 94.4989 147.131 94.3656 146.947C94.2489 146.747 94.2073 146.522 94.2406 146.272C94.2906 146.022 94.4489 145.797 94.7156 145.597C95.3656 145.047 96.1406 144.622 97.0406 144.322C97.9406 144.006 98.8739 143.847 99.8406 143.847C101.541 143.847 102.866 144.247 103.816 145.047C104.782 145.847 105.266 146.956 105.266 148.372C105.266 149.356 105.016 150.222 104.516 150.972C104.016 151.706 103.324 152.239 102.441 152.572C103.491 152.856 104.307 153.381 104.891 154.147C105.474 154.897 105.766 155.831 105.766 156.947C105.766 158.464 105.232 159.672 104.166 160.572C103.116 161.472 101.674 161.922 99.8406 161.922ZM114.831 161.922C113.848 161.922 112.873 161.781 111.906 161.497C110.939 161.214 110.098 160.797 109.381 160.247C109.114 160.047 108.956 159.831 108.906 159.597C108.873 159.347 108.906 159.122 109.006 158.922C109.123 158.722 109.298 158.597 109.531 158.547C109.764 158.481 110.023 158.539 110.306 158.722C111.039 159.206 111.773 159.556 112.506 159.772C113.239 159.989 113.998 160.097 114.781 160.097C116.048 160.097 117.014 159.822 117.681 159.272C118.364 158.706 118.706 157.881 118.706 156.797C118.706 155.764 118.364 154.981 117.681 154.447C116.998 153.914 116.006 153.647 114.706 153.647H112.931C112.281 153.647 111.956 153.347 111.956 152.747C111.956 152.164 112.281 151.872 112.931 151.872H114.531C115.664 151.872 116.556 151.581 117.206 150.997C117.873 150.397 118.206 149.581 118.206 148.547C118.206 147.631 117.898 146.922 117.281 146.422C116.681 145.922 115.823 145.672 114.706 145.672C113.939 145.672 113.223 145.781 112.556 145.997C111.906 146.214 111.256 146.581 110.606 147.097C110.356 147.281 110.114 147.347 109.881 147.297C109.664 147.247 109.489 147.131 109.356 146.947C109.239 146.747 109.198 146.522 109.231 146.272C109.281 146.022 109.439 145.797 109.706 145.597C110.356 145.047 111.131 144.622 112.031 144.322C112.931 144.006 113.864 143.847 114.831 143.847C116.531 143.847 117.856 144.247 118.806 145.047C119.773 145.847 120.256 146.956 120.256 148.372C120.256 149.356 120.006 150.222 119.506 150.972C119.006 151.706 118.314 152.239 117.431 152.572C118.481 152.856 119.298 153.381 119.881 154.147C120.464 154.897 120.756 155.831 120.756 156.947C120.756 158.464 120.223 159.672 119.156 160.572C118.106 161.472 116.664 161.922 114.831 161.922ZM125.746 161.697C125.363 161.697 125.088 161.614 124.921 161.447C124.754 161.264 124.671 161.022 124.671 160.722C124.671 160.372 124.846 160.014 125.196 159.647L130.796 153.647C131.646 152.731 132.254 151.889 132.621 151.122C133.004 150.339 133.196 149.547 133.196 148.747C133.196 146.697 132.004 145.672 129.621 145.672C128.138 145.672 126.788 146.147 125.571 147.097C125.304 147.297 125.063 147.372 124.846 147.322C124.629 147.256 124.463 147.122 124.346 146.922C124.246 146.722 124.204 146.506 124.221 146.272C124.254 146.022 124.396 145.806 124.646 145.622C125.296 145.089 126.079 144.664 126.996 144.347C127.913 144.014 128.846 143.847 129.796 143.847C131.563 143.847 132.913 144.264 133.846 145.097C134.796 145.914 135.271 147.081 135.271 148.597C135.271 149.647 135.013 150.681 134.496 151.697C133.996 152.697 133.204 153.764 132.121 154.897L127.371 159.947H135.221C135.854 159.947 136.171 160.231 136.171 160.797C136.171 161.397 135.854 161.697 135.221 161.697H125.746ZM145.386 161.922C144.42 161.922 143.461 161.781 142.511 161.497C141.578 161.214 140.736 160.772 139.986 160.172C139.736 160.006 139.586 159.806 139.536 159.572C139.503 159.322 139.545 159.097 139.661 158.897C139.778 158.697 139.945 158.564 140.161 158.497C140.395 158.431 140.653 158.489 140.936 158.672C142.253 159.622 143.728 160.097 145.361 160.097C146.578 160.097 147.536 159.756 148.236 159.072C148.936 158.389 149.286 157.489 149.286 156.372C149.286 155.222 148.953 154.281 148.286 153.547C147.62 152.814 146.703 152.447 145.536 152.447C144.82 152.447 144.153 152.581 143.536 152.847C142.936 153.114 142.395 153.539 141.911 154.122C141.795 154.256 141.653 154.372 141.486 154.472C141.336 154.556 141.161 154.597 140.961 154.597C140.361 154.597 140.061 154.306 140.061 153.722V145.022C140.061 144.389 140.378 144.072 141.011 144.072H149.511C150.145 144.072 150.461 144.364 150.461 144.947C150.461 145.531 150.145 145.822 149.511 145.822H142.086V152.122C143.053 151.156 144.328 150.672 145.911 150.672C147.011 150.672 147.97 150.906 148.786 151.372C149.603 151.839 150.228 152.497 150.661 153.347C151.111 154.181 151.336 155.156 151.336 156.272C151.336 157.372 151.095 158.347 150.611 159.197C150.128 160.047 149.436 160.714 148.536 161.197C147.653 161.681 146.603 161.922 145.386 161.922ZM166.447 161.922C164.464 161.922 162.922 161.497 161.822 160.647C160.722 159.781 160.172 158.572 160.172 157.022C160.172 155.939 160.464 155.014 161.047 154.247C161.647 153.481 162.439 152.956 163.422 152.672C162.539 152.339 161.847 151.806 161.347 151.072C160.847 150.339 160.597 149.497 160.597 148.547C160.597 147.064 161.122 145.914 162.172 145.097C163.239 144.264 164.664 143.847 166.447 143.847C168.23 143.847 169.655 144.264 170.722 145.097C171.789 145.914 172.322 147.064 172.322 148.547C172.322 149.497 172.064 150.347 171.547 151.097C171.047 151.831 170.364 152.356 169.497 152.672C170.48 152.956 171.264 153.481 171.847 154.247C172.43 155.014 172.722 155.939 172.722 157.022C172.722 158.572 172.172 159.781 171.072 160.647C169.972 161.497 168.43 161.922 166.447 161.922ZM166.447 151.922C167.664 151.922 168.614 151.639 169.297 151.072C169.997 150.489 170.347 149.706 170.347 148.722C170.347 147.722 169.997 146.947 169.297 146.397C168.614 145.831 167.664 145.547 166.447 145.547C165.23 145.547 164.28 145.831 163.597 146.397C162.914 146.947 162.572 147.722 162.572 148.722C162.572 149.706 162.914 150.489 163.597 151.072C164.28 151.639 165.23 151.922 166.447 151.922ZM166.447 160.222C169.314 160.222 170.747 159.114 170.747 156.897C170.747 154.714 169.314 153.622 166.447 153.622C163.58 153.622 162.147 154.714 162.147 156.897C162.147 159.114 163.58 160.222 166.447 160.222ZM181.812 161.922C180.845 161.922 179.887 161.781 178.937 161.497C178.004 161.214 177.162 160.772 176.412 160.172C176.162 160.006 176.012 159.806 175.962 159.572C175.929 159.322 175.97 159.097 176.087 158.897C176.204 158.697 176.37 158.564 176.587 158.497C176.82 158.431 177.079 158.489 177.362 158.672C178.679 159.622 180.154 160.097 181.787 160.097C183.004 160.097 183.962 159.756 184.662 159.072C185.362 158.389 185.712 157.489 185.712 156.372C185.712 155.222 185.379 154.281 184.712 153.547C184.045 152.814 183.129 152.447 181.962 152.447C181.245 152.447 180.579 152.581 179.962 152.847C179.362 153.114 178.82 153.539 178.337 154.122C178.22 154.256 178.079 154.372 177.912 154.472C177.762 154.556 177.587 154.597 177.387 154.597C176.787 154.597 176.487 154.306 176.487 153.722V145.022C176.487 144.389 176.804 144.072 177.437 144.072H185.937C186.57 144.072 186.887 144.364 186.887 144.947C186.887 145.531 186.57 145.822 185.937 145.822H178.512V152.122C179.479 151.156 180.754 150.672 182.337 150.672C183.437 150.672 184.395 150.906 185.212 151.372C186.029 151.839 186.654 152.497 187.087 153.347C187.537 154.181 187.762 155.156 187.762 156.272C187.762 157.372 187.52 158.347 187.037 159.197C186.554 160.047 185.862 160.714 184.962 161.197C184.079 161.681 183.029 161.922 181.812 161.922ZM195.202 161.922C194.436 161.922 193.644 161.772 192.827 161.472C192.027 161.172 191.319 160.739 190.702 160.172C190.486 160.006 190.361 159.806 190.327 159.572C190.311 159.322 190.361 159.106 190.477 158.922C190.594 158.722 190.752 158.597 190.952 158.547C191.169 158.481 191.411 158.539 191.677 158.722C192.244 159.206 192.827 159.556 193.427 159.772C194.027 159.989 194.636 160.097 195.252 160.097C196.886 160.097 198.136 159.489 199.002 158.272C199.886 157.056 200.327 155.247 200.327 152.847V151.622C200.011 152.722 199.419 153.581 198.552 154.197C197.702 154.814 196.694 155.122 195.527 155.122C194.494 155.122 193.577 154.889 192.777 154.422C191.977 153.939 191.352 153.281 190.902 152.447C190.452 151.614 190.227 150.656 190.227 149.572C190.227 148.456 190.461 147.472 190.927 146.622C191.411 145.756 192.069 145.081 192.902 144.597C193.752 144.097 194.727 143.847 195.827 143.847C197.911 143.847 199.511 144.606 200.627 146.122C201.761 147.622 202.327 149.731 202.327 152.447C202.327 155.497 201.702 157.839 200.452 159.472C199.202 161.106 197.452 161.922 195.202 161.922ZM195.952 153.397C197.069 153.397 197.977 153.039 198.677 152.322C199.377 151.589 199.727 150.639 199.727 149.472C199.727 148.322 199.377 147.389 198.677 146.672C197.977 145.939 197.069 145.572 195.952 145.572C194.852 145.572 193.952 145.939 193.252 146.672C192.552 147.389 192.202 148.322 192.202 149.472C192.202 150.639 192.552 151.589 193.252 152.322C193.952 153.039 194.852 153.397 195.952 153.397ZM211.418 161.922C209.401 161.922 207.868 161.147 206.818 159.597C205.768 158.047 205.243 155.806 205.243 152.872C205.243 149.922 205.768 147.681 206.818 146.147C207.868 144.614 209.401 143.847 211.418 143.847C213.451 143.847 214.984 144.614 216.018 146.147C217.068 147.664 217.593 149.897 217.593 152.847C217.593 155.797 217.059 158.047 215.993 159.597C214.943 161.147 213.418 161.922 211.418 161.922ZM211.418 160.147C212.818 160.147 213.851 159.556 214.518 158.372C215.201 157.172 215.543 155.331 215.543 152.847C215.543 150.347 215.209 148.522 214.543 147.372C213.876 146.206 212.834 145.622 211.418 145.622C210.018 145.622 208.976 146.206 208.293 147.372C207.626 148.539 207.293 150.364 207.293 152.847C207.293 155.331 207.626 157.172 208.293 158.372C208.976 159.556 210.018 160.147 211.418 160.147ZM232.653 161.922C231.67 161.922 230.695 161.781 229.728 161.497C228.761 161.214 227.92 160.797 227.203 160.247C226.936 160.047 226.778 159.831 226.728 159.597C226.695 159.347 226.728 159.122 226.828 158.922C226.945 158.722 227.12 158.597 227.353 158.547C227.586 158.481 227.845 158.539 228.128 158.722C228.861 159.206 229.595 159.556 230.328 159.772C231.061 159.989 231.82 160.097 232.603 160.097C233.87 160.097 234.836 159.822 235.503 159.272C236.186 158.706 236.528 157.881 236.528 156.797C236.528 155.764 236.186 154.981 235.503 154.447C234.82 153.914 233.828 153.647 232.528 153.647H230.753C230.103 153.647 229.778 153.347 229.778 152.747C229.778 152.164 230.103 151.872 230.753 151.872H232.353C233.486 151.872 234.378 151.581 235.028 150.997C235.695 150.397 236.028 149.581 236.028 148.547C236.028 147.631 235.72 146.922 235.103 146.422C234.503 145.922 233.645 145.672 232.528 145.672C231.761 145.672 231.045 145.781 230.378 145.997C229.728 146.214 229.078 146.581 228.428 147.097C228.178 147.281 227.936 147.347 227.703 147.297C227.486 147.247 227.311 147.131 227.178 146.947C227.061 146.747 227.02 146.522 227.053 146.272C227.103 146.022 227.261 145.797 227.528 145.597C228.178 145.047 228.953 144.622 229.853 144.322C230.753 144.006 231.686 143.847 232.653 143.847C234.353 143.847 235.678 144.247 236.628 145.047C237.595 145.847 238.078 146.956 238.078 148.372C238.078 149.356 237.828 150.222 237.328 150.972C236.828 151.706 236.136 152.239 235.253 152.572C236.303 152.856 237.12 153.381 237.703 154.147C238.286 154.897 238.578 155.831 238.578 156.947C238.578 158.464 238.045 159.672 236.978 160.572C235.928 161.472 234.486 161.922 232.653 161.922ZM244.543 161.872C244.177 161.872 243.902 161.747 243.718 161.497C243.552 161.231 243.568 160.906 243.768 160.522L251.343 145.847H242.793C242.16 145.847 241.843 145.547 241.843 144.947C241.843 144.364 242.16 144.072 242.793 144.072H252.718C253.018 144.072 253.26 144.156 253.443 144.322C253.627 144.472 253.718 144.681 253.718 144.947C253.718 145.197 253.685 145.414 253.618 145.597C253.568 145.764 253.493 145.947 253.393 146.147L245.693 161.172C245.46 161.639 245.077 161.872 244.543 161.872ZM262.634 161.922C261.65 161.922 260.675 161.781 259.709 161.497C258.742 161.214 257.9 160.797 257.184 160.247C256.917 160.047 256.759 159.831 256.709 159.597C256.675 159.347 256.709 159.122 256.809 158.922C256.925 158.722 257.1 158.597 257.334 158.547C257.567 158.481 257.825 158.539 258.109 158.722C258.842 159.206 259.575 159.556 260.309 159.772C261.042 159.989 261.8 160.097 262.584 160.097C263.85 160.097 264.817 159.822 265.484 159.272C266.167 158.706 266.509 157.881 266.509 156.797C266.509 155.764 266.167 154.981 265.484 154.447C264.8 153.914 263.809 153.647 262.509 153.647H260.734C260.084 153.647 259.759 153.347 259.759 152.747C259.759 152.164 260.084 151.872 260.734 151.872H262.334C263.467 151.872 264.359 151.581 265.009 150.997C265.675 150.397 266.009 149.581 266.009 148.547C266.009 147.631 265.7 146.922 265.084 146.422C264.484 145.922 263.625 145.672 262.509 145.672C261.742 145.672 261.025 145.781 260.359 145.997C259.709 146.214 259.059 146.581 258.409 147.097C258.159 147.281 257.917 147.347 257.684 147.297C257.467 147.247 257.292 147.131 257.159 146.947C257.042 146.747 257 146.522 257.034 146.272C257.084 146.022 257.242 145.797 257.509 145.597C258.159 145.047 258.934 144.622 259.834 144.322C260.734 144.006 261.667 143.847 262.634 143.847C264.334 143.847 265.659 144.247 266.609 145.047C267.575 145.847 268.059 146.956 268.059 148.372C268.059 149.356 267.809 150.222 267.309 150.972C266.809 151.706 266.117 152.239 265.234 152.572C266.284 152.856 267.1 153.381 267.684 154.147C268.267 154.897 268.559 155.831 268.559 156.947C268.559 158.464 268.025 159.672 266.959 160.572C265.909 161.472 264.467 161.922 262.634 161.922ZM273.549 161.697C273.165 161.697 272.89 161.614 272.724 161.447C272.557 161.264 272.474 161.022 272.474 160.722C272.474 160.372 272.649 160.014 272.999 159.647L278.599 153.647C279.449 152.731 280.057 151.889 280.424 151.122C280.807 150.339 280.999 149.547 280.999 148.747C280.999 146.697 279.807 145.672 277.424 145.672C275.94 145.672 274.59 146.147 273.374 147.097C273.107 147.297 272.865 147.372 272.649 147.322C272.432 147.256 272.265 147.122 272.149 146.922C272.049 146.722 272.007 146.506 272.024 146.272C272.057 146.022 272.199 145.806 272.449 145.622C273.099 145.089 273.882 144.664 274.799 144.347C275.715 144.014 276.649 143.847 277.599 143.847C279.365 143.847 280.715 144.264 281.649 145.097C282.599 145.914 283.074 147.081 283.074 148.597C283.074 149.647 282.815 150.681 282.299 151.697C281.799 152.697 281.007 153.764 279.924 154.897L275.174 159.947H283.024C283.657 159.947 283.974 160.231 283.974 160.797C283.974 161.397 283.657 161.697 283.024 161.697H273.549Z" fill="white"/>
<path d="M39.7291 322.125C37.5958 322.125 35.7124 321.675 34.0791 320.775C32.4624 319.875 31.1958 318.617 30.2791 317C29.3791 315.367 28.9291 313.467 28.9291 311.3C28.9291 309.617 29.1958 308.092 29.7291 306.725C30.2624 305.358 31.0291 304.183 32.0291 303.2C33.0291 302.217 34.2124 301.458 35.5791 300.925C36.9624 300.392 38.4874 300.125 40.1541 300.125C42.1208 300.125 43.8374 300.517 45.3041 301.3C46.7874 302.067 47.9374 303.15 48.7541 304.55C49.5708 305.933 49.9791 307.567 49.9791 309.45C49.9791 310.9 49.7708 312.158 49.3541 313.225C48.9541 314.275 48.3874 315.092 47.6541 315.675C46.9374 316.242 46.0958 316.525 45.1291 316.525C44.3124 316.525 43.6374 316.342 43.1041 315.975C42.5708 315.592 42.2124 315.058 42.0291 314.375C41.5791 315.092 41.0374 315.633 40.4041 316C39.7708 316.35 39.0958 316.525 38.3791 316.525C37.0458 316.525 36.0124 316.108 35.2791 315.275C34.5458 314.442 34.1791 313.3 34.1791 311.85C34.1791 310.633 34.4041 309.55 34.8541 308.6C35.3208 307.65 35.9541 306.9 36.7541 306.35C37.5708 305.8 38.4958 305.525 39.5291 305.525C40.9958 305.525 42.0124 306.117 42.5791 307.3L42.6541 306.775C42.7708 306.058 43.2041 305.7 43.9541 305.7C44.3374 305.7 44.6208 305.808 44.8041 306.025C45.0041 306.242 45.0624 306.558 44.9791 306.975L44.1291 311.8C44.0291 312.35 43.9791 312.8 43.9791 313.15C43.9791 314.167 44.4124 314.675 45.2791 314.675C46.0958 314.675 46.7541 314.2 47.2541 313.25C47.7708 312.283 48.0291 311.017 48.0291 309.45C48.0291 307.9 47.7041 306.575 47.0541 305.475C46.4208 304.375 45.5124 303.533 44.3291 302.95C43.1624 302.35 41.7624 302.05 40.1291 302.05C38.3124 302.05 36.7291 302.433 35.3791 303.2C34.0291 303.95 32.9791 305.017 32.2291 306.4C31.4791 307.783 31.1041 309.417 31.1041 311.3C31.1041 313.15 31.4541 314.742 32.1541 316.075C32.8708 317.408 33.8708 318.425 35.1541 319.125C36.4541 319.842 37.9791 320.2 39.7291 320.2C40.8291 320.2 41.8208 320.067 42.7041 319.8C43.6041 319.55 44.4124 319.175 45.1291 318.675C45.4291 318.458 45.7041 318.375 45.9541 318.425C46.2208 318.492 46.4208 318.633 46.5541 318.85C46.6874 319.067 46.7291 319.308 46.6791 319.575C46.6458 319.842 46.4791 320.083 46.1791 320.3C45.4124 320.85 44.4791 321.292 43.3791 321.625C42.2958 321.958 41.0791 322.125 39.7291 322.125ZM38.8291 314.55C39.7791 314.55 40.5541 314.125 41.1541 313.275C41.7708 312.425 42.0791 311.317 42.0791 309.95C42.0791 308.333 41.3624 307.525 39.9291 307.525C38.9624 307.525 38.1708 307.925 37.5541 308.725C36.9374 309.525 36.6291 310.558 36.6291 311.825C36.6291 312.708 36.8208 313.383 37.2041 313.85C37.5874 314.317 38.1291 314.55 38.8291 314.55ZM57.134 318.25C54.3507 318.25 52.959 316.692 52.959 313.575V301.75C52.959 300.7 53.4757 300.175 54.509 300.175C55.559 300.175 56.084 300.7 56.084 301.75V313.425C56.084 314.925 56.709 315.675 57.959 315.675C58.0923 315.675 58.2173 315.675 58.334 315.675C58.4507 315.658 58.5673 315.642 58.684 315.625C58.9173 315.592 59.0757 315.658 59.159 315.825C59.2423 315.975 59.284 316.292 59.284 316.775C59.284 317.192 59.2007 317.517 59.034 317.75C58.8673 317.983 58.5923 318.125 58.209 318.175C57.859 318.225 57.5007 318.25 57.134 318.25ZM66.3953 318.25C65.1286 318.25 64.0286 317.992 63.0953 317.475C62.162 316.958 61.437 316.225 60.9203 315.275C60.4036 314.308 60.1453 313.175 60.1453 311.875C60.1453 310.575 60.4036 309.45 60.9203 308.5C61.437 307.55 62.162 306.817 63.0953 306.3C64.0286 305.783 65.1286 305.525 66.3953 305.525C67.662 305.525 68.762 305.783 69.6953 306.3C70.6286 306.817 71.3536 307.55 71.8703 308.5C72.387 309.45 72.6453 310.575 72.6453 311.875C72.6453 313.175 72.387 314.308 71.8703 315.275C71.3536 316.225 70.6286 316.958 69.6953 317.475C68.762 317.992 67.662 318.25 66.3953 318.25ZM66.3953 315.875C67.3286 315.875 68.0786 315.542 68.6453 314.875C69.212 314.192 69.4953 313.192 69.4953 311.875C69.4953 310.542 69.212 309.55 68.6453 308.9C68.0786 308.233 67.3286 307.9 66.3953 307.9C65.462 307.9 64.712 308.233 64.1453 308.9C63.5786 309.55 63.2953 310.542 63.2953 311.875C63.2953 313.192 63.5786 314.192 64.1453 314.875C64.712 315.542 65.462 315.875 66.3953 315.875ZM79.6996 318.25C78.9829 318.25 78.2246 318.175 77.4246 318.025C76.6246 317.875 75.9079 317.617 75.2746 317.25C74.9246 317.05 74.7079 316.808 74.6246 316.525C74.5413 316.225 74.5496 315.95 74.6496 315.7C74.7663 315.433 74.9496 315.242 75.1996 315.125C75.4663 315.008 75.7746 315.033 76.1246 315.2C76.7913 315.517 77.4163 315.742 77.9996 315.875C78.5829 315.992 79.1579 316.05 79.7246 316.05C80.5246 316.05 81.1163 315.917 81.4996 315.65C81.8996 315.367 82.0996 315 82.0996 314.55C82.0996 313.85 81.5829 313.4 80.5496 313.2L78.0496 312.725C75.9329 312.325 74.8746 311.225 74.8746 309.425C74.8746 308.625 75.0913 307.933 75.5246 307.35C75.9746 306.767 76.5913 306.317 77.3746 306C78.1579 305.683 79.0579 305.525 80.0746 305.525C81.5413 305.525 82.8496 305.85 83.9996 306.5C84.3163 306.667 84.4996 306.9 84.5496 307.2C84.6163 307.483 84.5829 307.758 84.4496 308.025C84.3329 308.275 84.1413 308.458 83.8746 308.575C83.6079 308.675 83.2996 308.642 82.9496 308.475C82.4329 308.208 81.9329 308.017 81.4496 307.9C80.9829 307.783 80.5329 307.725 80.0996 307.725C79.2829 307.725 78.6746 307.867 78.2746 308.15C77.8913 308.433 77.6996 308.808 77.6996 309.275C77.6996 310.008 78.1746 310.458 79.1246 310.625L81.6246 311.1C82.7079 311.3 83.5246 311.667 84.0746 312.2C84.6413 312.733 84.9246 313.45 84.9246 314.35C84.9246 315.567 84.4496 316.525 83.4996 317.225C82.5496 317.908 81.2829 318.25 79.6996 318.25ZM93.1316 322.75C92.2316 322.75 91.3566 322.667 90.5066 322.5C89.6733 322.333 88.915 322.075 88.2316 321.725C87.8316 321.525 87.59 321.267 87.5066 320.95C87.44 320.65 87.4733 320.358 87.6066 320.075C87.74 319.792 87.94 319.583 88.2066 319.45C88.49 319.333 88.79 319.35 89.1066 319.5C89.84 319.867 90.5316 320.1 91.1816 320.2C91.8483 320.317 92.415 320.375 92.8816 320.375C95.115 320.375 96.2316 319.3 96.2316 317.15V315.475C95.8816 316.158 95.34 316.7 94.6066 317.1C93.89 317.5 93.09 317.7 92.2066 317.7C91.1066 317.7 90.1483 317.45 89.3316 316.95C88.515 316.433 87.8816 315.717 87.4316 314.8C86.9816 313.883 86.7566 312.817 86.7566 311.6C86.7566 310.383 86.9816 309.325 87.4316 308.425C87.8816 307.508 88.515 306.8 89.3316 306.3C90.1483 305.783 91.1066 305.525 92.2066 305.525C93.09 305.525 93.89 305.717 94.6066 306.1C95.3233 306.483 95.8483 307.008 96.1816 307.675V307.15C96.1816 306.633 96.315 306.242 96.5816 305.975C96.865 305.708 97.2483 305.575 97.7316 305.575C98.765 305.575 99.2816 306.1 99.2816 307.15V316.775C99.2816 318.758 98.7566 320.25 97.7066 321.25C96.6566 322.25 95.1316 322.75 93.1316 322.75ZM93.0566 315.325C94.0233 315.325 94.79 314.992 95.3566 314.325C95.9233 313.658 96.2066 312.75 96.2066 311.6C96.2066 310.45 95.9233 309.55 95.3566 308.9C94.79 308.233 94.0233 307.9 93.0566 307.9C92.09 307.9 91.3233 308.233 90.7566 308.9C90.19 309.55 89.9066 310.45 89.9066 311.6C89.9066 312.75 90.19 313.658 90.7566 314.325C91.3233 314.992 92.09 315.325 93.0566 315.325ZM104.12 318.2C103.053 318.2 102.52 317.667 102.52 316.6V307.15C102.52 306.1 103.028 305.575 104.045 305.575C105.061 305.575 105.57 306.1 105.57 307.15V307.925C106.17 306.492 107.453 305.692 109.42 305.525C110.136 305.442 110.536 305.85 110.62 306.75C110.703 307.633 110.27 308.125 109.32 308.225L108.77 308.275C106.72 308.475 105.695 309.525 105.695 311.425V316.6C105.695 317.667 105.17 318.2 104.12 318.2ZM116.213 318.25C115.329 318.25 114.538 318.083 113.838 317.75C113.154 317.4 112.613 316.933 112.212 316.35C111.829 315.767 111.638 315.108 111.638 314.375C111.638 313.475 111.871 312.767 112.338 312.25C112.804 311.717 113.563 311.333 114.613 311.1C115.663 310.867 117.071 310.75 118.838 310.75H119.713V310.225C119.713 309.392 119.529 308.792 119.163 308.425C118.796 308.058 118.179 307.875 117.313 307.875C116.829 307.875 116.304 307.933 115.738 308.05C115.188 308.167 114.604 308.367 113.988 308.65C113.588 308.833 113.254 308.858 112.988 308.725C112.721 308.575 112.538 308.35 112.438 308.05C112.354 307.733 112.371 307.417 112.488 307.1C112.621 306.783 112.879 306.55 113.263 306.4C114.029 306.083 114.763 305.858 115.463 305.725C116.179 305.592 116.829 305.525 117.413 305.525C119.196 305.525 120.521 305.942 121.388 306.775C122.254 307.592 122.688 308.867 122.688 310.6V316.6C122.688 317.667 122.204 318.2 121.238 318.2C120.254 318.2 119.763 317.667 119.763 316.6V316.05C119.479 316.733 119.029 317.275 118.413 317.675C117.796 318.058 117.063 318.25 116.213 318.25ZM116.863 316.1C117.679 316.1 118.354 315.817 118.888 315.25C119.438 314.683 119.713 313.967 119.713 313.1V312.55H118.863C117.296 312.55 116.204 312.675 115.588 312.925C114.988 313.158 114.688 313.592 114.688 314.225C114.688 314.775 114.879 315.225 115.263 315.575C115.646 315.925 116.179 316.1 116.863 316.1ZM127.409 318.2C126.376 318.2 125.859 317.667 125.859 316.6V307.15C125.859 306.1 126.368 305.575 127.384 305.575C128.401 305.575 128.909 306.1 128.909 307.15V307.675C129.326 306.975 129.884 306.442 130.584 306.075C131.301 305.708 132.101 305.525 132.984 305.525C135.868 305.525 137.309 307.2 137.309 310.55V316.6C137.309 317.667 136.793 318.2 135.759 318.2C134.709 318.2 134.184 317.667 134.184 316.6V310.7C134.184 309.75 134.001 309.058 133.634 308.625C133.284 308.192 132.734 307.975 131.984 307.975C131.068 307.975 130.334 308.267 129.784 308.85C129.251 309.417 128.984 310.175 128.984 311.125V316.6C128.984 317.667 128.459 318.2 127.409 318.2ZM145.183 318.25C144.117 318.25 143.175 317.992 142.358 317.475C141.558 316.958 140.933 316.225 140.483 315.275C140.033 314.308 139.808 313.175 139.808 311.875C139.808 310.558 140.033 309.433 140.483 308.5C140.933 307.55 141.558 306.817 142.358 306.3C143.175 305.783 144.117 305.525 145.183 305.525C146.05 305.525 146.833 305.717 147.533 306.1C148.233 306.483 148.758 306.992 149.108 307.625V301.75C149.108 300.7 149.625 300.175 150.658 300.175C151.708 300.175 152.233 300.7 152.233 301.75V316.6C152.233 317.667 151.717 318.2 150.683 318.2C149.65 318.2 149.133 317.667 149.133 316.6V316.075C148.783 316.742 148.258 317.275 147.558 317.675C146.858 318.058 146.067 318.25 145.183 318.25ZM146.058 315.875C146.992 315.875 147.742 315.542 148.308 314.875C148.875 314.192 149.158 313.192 149.158 311.875C149.158 310.542 148.875 309.55 148.308 308.9C147.742 308.233 146.992 307.9 146.058 307.9C145.125 307.9 144.375 308.233 143.808 308.9C143.242 309.55 142.958 310.542 142.958 311.875C142.958 313.192 143.242 314.192 143.808 314.875C144.375 315.542 145.125 315.875 146.058 315.875ZM161.499 318.25C160.115 318.25 158.924 317.992 157.924 317.475C156.924 316.958 156.149 316.225 155.599 315.275C155.065 314.325 154.799 313.2 154.799 311.9C154.799 310.633 155.057 309.525 155.574 308.575C156.107 307.625 156.832 306.883 157.749 306.35C158.682 305.8 159.74 305.525 160.924 305.525C162.657 305.525 164.024 306.075 165.024 307.175C166.04 308.275 166.549 309.775 166.549 311.675C166.549 312.292 166.149 312.6 165.349 312.6H157.799C158.032 314.783 159.282 315.875 161.549 315.875C161.982 315.875 162.465 315.825 162.999 315.725C163.549 315.608 164.065 315.417 164.549 315.15C164.982 314.9 165.349 314.825 165.649 314.925C165.949 315.008 166.157 315.183 166.274 315.45C166.407 315.717 166.424 316.017 166.324 316.35C166.24 316.667 166.007 316.942 165.624 317.175C165.04 317.542 164.365 317.817 163.599 318C162.849 318.167 162.149 318.25 161.499 318.25ZM161.049 307.65C160.132 307.65 159.39 307.933 158.824 308.5C158.257 309.067 157.915 309.833 157.799 310.8H163.949C163.882 309.783 163.599 309.008 163.099 308.475C162.615 307.925 161.932 307.65 161.049 307.65ZM173.498 318.25C172.782 318.25 172.023 318.175 171.223 318.025C170.423 317.875 169.707 317.617 169.073 317.25C168.723 317.05 168.507 316.808 168.423 316.525C168.34 316.225 168.348 315.95 168.448 315.7C168.565 315.433 168.748 315.242 168.998 315.125C169.265 315.008 169.573 315.033 169.923 315.2C170.59 315.517 171.215 315.742 171.798 315.875C172.382 315.992 172.957 316.05 173.523 316.05C174.323 316.05 174.915 315.917 175.298 315.65C175.698 315.367 175.898 315 175.898 314.55C175.898 313.85 175.382 313.4 174.348 313.2L171.848 312.725C169.732 312.325 168.673 311.225 168.673 309.425C168.673 308.625 168.89 307.933 169.323 307.35C169.773 306.767 170.39 306.317 171.173 306C171.957 305.683 172.857 305.525 173.873 305.525C175.34 305.525 176.648 305.85 177.798 306.5C178.115 306.667 178.298 306.9 178.348 307.2C178.415 307.483 178.382 307.758 178.248 308.025C178.132 308.275 177.94 308.458 177.673 308.575C177.407 308.675 177.098 308.642 176.748 308.475C176.232 308.208 175.732 308.017 175.248 307.9C174.782 307.783 174.332 307.725 173.898 307.725C173.082 307.725 172.473 307.867 172.073 308.15C171.69 308.433 171.498 308.808 171.498 309.275C171.498 310.008 171.973 310.458 172.923 310.625L175.423 311.1C176.507 311.3 177.323 311.667 177.873 312.2C178.44 312.733 178.723 313.45 178.723 314.35C178.723 315.567 178.248 316.525 177.298 317.225C176.348 317.908 175.082 318.25 173.498 318.25ZM182.608 318.125C182.042 318.125 181.583 317.95 181.233 317.6C180.9 317.25 180.733 316.8 180.733 316.25C180.733 315.717 180.9 315.283 181.233 314.95C181.583 314.6 182.042 314.425 182.608 314.425C183.192 314.425 183.642 314.6 183.958 314.95C184.292 315.283 184.458 315.717 184.458 316.25C184.458 316.8 184.292 317.25 183.958 317.6C183.642 317.95 183.192 318.125 182.608 318.125ZM192.57 322.75C191.67 322.75 190.795 322.667 189.945 322.5C189.112 322.333 188.353 322.075 187.67 321.725C187.27 321.525 187.028 321.267 186.945 320.95C186.878 320.65 186.912 320.358 187.045 320.075C187.178 319.792 187.378 319.583 187.645 319.45C187.928 319.333 188.228 319.35 188.545 319.5C189.278 319.867 189.97 320.1 190.62 320.2C191.287 320.317 191.853 320.375 192.32 320.375C194.553 320.375 195.67 319.3 195.67 317.15V315.475C195.32 316.158 194.778 316.7 194.045 317.1C193.328 317.5 192.528 317.7 191.645 317.7C190.545 317.7 189.587 317.45 188.77 316.95C187.953 316.433 187.32 315.717 186.87 314.8C186.42 313.883 186.195 312.817 186.195 311.6C186.195 310.383 186.42 309.325 186.87 308.425C187.32 307.508 187.953 306.8 188.77 306.3C189.587 305.783 190.545 305.525 191.645 305.525C192.528 305.525 193.328 305.717 194.045 306.1C194.762 306.483 195.287 307.008 195.62 307.675V307.15C195.62 306.633 195.753 306.242 196.02 305.975C196.303 305.708 196.687 305.575 197.17 305.575C198.203 305.575 198.72 306.1 198.72 307.15V316.775C198.72 318.758 198.195 320.25 197.145 321.25C196.095 322.25 194.57 322.75 192.57 322.75ZM192.495 315.325C193.462 315.325 194.228 314.992 194.795 314.325C195.362 313.658 195.645 312.75 195.645 311.6C195.645 310.45 195.362 309.55 194.795 308.9C194.228 308.233 193.462 307.9 192.495 307.9C191.528 307.9 190.762 308.233 190.195 308.9C189.628 309.55 189.345 310.45 189.345 311.6C189.345 312.75 189.628 313.658 190.195 314.325C190.762 314.992 191.528 315.325 192.495 315.325ZM207.658 322.75C206.758 322.75 205.883 322.667 205.033 322.5C204.2 322.333 203.441 322.075 202.758 321.725C202.358 321.525 202.116 321.267 202.033 320.95C201.966 320.65 202 320.358 202.133 320.075C202.266 319.792 202.466 319.583 202.733 319.45C203.016 319.333 203.316 319.35 203.633 319.5C204.366 319.867 205.058 320.1 205.708 320.2C206.375 320.317 206.941 320.375 207.408 320.375C209.641 320.375 210.758 319.3 210.758 317.15V315.475C210.408 316.158 209.866 316.7 209.133 317.1C208.416 317.5 207.616 317.7 206.733 317.7C205.633 317.7 204.675 317.45 203.858 316.95C203.041 316.433 202.408 315.717 201.958 314.8C201.508 313.883 201.283 312.817 201.283 311.6C201.283 310.383 201.508 309.325 201.958 308.425C202.408 307.508 203.041 306.8 203.858 306.3C204.675 305.783 205.633 305.525 206.733 305.525C207.616 305.525 208.416 305.717 209.133 306.1C209.85 306.483 210.375 307.008 210.708 307.675V307.15C210.708 306.633 210.841 306.242 211.108 305.975C211.391 305.708 211.775 305.575 212.258 305.575C213.291 305.575 213.808 306.1 213.808 307.15V316.775C213.808 318.758 213.283 320.25 212.233 321.25C211.183 322.25 209.658 322.75 207.658 322.75ZM207.583 315.325C208.55 315.325 209.316 314.992 209.883 314.325C210.45 313.658 210.733 312.75 210.733 311.6C210.733 310.45 210.45 309.55 209.883 308.9C209.316 308.233 208.55 307.9 207.583 307.9C206.616 307.9 205.85 308.233 205.283 308.9C204.716 309.55 204.433 310.45 204.433 311.6C204.433 312.75 204.716 313.658 205.283 314.325C205.85 314.992 206.616 315.325 207.583 315.325Z" fill="white"/>
<path d="M29.697 284.084C29.369 284.084 29.205 283.912 29.205 283.568V276.392H26.505C26.201 276.392 26.049 276.248 26.049 275.96C26.049 275.68 26.201 275.54 26.505 275.54H32.901C33.205 275.54 33.357 275.68 33.357 275.96C33.357 276.248 33.205 276.392 32.901 276.392H30.201V283.568C30.201 283.912 30.033 284.084 29.697 284.084ZM35.0121 276.764C34.5881 276.764 34.3761 276.564 34.3761 276.164C34.3761 275.772 34.5881 275.576 35.0121 275.576C35.4361 275.576 35.6481 275.772 35.6481 276.164C35.6481 276.564 35.4361 276.764 35.0121 276.764ZM35.0121 284.06C34.6921 284.06 34.5321 283.884 34.5321 283.532V278.624C34.5321 278.28 34.6921 278.108 35.0121 278.108C35.3401 278.108 35.5041 278.28 35.5041 278.624V283.532C35.5041 283.884 35.3401 284.06 35.0121 284.06ZM39.6612 284.108C38.9732 284.108 38.4572 283.928 38.1132 283.568C37.7692 283.2 37.5972 282.672 37.5972 281.984V278.924H36.7932C36.5132 278.924 36.3732 278.796 36.3732 278.54C36.3732 278.292 36.5132 278.168 36.7932 278.168H37.5972V276.788C37.5972 276.46 37.7612 276.296 38.0892 276.296C38.4092 276.296 38.5692 276.46 38.5692 276.788V278.168H40.0812C40.3612 278.168 40.5012 278.292 40.5012 278.54C40.5012 278.796 40.3612 278.924 40.0812 278.924H38.5692V281.888C38.5692 282.344 38.6652 282.692 38.8572 282.932C39.0492 283.164 39.3612 283.28 39.7932 283.28C39.9452 283.28 40.0732 283.264 40.1772 283.232C40.2812 283.2 40.3732 283.184 40.4532 283.184C40.5252 283.176 40.5852 283.2 40.6332 283.256C40.6812 283.312 40.7052 283.408 40.7052 283.544C40.7052 283.64 40.6852 283.728 40.6452 283.808C40.6132 283.888 40.5532 283.944 40.4652 283.976C40.3692 284.008 40.2412 284.036 40.0812 284.06C39.9292 284.092 39.7892 284.108 39.6612 284.108ZM43.5805 284.108C42.1805 284.108 41.4805 283.336 41.4805 281.792V278.576C41.4805 278.248 41.6405 278.084 41.9605 278.084C42.2885 278.084 42.4525 278.248 42.4525 278.576V281.78C42.4525 282.3 42.5565 282.684 42.7645 282.932C42.9805 283.18 43.3165 283.304 43.7725 283.304C44.2685 283.304 44.6725 283.14 44.9845 282.812C45.2965 282.476 45.4525 282.032 45.4525 281.48V278.576C45.4525 278.248 45.6165 278.084 45.9445 278.084C46.2645 278.084 46.4245 278.248 46.4245 278.576V283.58C46.4245 283.916 46.2685 284.084 45.9565 284.084C45.6365 284.084 45.4765 283.916 45.4765 283.58V283.016C45.2925 283.368 45.0325 283.64 44.6965 283.832C44.3685 284.016 43.9965 284.108 43.5805 284.108ZM50.0191 284.108C49.4431 284.108 49.0031 283.936 48.6991 283.592C48.3951 283.24 48.2431 282.732 48.2431 282.068V275.948C48.2431 275.62 48.4031 275.456 48.7231 275.456C49.0511 275.456 49.2151 275.62 49.2151 275.948V281.996C49.2151 282.852 49.5551 283.28 50.2351 283.28C50.3071 283.28 50.3711 283.276 50.4271 283.268C50.4831 283.26 50.5391 283.256 50.5951 283.256C50.6831 283.248 50.7431 283.268 50.7751 283.316C50.8151 283.364 50.8351 283.46 50.8351 283.604C50.8351 283.876 50.6991 284.032 50.4271 284.072C50.3631 284.088 50.2951 284.096 50.2231 284.096C50.1511 284.104 50.0831 284.108 50.0191 284.108ZM53.6299 284.108C53.2299 284.108 52.8699 284.032 52.5499 283.88C52.2379 283.72 51.9899 283.504 51.8059 283.232C51.6219 282.96 51.5299 282.656 51.5299 282.32C51.5299 281.896 51.6379 281.56 51.8539 281.312C52.0779 281.064 52.4419 280.888 52.9459 280.784C53.4579 280.672 54.1539 280.616 55.0339 280.616H55.4179V280.244C55.4179 279.748 55.3139 279.392 55.1059 279.176C54.9059 278.952 54.5819 278.84 54.1339 278.84C53.8539 278.84 53.5699 278.876 53.2819 278.948C53.0019 279.02 52.7099 279.136 52.4059 279.296C52.2699 279.368 52.1539 279.384 52.0579 279.344C51.9699 279.296 51.9059 279.224 51.8659 279.128C51.8339 279.024 51.8339 278.92 51.8659 278.816C51.9059 278.704 51.9859 278.62 52.1059 278.564C52.4499 278.388 52.7939 278.26 53.1379 278.18C53.4899 278.1 53.8219 278.06 54.1339 278.06C54.8859 278.06 55.4419 278.244 55.8019 278.612C56.1699 278.98 56.3539 279.552 56.3539 280.328V283.58C56.3539 283.916 56.2059 284.084 55.9099 284.084C55.5979 284.084 55.4419 283.916 55.4419 283.58V282.992C55.2899 283.336 55.0539 283.608 54.7339 283.808C54.4219 284.008 54.0539 284.108 53.6299 284.108ZM53.7859 283.376C54.2659 283.376 54.6579 283.212 54.9619 282.884C55.2659 282.548 55.4179 282.124 55.4179 281.612V281.252H55.0459C54.3979 281.252 53.8859 281.284 53.5099 281.348C53.1419 281.404 52.8819 281.508 52.7299 281.66C52.5859 281.804 52.5139 282.004 52.5139 282.26C52.5139 282.588 52.6259 282.856 52.8499 283.064C53.0819 283.272 53.3939 283.376 53.7859 283.376ZM58.6491 284.084C58.3211 284.084 58.1571 283.916 58.1571 283.58V278.576C58.1571 278.248 58.3131 278.084 58.6251 278.084C58.9451 278.084 59.1051 278.248 59.1051 278.576V279.212C59.2651 278.844 59.5131 278.564 59.8491 278.372C60.1851 278.172 60.5851 278.064 61.0491 278.048C61.3051 278.024 61.4411 278.152 61.4571 278.432C61.4811 278.712 61.3371 278.868 61.0251 278.9L60.8331 278.924C60.2811 278.972 59.8611 279.148 59.5731 279.452C59.2851 279.748 59.1411 280.156 59.1411 280.676V283.58C59.1411 283.916 58.9771 284.084 58.6491 284.084Z" fill="white" fill-opacity="0.5"/>
<path opacity="0.5" d="M28.6351 430C28.1551 430 27.9151 429.76 27.9151 429.28V419.44C27.9151 418.96 28.1551 418.72 28.6351 418.72H34.5871C34.9604 418.72 35.1471 418.901 35.1471 419.264C35.1471 419.637 34.9604 419.824 34.5871 419.824H29.1951V423.728H34.2511C34.6244 423.728 34.8111 423.909 34.8111 424.272C34.8111 424.645 34.6244 424.832 34.2511 424.832H29.1951V428.896H34.5871C34.9604 428.896 35.1471 429.077 35.1471 429.44C35.1471 429.813 34.9604 430 34.5871 430H28.6351ZM37.0992 430.096C36.8859 430.096 36.7259 430.005 36.6192 429.824C36.5125 429.632 36.5605 429.413 36.7632 429.168L39.3072 425.984L36.9392 423.04C36.7365 422.795 36.6885 422.581 36.7952 422.4C36.9019 422.208 37.0619 422.112 37.2752 422.112C37.4459 422.112 37.5845 422.144 37.6912 422.208C37.7979 422.261 37.8992 422.352 37.9952 422.48L40.0592 425.088L42.1392 422.48C42.2352 422.352 42.3365 422.261 42.4432 422.208C42.5499 422.144 42.6832 422.112 42.8432 422.112C43.0672 422.112 43.2272 422.208 43.3232 422.4C43.4299 422.581 43.3819 422.8 43.1792 423.056L40.8112 425.984L43.3712 429.168C43.5632 429.413 43.6059 429.632 43.4992 429.824C43.3925 430.005 43.2272 430.096 43.0032 430.096C42.7152 430.096 42.4752 429.973 42.2832 429.728L40.0432 426.912L37.8192 429.728C37.7232 429.845 37.6219 429.936 37.5152 430C37.4085 430.064 37.2699 430.096 37.0992 430.096ZM46.1135 432.992C45.6868 432.992 45.4735 432.773 45.4735 432.336V422.768C45.4735 422.331 45.6815 422.112 46.0975 422.112C46.5348 422.112 46.7535 422.331 46.7535 422.768V423.6C46.9775 423.131 47.3241 422.763 47.7935 422.496C48.2628 422.219 48.8015 422.08 49.4095 422.08C50.1028 422.08 50.7055 422.245 51.2175 422.576C51.7401 422.896 52.1401 423.36 52.4175 423.968C52.7055 424.565 52.8495 425.28 52.8495 426.112C52.8495 426.933 52.7055 427.648 52.4175 428.256C52.1401 428.853 51.7401 429.317 51.2175 429.648C50.7055 429.979 50.1028 430.144 49.4095 430.144C48.8121 430.144 48.2788 430.011 47.8095 429.744C47.3401 429.477 46.9935 429.109 46.7695 428.64V432.336C46.7695 432.773 46.5508 432.992 46.1135 432.992ZM49.1375 429.104C49.8628 429.104 50.4441 428.848 50.8815 428.336C51.3188 427.813 51.5375 427.072 51.5375 426.112C51.5375 425.141 51.3188 424.4 50.8815 423.888C50.4441 423.376 49.8628 423.12 49.1375 423.12C48.4121 423.12 47.8308 423.376 47.3935 423.888C46.9561 424.4 46.7375 425.141 46.7375 426.112C46.7375 427.072 46.9561 427.813 47.3935 428.336C47.8308 428.848 48.4121 429.104 49.1375 429.104ZM55.4416 420.352C54.8762 420.352 54.5936 420.085 54.5936 419.552C54.5936 419.029 54.8762 418.768 55.4416 418.768C56.0069 418.768 56.2896 419.029 56.2896 419.552C56.2896 420.085 56.0069 420.352 55.4416 420.352ZM55.4416 430.08C55.0149 430.08 54.8016 429.845 54.8016 429.376V422.832C54.8016 422.373 55.0149 422.144 55.4416 422.144C55.8789 422.144 56.0976 422.373 56.0976 422.832V429.376C56.0976 429.845 55.8789 430.08 55.4416 430.08ZM59.1763 430.112C58.739 430.112 58.5203 429.888 58.5203 429.44V422.768C58.5203 422.331 58.7283 422.112 59.1443 422.112C59.571 422.112 59.7843 422.331 59.7843 422.768V423.616C59.9977 423.125 60.3283 422.752 60.7763 422.496C61.2243 422.229 61.7577 422.085 62.3763 422.064C62.7177 422.032 62.899 422.203 62.9203 422.576C62.9523 422.949 62.7603 423.157 62.3443 423.2L62.0883 423.232C61.3523 423.296 60.7923 423.531 60.4083 423.936C60.0243 424.331 59.8323 424.875 59.8323 425.568V429.44C59.8323 429.888 59.6137 430.112 59.1763 430.112ZM66.6246 430.144C66.0912 430.144 65.6112 430.043 65.1846 429.84C64.7686 429.627 64.4379 429.339 64.1926 428.976C63.9472 428.613 63.8246 428.208 63.8246 427.76C63.8246 427.195 63.9686 426.747 64.2566 426.416C64.5552 426.085 65.0406 425.851 65.7126 425.712C66.3952 425.563 67.3232 425.488 68.4966 425.488H69.0086V424.992C69.0086 424.331 68.8699 423.856 68.5926 423.568C68.3259 423.269 67.8939 423.12 67.2966 423.12C66.9232 423.12 66.5446 423.168 66.1606 423.264C65.7872 423.36 65.3979 423.515 64.9926 423.728C64.8112 423.824 64.6566 423.845 64.5286 423.792C64.4112 423.728 64.3259 423.632 64.2726 423.504C64.2299 423.365 64.2299 423.227 64.2726 423.088C64.3259 422.939 64.4326 422.827 64.5926 422.752C65.0512 422.517 65.5099 422.347 65.9686 422.24C66.4379 422.133 66.8806 422.08 67.2966 422.08C68.2992 422.08 69.0406 422.325 69.5206 422.816C70.0112 423.307 70.2566 424.069 70.2566 425.104V429.44C70.2566 429.888 70.0592 430.112 69.6646 430.112C69.2486 430.112 69.0406 429.888 69.0406 429.44V428.656C68.8379 429.115 68.5232 429.477 68.0966 429.744C67.6806 430.011 67.1899 430.144 66.6246 430.144ZM66.8326 429.168C67.4726 429.168 67.9952 428.949 68.4006 428.512C68.8059 428.064 69.0086 427.499 69.0086 426.816V426.336H68.5126C67.6486 426.336 66.9659 426.379 66.4646 426.464C65.9739 426.539 65.6272 426.677 65.4246 426.88C65.2326 427.072 65.1366 427.339 65.1366 427.68C65.1366 428.117 65.2859 428.475 65.5846 428.752C65.8939 429.029 66.3099 429.168 66.8326 429.168Z" fill="white"/>
<path d="M32.3668 456.169C31.0762 456.169 30.0948 455.673 29.4228 454.681C28.7508 453.689 28.4148 452.255 28.4148 450.377C28.4148 448.489 28.7508 447.055 29.4228 446.073C30.0948 445.092 31.0762 444.601 32.3668 444.601C33.6682 444.601 34.6495 445.092 35.3108 446.073C35.9828 447.044 36.3188 448.473 36.3188 450.361C36.3188 452.249 35.9775 453.689 35.2948 454.681C34.6228 455.673 33.6468 456.169 32.3668 456.169ZM32.3668 455.033C33.2628 455.033 33.9242 454.655 34.3508 453.897C34.7882 453.129 35.0068 451.951 35.0068 450.361C35.0068 448.761 34.7935 447.593 34.3668 446.857C33.9402 446.111 33.2735 445.737 32.3668 445.737C31.4708 445.737 30.8042 446.111 30.3668 446.857C29.9402 447.604 29.7268 448.772 29.7268 450.361C29.7268 451.951 29.9402 453.129 30.3668 453.897C30.8042 454.655 31.4708 455.033 32.3668 455.033ZM41.1766 456.169C40.6859 456.169 40.1792 456.073 39.6566 455.881C39.1446 455.689 38.6912 455.412 38.2966 455.049C38.1579 454.943 38.0779 454.815 38.0566 454.665C38.0459 454.505 38.0779 454.367 38.1526 454.249C38.2272 454.121 38.3286 454.041 38.4566 454.009C38.5952 453.967 38.7499 454.004 38.9206 454.121C39.2832 454.431 39.6566 454.655 40.0406 454.793C40.4246 454.932 40.8139 455.001 41.2086 455.001C42.2539 455.001 43.0539 454.612 43.6086 453.833C44.1739 453.055 44.4566 451.897 44.4566 450.361V449.577C44.2539 450.281 43.8752 450.831 43.3206 451.225C42.7766 451.62 42.1312 451.817 41.3846 451.817C40.7232 451.817 40.1366 451.668 39.6246 451.369C39.1126 451.06 38.7126 450.639 38.4246 450.105C38.1366 449.572 37.9926 448.959 37.9926 448.265C37.9926 447.551 38.1419 446.921 38.4406 446.377C38.7499 445.823 39.1712 445.391 39.7046 445.081C40.2486 444.761 40.8726 444.601 41.5766 444.601C42.9099 444.601 43.9339 445.087 44.6486 446.057C45.3739 447.017 45.7366 448.367 45.7366 450.105C45.7366 452.057 45.3366 453.556 44.5366 454.601C43.7366 455.647 42.6166 456.169 41.1766 456.169ZM41.6566 450.713C42.3712 450.713 42.9526 450.484 43.4006 450.025C43.8486 449.556 44.0726 448.948 44.0726 448.201C44.0726 447.465 43.8486 446.868 43.4006 446.409C42.9526 445.94 42.3712 445.705 41.6566 445.705C40.9526 445.705 40.3766 445.94 39.9286 446.409C39.4806 446.868 39.2566 447.465 39.2566 448.201C39.2566 448.948 39.4806 449.556 39.9286 450.025C40.3766 450.484 40.9526 450.713 41.6566 450.713ZM47.6343 456.569C47.5703 456.751 47.4743 456.868 47.3463 456.921C47.2183 456.985 47.085 456.996 46.9463 456.953C46.8077 456.911 46.701 456.831 46.6263 456.713C46.5517 456.596 46.541 456.447 46.5943 456.265L50.4023 444.457C50.4663 444.287 50.5623 444.175 50.6903 444.121C50.8183 444.057 50.9517 444.047 51.0903 444.089C51.229 444.121 51.3357 444.201 51.4103 444.329C51.485 444.447 51.4903 444.591 51.4263 444.761L47.6343 456.569ZM53.3496 456.025C53.1042 456.025 52.9282 455.972 52.8216 455.865C52.7149 455.748 52.6616 455.593 52.6616 455.401C52.6616 455.177 52.7736 454.948 52.9976 454.713L56.5816 450.873C57.1256 450.287 57.5149 449.748 57.7496 449.257C57.9949 448.756 58.1176 448.249 58.1176 447.737C58.1176 446.425 57.3549 445.769 55.8296 445.769C54.8802 445.769 54.0162 446.073 53.2376 446.681C53.0669 446.809 52.9122 446.857 52.7736 446.825C52.6349 446.783 52.5282 446.697 52.4536 446.569C52.3896 446.441 52.3629 446.303 52.3736 446.153C52.3949 445.993 52.4856 445.855 52.6456 445.737C53.0616 445.396 53.5629 445.124 54.1496 444.921C54.7362 444.708 55.3336 444.601 55.9416 444.601C57.0722 444.601 57.9362 444.868 58.5336 445.401C59.1416 445.924 59.4456 446.671 59.4456 447.641C59.4456 448.313 59.2802 448.975 58.9496 449.625C58.6296 450.265 58.1229 450.948 57.4296 451.673L54.3896 454.905H59.4136C59.8189 454.905 60.0216 455.087 60.0216 455.449C60.0216 455.833 59.8189 456.025 59.4136 456.025H53.3496ZM66.0633 456.169C64.73 456.169 63.7007 455.689 62.9753 454.729C62.2607 453.759 61.9033 452.404 61.9033 450.665C61.9033 448.713 62.3033 447.215 63.1033 446.169C63.9033 445.124 65.0233 444.601 66.4633 444.601C66.954 444.601 67.4553 444.697 67.9673 444.889C68.49 445.081 68.9487 445.353 69.3433 445.705C69.482 445.823 69.5567 445.956 69.5673 446.105C69.5887 446.255 69.562 446.393 69.4873 446.521C69.4127 446.649 69.306 446.735 69.1673 446.777C69.0393 446.809 68.89 446.761 68.7193 446.633C68.3567 446.324 67.9833 446.105 67.5993 445.977C67.2153 445.839 66.826 445.769 66.4313 445.769C65.386 445.769 64.5807 446.159 64.0153 446.937C63.4607 447.716 63.1833 448.873 63.1833 450.409V451.193C63.386 450.489 63.7593 449.94 64.3033 449.545C64.858 449.151 65.5087 448.953 66.2553 448.953C66.9167 448.953 67.5033 449.108 68.0153 449.417C68.5273 449.716 68.9273 450.132 69.2153 450.665C69.5033 451.199 69.6473 451.812 69.6473 452.505C69.6473 453.22 69.4927 453.855 69.1833 454.409C68.8847 454.953 68.4633 455.385 67.9193 455.705C67.386 456.015 66.7673 456.169 66.0633 456.169ZM65.9833 455.049C66.698 455.049 67.274 454.82 67.7113 454.361C68.1593 453.903 68.3833 453.3 68.3833 452.553C68.3833 451.817 68.1593 451.22 67.7113 450.761C67.274 450.292 66.698 450.057 65.9833 450.057C65.2687 450.057 64.6873 450.292 64.2393 450.761C63.802 451.22 63.5833 451.817 63.5833 452.553C63.5833 453.3 63.802 453.903 64.2393 454.361C64.6873 454.82 65.2687 455.049 65.9833 455.049Z" fill="white"/>
<path opacity="0.5" d="M130.972 430.144C129.862 430.144 128.913 429.909 128.124 429.44C127.334 428.971 126.726 428.304 126.3 427.44C125.884 426.576 125.676 425.547 125.676 424.352C125.676 423.168 125.884 422.144 126.3 421.28C126.726 420.416 127.334 419.749 128.124 419.28C128.913 418.811 129.862 418.576 130.972 418.576C131.633 418.576 132.262 418.672 132.86 418.864C133.457 419.056 133.974 419.328 134.412 419.68C134.593 419.808 134.694 419.957 134.716 420.128C134.748 420.299 134.721 420.453 134.636 420.592C134.55 420.72 134.428 420.805 134.268 420.848C134.118 420.88 133.948 420.827 133.756 420.688C132.998 420.08 132.081 419.776 131.004 419.776C129.734 419.776 128.764 420.176 128.092 420.976C127.42 421.776 127.084 422.901 127.084 424.352C127.084 425.813 127.42 426.944 128.092 427.744C128.764 428.544 129.734 428.944 131.004 428.944C132.081 428.944 133.009 428.635 133.788 428.016C133.98 427.888 134.15 427.84 134.3 427.872C134.46 427.904 134.577 427.984 134.652 428.112C134.737 428.24 134.769 428.384 134.748 428.544C134.726 428.704 134.636 428.848 134.476 428.976C134.017 429.36 133.489 429.653 132.892 429.856C132.294 430.048 131.654 430.144 130.972 430.144ZM140.735 430.112C140.362 430.112 140.095 429.92 139.935 429.536L135.535 419.472C135.418 419.205 135.423 418.997 135.551 418.848C135.679 418.688 135.855 418.608 136.079 418.608C136.271 418.608 136.415 418.656 136.511 418.752C136.618 418.837 136.708 418.965 136.783 419.136L140.751 428.336L144.703 419.12C144.778 418.949 144.868 418.821 144.975 418.736C145.082 418.651 145.231 418.608 145.423 418.608C145.647 418.608 145.812 418.693 145.919 418.864C146.026 419.024 146.026 419.227 145.919 419.472L141.519 429.536C141.434 429.728 141.332 429.872 141.215 429.968C141.098 430.064 140.938 430.112 140.735 430.112ZM151.766 430.112C151.393 430.112 151.126 429.92 150.966 429.536L146.566 419.472C146.449 419.205 146.454 418.997 146.582 418.848C146.71 418.688 146.886 418.608 147.11 418.608C147.302 418.608 147.446 418.656 147.542 418.752C147.649 418.837 147.74 418.965 147.814 419.136L151.782 428.336L155.734 419.12C155.809 418.949 155.9 418.821 156.006 418.736C156.113 418.651 156.262 418.608 156.454 418.608C156.678 418.608 156.844 418.693 156.95 418.864C157.057 419.024 157.057 419.227 156.95 419.472L152.55 429.536C152.465 429.728 152.364 429.872 152.246 429.968C152.129 430.064 151.969 430.112 151.766 430.112Z" fill="white"/>
<path d="M126.943 455.024C126.698 455.024 126.522 454.971 126.415 454.864C126.308 454.747 126.255 454.592 126.255 454.4C126.255 454.176 126.367 453.947 126.591 453.712L130.175 449.872C130.719 449.286 131.108 448.747 131.343 448.256C131.588 447.755 131.711 447.248 131.711 446.736C131.711 445.424 130.948 444.768 129.423 444.768C128.474 444.768 127.61 445.072 126.831 445.68C126.66 445.808 126.506 445.856 126.367 445.824C126.228 445.782 126.122 445.696 126.047 445.568C125.983 445.44 125.956 445.302 125.967 445.152C125.988 444.992 126.079 444.854 126.239 444.736C126.655 444.395 127.156 444.123 127.743 443.92C128.33 443.707 128.927 443.6 129.535 443.6C130.666 443.6 131.53 443.867 132.127 444.4C132.735 444.923 133.039 445.67 133.039 446.64C133.039 447.312 132.874 447.974 132.543 448.624C132.223 449.264 131.716 449.947 131.023 450.672L127.983 453.904H133.007C133.412 453.904 133.615 454.086 133.615 454.448C133.615 454.832 133.412 455.024 133.007 455.024H126.943ZM138.489 455.168C137.998 455.168 137.491 455.072 136.969 454.88C136.457 454.688 136.003 454.411 135.609 454.048C135.47 453.942 135.39 453.814 135.369 453.664C135.358 453.504 135.39 453.366 135.465 453.248C135.539 453.12 135.641 453.04 135.769 453.008C135.907 452.966 136.062 453.003 136.233 453.12C136.595 453.43 136.969 453.654 137.353 453.792C137.737 453.931 138.126 454 138.521 454C139.566 454 140.366 453.611 140.921 452.832C141.486 452.054 141.769 450.896 141.769 449.36V448.576C141.566 449.28 141.187 449.83 140.633 450.224C140.089 450.619 139.443 450.816 138.697 450.816C138.035 450.816 137.449 450.667 136.937 450.368C136.425 450.059 136.025 449.638 135.737 449.104C135.449 448.571 135.305 447.958 135.305 447.264C135.305 446.55 135.454 445.92 135.753 445.376C136.062 444.822 136.483 444.39 137.017 444.08C137.561 443.76 138.185 443.6 138.889 443.6C140.222 443.6 141.246 444.086 141.961 445.056C142.686 446.016 143.049 447.366 143.049 449.104C143.049 451.056 142.649 452.555 141.849 453.6C141.049 454.646 139.929 455.168 138.489 455.168ZM138.969 449.712C139.683 449.712 140.265 449.483 140.713 449.024C141.161 448.555 141.385 447.947 141.385 447.2C141.385 446.464 141.161 445.867 140.713 445.408C140.265 444.939 139.683 444.704 138.969 444.704C138.265 444.704 137.689 444.939 137.241 445.408C136.793 445.867 136.569 446.464 136.569 447.2C136.569 447.947 136.793 448.555 137.241 449.024C137.689 449.483 138.265 449.712 138.969 449.712ZM148.083 455.168C147.592 455.168 147.085 455.072 146.563 454.88C146.051 454.688 145.597 454.411 145.203 454.048C145.064 453.942 144.984 453.814 144.963 453.664C144.952 453.504 144.984 453.366 145.059 453.248C145.133 453.12 145.235 453.04 145.363 453.008C145.501 452.966 145.656 453.003 145.827 453.12C146.189 453.43 146.563 453.654 146.947 453.792C147.331 453.931 147.72 454 148.115 454C149.16 454 149.96 453.611 150.515 452.832C151.08 452.054 151.363 450.896 151.363 449.36V448.576C151.16 449.28 150.781 449.83 150.227 450.224C149.683 450.619 149.037 450.816 148.291 450.816C147.629 450.816 147.043 450.667 146.531 450.368C146.019 450.059 145.619 449.638 145.331 449.104C145.043 448.571 144.899 447.958 144.899 447.264C144.899 446.55 145.048 445.92 145.347 445.376C145.656 444.822 146.077 444.39 146.611 444.08C147.155 443.76 147.779 443.6 148.483 443.6C149.816 443.6 150.84 444.086 151.555 445.056C152.28 446.016 152.643 447.366 152.643 449.104C152.643 451.056 152.243 452.555 151.443 453.6C150.643 454.646 149.523 455.168 148.083 455.168ZM148.563 449.712C149.277 449.712 149.859 449.483 150.307 449.024C150.755 448.555 150.979 447.947 150.979 447.2C150.979 446.464 150.755 445.867 150.307 445.408C149.859 444.939 149.277 444.704 148.563 444.704C147.859 444.704 147.283 444.939 146.835 445.408C146.387 445.867 146.163 446.464 146.163 447.2C146.163 447.947 146.387 448.555 146.835 449.024C147.283 449.483 147.859 449.712 148.563 449.712Z" fill="white"/>
<path d="M278.139 426.593L278.139 417.296L283.303 417.296L283.303 426.593L278.139 426.593Z" fill="white"/>
<path d="M286.402 451.59L286.402 442.294L291.567 442.294L291.567 451.59L286.402 451.59Z" fill="white"/>
<path d="M278.139 451.59L278.139 442.294L283.303 442.294L283.303 451.59L278.139 451.59Z" fill="white"/>
<path d="M280.205 439.195L280.205 429.692L289.501 429.692L289.501 439.195L280.205 439.195Z" fill="white"/>
<path d="M286.402 426.593L286.402 417.296L291.567 417.296L291.567 426.593L286.402 426.593Z" fill="white"/>
<path d="M275.04 440.744C275.04 439.888 275.734 439.195 276.59 439.195L277.106 439.195L277.106 435.993L273.491 435.993C273.08 435.993 272.686 435.83 272.395 435.539L271.941 435.085L271.941 451.59L275.04 451.59L275.04 440.744Z" fill="white"/>
<path d="M274.133 432.894L277.106 432.894L277.106 429.691L276.59 429.691C275.734 429.691 275.04 428.998 275.04 428.142L275.04 417.296L271.941 417.296L271.941 430.702L274.133 432.894Z" fill="white"/>
<path d="M294.664 428.142C294.664 428.997 293.97 429.691 293.114 429.691L292.598 429.691L292.598 432.893L296.213 432.893C296.624 432.893 297.018 433.056 297.308 433.347L297.762 433.801L297.762 417.296L294.664 417.296L294.664 428.142Z" fill="white"/>
<path d="M295.571 435.993L292.598 435.993L292.598 439.195L293.114 439.195C293.97 439.195 294.664 439.888 294.664 440.744L294.664 451.59L297.762 451.59L297.762 438.184L295.571 435.993Z" fill="white"/>
<path d="M262.646 415.747L262.646 453.139C262.646 457.41 266.122 460.886 270.393 460.886L299.315 460.886C303.587 460.886 307.062 457.41 307.062 453.139L307.062 415.747C307.062 411.475 303.587 408 299.315 408L270.393 408C266.122 408 262.646 411.475 262.646 415.747ZM299.315 414.198C300.171 414.198 300.865 414.891 300.865 415.747L300.865 453.139C300.865 453.994 300.171 454.688 299.315 454.688L270.393 454.688C269.538 454.688 268.844 453.994 268.844 453.139L268.844 415.747C268.844 414.891 269.538 414.198 270.393 414.198L299.315 414.198Z" fill="white"/>
</svg>
