<svg width="65" height="66" viewBox="0 0 65 66" fill="none" xmlns="http://www.w3.org/2000/svg">
<g opacity="0.2">
<path d="M32.2496 65.0175C50.0494 65.0175 64.499 50.4167 64.499 32.5183C64.499 14.6196 50.0494 0.0189819 32.2496 0.0189819C14.4496 0.0189819 0 14.6196 0 32.5183C0 50.4167 14.4496 65.0175 32.2496 65.0175ZM6.93519 44.9384C6.53302 40.9025 6.50944 36.7382 6.50944 32.5183C6.50944 28.2983 6.53302 24.134 6.93519 20.0981C7.15387 17.9001 8.23986 17.3959 10.2629 17.1815C17.2571 16.4401 25.0018 16.2684 32.2496 16.2908C39.4974 16.2684 47.2421 16.4401 54.2362 17.1815C56.2593 17.3959 57.3453 17.9001 57.564 20.0981C57.966 24.134 57.9897 28.2983 57.9897 32.5183C57.9897 36.7382 57.966 40.9025 57.564 44.9384C57.3453 47.1364 56.2593 47.6403 54.2362 47.8548C47.2421 48.5962 39.4974 48.7681 32.2496 48.7457C25.0018 48.7681 17.2571 48.5962 10.2629 47.8548C8.23986 47.6403 7.15387 47.1364 6.93519 44.9384Z" fill="black"/>
<path d="M32.2476 45.6042C39.4679 45.6042 45.2865 39.7251 45.2865 32.5183C45.2865 25.3113 39.4679 19.4321 32.2476 19.4321C25.0274 19.4321 19.209 25.3113 19.209 32.5183C19.209 39.7251 25.0274 45.6042 32.2476 45.6042Z" fill="black"/>
</g>
</svg>
