<svg width="109" height="60" viewBox="0 0 109 60" fill="none" xmlns="http://www.w3.org/2000/svg">
<g opacity="0.2">
<path d="M80.5661 19.651H69.2232V16.52C69.2232 13.7013 67.0378 11.573 64.2734 11.573H59.7069V6.75744C59.7069 5.27834 59.9434 5.14676 62.0228 5.14676C63.2541 5.14676 64.3387 4.10307 64.3387 2.81294C64.3387 1.56382 63.3682 0.536668 62.137 0.479126H57.3829C55.7927 0.479126 55.067 1.83499 55.067 2.81294V11.573H50.2884C47.0757 11.573 45.3877 14.0876 45.3877 16.52V19.651H34.216C29.8941 19.651 26.2899 22.6503 25.2624 26.6769H23.7783V24.3432C23.7783 23.0529 22.7427 22.0094 21.4624 22.0094C20.1821 22.019 19.1465 23.0612 19.1465 24.3513V33.6866C19.1465 34.9768 20.1821 36.0204 21.4624 36.0204C22.7427 36.0204 23.7783 34.9768 23.7783 33.6866V31.3528H25.295C26.3387 35.363 29.9267 38.3295 34.224 38.3295H80.5579C85.6789 38.3295 89.8296 34.1468 89.8296 28.9944C89.839 23.8337 85.6872 19.651 80.5661 19.651V19.651Z" fill="black"/>
<path d="M9.61032 44.5732V47.8644C8.38558 47.1478 7.1148 46.7894 5.79793 46.7894C5.20537 46.7894 4.7575 46.9089 4.44804 47.1544C4.13858 47.3999 3.98063 47.7118 3.98063 48.0901C3.98063 48.4683 4.17154 48.8133 4.54683 49.1052C4.92213 49.4038 5.4951 49.7156 6.24569 50.054C6.71318 50.2663 7.10161 50.4522 7.4112 50.6115C7.72065 50.7707 8.07618 50.9897 8.47783 51.2751C8.87947 51.5604 9.19546 51.8522 9.43254 52.1642C9.66968 52.4761 9.86712 52.8608 10.0318 53.3186C10.1963 53.7766 10.2819 54.2742 10.2819 54.8051C10.2819 56.1918 9.77501 57.3133 8.76093 58.1759C7.74704 59.0385 6.40366 59.4698 4.7247 59.4698C2.92707 59.4698 1.45872 59.1513 0.326289 58.5077V54.9643C1.70246 55.9729 3.17069 56.4706 4.7247 56.4706C5.25142 56.4706 5.69257 56.3313 6.04158 56.0459C6.39053 55.7672 6.56173 55.3956 6.56173 54.9377C6.56173 54.7851 6.54218 54.6392 6.49533 54.5065C6.44942 54.3671 6.36371 54.241 6.24523 54.115C6.12676 53.9956 6.00814 53.8893 5.89626 53.8097C5.78427 53.7232 5.61311 53.624 5.39584 53.5111C5.17851 53.3984 4.99417 53.2988 4.84268 53.2258C4.69126 53.153 4.46739 53.04 4.17108 52.9074C3.87483 52.768 3.63778 52.6618 3.45334 52.5888C2.47227 52.131 1.68218 51.567 1.08295 50.8968C0.483845 50.2267 0.1875 49.3374 0.1875 48.2227C0.1875 46.8956 0.674772 45.8274 1.64263 45.0112C2.61056 44.1951 3.94729 43.7903 5.65914 43.7903C7.1868 43.7998 8.50366 44.0556 9.60986 44.5732H9.61032ZM19.5792 47.7051H22.8911V59.2973H19.5792V57.4459C18.9734 58.7399 17.8079 59.3902 16.0828 59.3902C14.9042 59.3902 13.9824 59.0584 13.3239 58.3948C12.6655 57.7313 12.3362 56.7559 12.3362 55.4553V47.7051H15.6483V54.6989C15.6483 56.0525 16.2408 56.736 17.4195 56.736C18.8548 56.736 19.5725 55.7672 19.5725 53.8297V47.7051H19.5792ZM28.8765 43.1333V49.4901C29.66 48.2094 30.8057 47.5724 32.3004 47.5724C33.7357 47.5724 34.9209 48.0967 35.8624 49.1516C36.7975 50.2001 37.2715 51.6467 37.2715 53.4713C37.2715 55.1037 36.8239 56.5038 35.9218 57.6782C35.0198 58.8527 33.8213 59.4366 32.3267 59.4366C30.7991 59.4366 29.6468 58.7863 28.8765 57.4924V59.2973H25.5644V43.1333H28.8765ZM31.4114 56.6432C32.1093 56.6432 32.6955 56.3577 33.1827 55.7872C33.6699 55.2164 33.907 54.4667 33.907 53.5376C33.907 52.5291 33.6698 51.7462 33.1892 51.1822C32.7151 50.6181 32.1292 50.3394 31.4312 50.3394C30.7332 50.3394 30.134 50.6049 29.6271 51.1423C29.12 51.6731 28.8699 52.4229 28.8699 53.3852C28.8699 54.3738 29.1069 55.17 29.5744 55.7605C30.0484 56.3445 30.6608 56.6432 31.4114 56.6432V56.6432ZM42.6774 47.7051V49.51C43.3095 48.2294 44.3959 47.5923 45.9235 47.5923C47.5434 47.5923 48.6166 48.3222 49.1433 49.7887C49.4001 49.1052 49.8282 48.5678 50.4338 48.1762C51.0397 47.7847 51.7508 47.5923 52.5672 47.5923C53.6998 47.5923 54.5952 47.9573 55.2536 48.6805C55.9121 49.4038 56.2414 50.4655 56.2414 51.8722V59.3038H52.9294V52.4163C52.9294 51.7593 52.7977 51.2419 52.5409 50.8637C52.2841 50.4853 51.9153 50.293 51.4281 50.293C50.9145 50.293 50.4536 50.5053 50.0585 50.9233C49.6569 51.3413 49.4594 52.0912 49.4594 53.1728V59.2973H46.1474V52.4163C46.1474 51.7593 46.0157 51.2419 45.759 50.8637C45.5022 50.4853 45.1334 50.293 44.6462 50.293C44.1326 50.293 43.6717 50.5053 43.2766 50.9233C42.8749 51.3413 42.6774 52.0912 42.6774 53.1728V59.2973H39.3655V47.7051H42.6774ZM59.0726 51.2751V48.2825C59.9813 47.7649 61.2851 47.5061 62.997 47.5061C64.63 47.5061 65.848 47.8578 66.6514 48.5678C67.4547 49.2779 67.8563 50.3792 67.8563 51.8722V59.3038H64.6102V57.8773C64.1229 58.8659 63.1747 59.3636 61.7525 59.3636C60.6332 59.3636 59.7575 59.0451 59.1319 58.4015C58.5064 57.7645 58.1903 56.9616 58.1903 55.9995C58.1903 54.8847 58.592 54.0221 59.4019 53.405C60.2118 52.7879 61.4102 52.476 62.997 52.476H64.4456V51.6731C64.4456 50.6978 63.8002 50.2067 62.5163 50.2067C61.285 50.2207 60.1328 50.5717 59.0726 51.2751V51.2751ZM64.4522 54.5396H63.3855C62.8258 54.5396 62.3978 54.659 62.0949 54.9046C61.7921 55.1501 61.6406 55.462 61.6406 55.8402C61.6406 56.6165 62.0882 57.008 62.9772 57.008C63.4447 57.008 63.8069 56.862 64.0637 56.5767C64.3205 56.2848 64.4522 55.8934 64.4522 55.389V54.5396ZM73.7494 47.7051V49.8551C73.9602 49.1849 74.3156 48.6474 74.8029 48.2426C75.2967 47.8379 75.863 47.6388 76.5149 47.6388C76.877 47.6388 77.1667 47.6723 77.3774 47.7311V50.883C77.0152 50.7171 76.6005 50.6309 76.1329 50.6309C75.4218 50.6309 74.8489 50.8963 74.4078 51.4205C73.9667 51.9448 73.7494 52.6414 73.7494 53.5106V59.2968H70.4374L70.4569 47.7046L73.7494 47.7051ZM79.2145 46.4511C78.8392 46.0729 78.6482 45.6149 78.6482 45.0775C78.6482 44.5466 78.8392 44.0889 79.2145 43.7039C79.5898 43.3257 80.0441 43.1333 80.5775 43.1333C81.1042 43.1333 81.5586 43.3257 81.9404 43.7039C82.3158 44.0821 82.5066 44.5401 82.5066 45.0775C82.5066 45.6083 82.3158 46.0662 81.9404 46.4511C81.5651 46.8293 81.1108 47.0217 80.5775 47.0217C80.0507 47.0217 79.5964 46.8293 79.2145 46.4511ZM78.9248 59.2973V47.7051H82.2367V59.2973H78.9248ZM88.2813 47.7051V49.6692C88.571 49.0322 89.0121 48.5213 89.6112 48.1498C90.2105 47.7781 90.9215 47.5923 91.7578 47.5923C92.9364 47.5923 93.8583 47.9441 94.5234 48.654C95.1883 49.364 95.5241 50.4058 95.5241 51.7726V59.2973H92.2122V52.3964C92.2122 51.7129 92.0541 51.1888 91.738 50.8304C91.422 50.4721 90.9743 50.293 90.4014 50.293C89.7957 50.293 89.2952 50.5319 88.8936 51.0162C88.4919 51.494 88.2944 52.2173 88.2944 53.1795V59.3038H84.9824V47.7051H88.2813ZM103.169 59.4763C101.371 59.4763 99.9751 58.9323 98.9941 57.8441C98.013 56.7559 97.5192 55.3558 97.5192 53.6505C97.5192 51.8656 98.0328 50.3992 99.0599 49.2512C100.087 48.1033 101.457 47.526 103.169 47.526C104.953 47.526 106.336 48.0834 107.317 49.1981C108.298 50.3128 108.792 51.7263 108.792 53.4514C108.792 55.2032 108.298 56.6497 107.304 57.7844C106.316 58.9124 104.94 59.4763 103.169 59.4763V59.4763ZM103.142 50.1536C102.418 50.1536 101.872 50.4655 101.509 51.0892C101.147 51.7129 100.963 52.5224 100.963 53.5111C100.963 54.4998 101.147 55.3159 101.516 55.9463C101.885 56.5767 102.444 56.8952 103.182 56.8952C103.906 56.8952 104.446 56.5834 104.802 55.9663C105.157 55.3492 105.335 54.5463 105.335 53.5509C105.349 51.2883 104.611 50.1536 103.142 50.1536V50.1536Z" fill="black"/>
</g>
</svg>
