<svg width="225" height="39" viewBox="0 0 225 39" fill="none" xmlns="http://www.w3.org/2000/svg">
<path d="M14.696 38.336C12.04 38.336 9.656 37.776 7.544 36.656C5.432 35.536 3.784 33.984 2.6 32C1.416 29.984 0.824 27.712 0.824 25.184C0.824 22.656 1.416 20.4 2.6 18.416C3.784 16.432 5.416 14.88 7.496 13.76C9.608 12.64 12.008 12.08 14.696 12.08C17.224 12.08 19.432 12.592 21.32 13.616C23.24 14.64 24.68 16.112 25.64 18.032L21.032 20.72C20.296 19.536 19.368 18.656 18.248 18.08C17.16 17.472 15.96 17.168 14.648 17.168C12.408 17.168 10.552 17.904 9.08 19.376C7.608 20.816 6.872 22.752 6.872 25.184C6.872 27.616 7.592 29.568 9.032 31.04C10.504 32.48 12.376 33.2 14.648 33.2C15.96 33.2 17.16 32.912 18.248 32.336C19.368 31.728 20.296 30.832 21.032 29.648L25.64 32.336C24.648 34.256 23.192 35.744 21.272 36.8C19.384 37.824 17.192 38.336 14.696 38.336ZM40.5316 38.336C37.9396 38.336 35.6036 37.776 33.5236 36.656C31.4436 35.536 29.8116 33.984 28.6276 32C27.4756 29.984 26.8996 27.712 26.8996 25.184C26.8996 22.656 27.4756 20.4 28.6276 18.416C29.8116 16.432 31.4436 14.88 33.5236 13.76C35.6036 12.64 37.9396 12.08 40.5316 12.08C43.1556 12.08 45.5076 12.64 47.5876 13.76C49.6676 14.88 51.2836 16.432 52.4356 18.416C53.6196 20.4 54.2116 22.656 54.2116 25.184C54.2116 27.712 53.6196 29.984 52.4356 32C51.2836 33.984 49.6676 35.536 47.5876 36.656C45.5076 37.776 43.1556 38.336 40.5316 38.336ZM40.5316 33.2C42.7396 33.2 44.5636 32.464 46.0036 30.992C47.4436 29.52 48.1636 27.584 48.1636 25.184C48.1636 22.784 47.4436 20.848 46.0036 19.376C44.5636 17.904 42.7396 17.168 40.5316 17.168C38.3236 17.168 36.4996 17.904 35.0596 19.376C33.6516 20.848 32.9476 22.784 32.9476 25.184C32.9476 27.584 33.6516 29.52 35.0596 30.992C36.4996 32.464 38.3236 33.2 40.5316 33.2ZM58.5091 2.384L64.5091 2.384L64.5091 38L58.5091 38L58.5091 2.384ZM70.9441 2.384L76.9441 2.384L76.9441 38L70.9441 38L70.9441 2.384ZM93.1711 12.08C96.9471 12.08 99.8271 12.992 101.811 14.816C103.827 16.608 104.835 19.328 104.835 22.976L104.835 38L99.1711 38L99.1711 34.88C98.4351 36 97.3791 36.864 96.0031 37.472C94.6591 38.048 93.0271 38.336 91.1071 38.336C89.1871 38.336 87.5071 38.016 86.0671 37.376C84.6271 36.704 83.5071 35.792 82.7071 34.64C81.9391 33.456 81.5551 32.128 81.5551 30.656C81.5551 28.352 82.4031 26.512 84.0991 25.136C85.8271 23.728 88.5311 23.024 92.2111 23.024L98.8351 23.024L98.8351 22.64C98.8351 20.848 98.2911 19.472 97.2031 18.512C96.1471 17.552 94.5631 17.072 92.4511 17.072C91.0111 17.072 89.5871 17.296 88.1791 17.744C86.8031 18.192 85.6351 18.816 84.6751 19.616L82.3231 15.248C83.6671 14.224 85.2831 13.44 87.1711 12.896C89.0591 12.352 91.0591 12.08 93.1711 12.08ZM92.3551 33.968C93.8591 33.968 95.1871 33.632 96.3391 32.96C97.5231 32.256 98.3551 31.264 98.8351 29.984L98.8351 27.008L92.6431 27.008C89.1871 27.008 87.4591 28.144 87.4591 30.416C87.4591 31.504 87.8911 32.368 88.7551 33.008C89.6191 33.648 90.8191 33.968 92.3551 33.968ZM123.09 38.336C120.434 38.336 118.05 37.776 115.938 36.656C113.826 35.536 112.178 33.984 110.994 32C109.81 29.984 109.218 27.712 109.218 25.184C109.218 22.656 109.81 20.4 110.994 18.416C112.178 16.432 113.81 14.88 115.89 13.76C118.002 12.64 120.402 12.08 123.09 12.08C125.618 12.08 127.826 12.592 129.714 13.616C131.634 14.64 133.074 16.112 134.034 18.032L129.426 20.72C128.69 19.536 127.762 18.656 126.642 18.08C125.554 17.472 124.354 17.168 123.042 17.168C120.802 17.168 118.946 17.904 117.474 19.376C116.002 20.816 115.266 22.752 115.266 25.184C115.266 27.616 115.986 29.568 117.426 31.04C118.898 32.48 120.77 33.2 123.042 33.2C124.354 33.2 125.554 32.912 126.642 32.336C127.762 31.728 128.69 30.832 129.426 29.648L134.034 32.336C133.042 34.256 131.586 35.744 129.666 36.8C127.778 37.824 125.586 38.336 123.09 38.336ZM153.517 36.608C152.813 37.184 151.949 37.616 150.925 37.904C149.933 38.192 148.877 38.336 147.757 38.336C144.941 38.336 142.765 37.6 141.229 36.128C139.693 34.656 138.925 32.512 138.925 29.696L138.925 17.36L134.701 17.36L134.701 12.56L138.925 12.56L138.925 6.704L144.925 6.704L144.925 12.56L151.789 12.56L151.789 17.36L144.925 17.36L144.925 29.552C144.925 30.8 145.229 31.76 145.837 32.432C146.445 33.072 147.325 33.392 148.477 33.392C149.821 33.392 150.941 33.04 151.837 32.336L153.517 36.608ZM157.012 12.368L163.012 12.368L163.012 38L157.012 38L157.012 12.368ZM160.036 8.144C158.948 8.144 158.036 7.808 157.3 7.136C156.564 6.432 156.196 5.568 156.196 4.544C156.196 3.52 156.564 2.672 157.3 2C158.036 1.296 158.948 0.943999 160.036 0.943999C161.124 0.943999 162.036 1.28 162.772 1.952C163.508 2.592 163.876 3.408 163.876 4.4C163.876 5.456 163.508 6.352 162.772 7.088C162.068 7.792 161.156 8.144 160.036 8.144ZM180.967 38.336C178.375 38.336 176.039 37.776 173.959 36.656C171.879 35.536 170.247 33.984 169.063 32C167.911 29.984 167.335 27.712 167.335 25.184C167.335 22.656 167.911 20.4 169.063 18.416C170.247 16.432 171.879 14.88 173.959 13.76C176.039 12.64 178.375 12.08 180.967 12.08C183.591 12.08 185.943 12.64 188.023 13.76C190.103 14.88 191.719 16.432 192.871 18.416C194.055 20.4 194.647 22.656 194.647 25.184C194.647 27.712 194.055 29.984 192.871 32C191.719 33.984 190.103 35.536 188.023 36.656C185.943 37.776 183.591 38.336 180.967 38.336ZM180.967 33.2C183.175 33.2 184.999 32.464 186.439 30.992C187.879 29.52 188.599 27.584 188.599 25.184C188.599 22.784 187.879 20.848 186.439 19.376C184.999 17.904 183.175 17.168 180.967 17.168C178.759 17.168 176.935 17.904 175.495 19.376C174.087 20.848 173.383 22.784 173.383 25.184C173.383 27.584 174.087 29.52 175.495 30.992C176.935 32.464 178.759 33.2 180.967 33.2ZM213.489 12.08C216.721 12.08 219.313 13.024 221.265 14.912C223.217 16.8 224.193 19.6 224.193 23.312L224.193 38L218.193 38L218.193 24.08C218.193 21.84 217.665 20.16 216.609 19.04C215.553 17.888 214.049 17.312 212.097 17.312C209.889 17.312 208.145 17.984 206.865 19.328C205.585 20.64 204.945 22.544 204.945 25.04L204.945 38L198.945 38L198.945 12.368L204.657 12.368L204.657 15.68C205.649 14.496 206.897 13.6 208.401 12.992C209.905 12.384 211.601 12.08 213.489 12.08Z" fill="#232323"/>
</svg>
