<svg width="46" height="64" viewBox="0 0 46 64" fill="none" xmlns="http://www.w3.org/2000/svg">
<path d="M45.9492 40.8227C46.2372 35.116 44.2546 25.784 39.5437 18.1495C39.4166 17.9533 39.2048 18.0301 39.2471 18.2348C39.5606 19.3949 39.6369 21.5019 37.8067 21.3739C34.5532 21.1522 37.9169 14.1404 30.7743 9.27816C30.7477 9.25287 30.713 9.23804 30.6764 9.23636C30.6399 9.23468 30.604 9.24626 30.5753 9.269C30.5465 9.29175 30.5268 9.32413 30.5198 9.36026C30.5128 9.39638 30.5189 9.43385 30.537 9.46582C31.0284 10.4041 31.3165 13.33 30.1896 14.328C29.283 15.1299 27.6478 14.9166 26.0125 12.2808C24.925 10.4626 24.3638 8.37463 24.3922 6.25243C24.4207 4.13023 25.0376 2.05827 26.1735 0.270302C26.3091 0.0485177 26.1226 -0.0367866 25.9701 0.0143944C16.1416 3.28145 14.1759 14.9507 12.0831 19.1987C11.7357 19.9153 11.4307 20.2821 10.8291 20.248C9.04134 20.1285 10.3292 16.2814 10.9477 14.9422C10.9612 14.9097 10.9632 14.8735 10.9534 14.8397C10.9435 14.8059 10.9224 14.7765 10.8936 14.7565C10.8648 14.7365 10.8301 14.7271 10.7952 14.7299C10.7603 14.7326 10.7274 14.7473 10.702 14.7716C4.9654 21.1186 1.29607 29.0814 0.187194 37.5898C0.187194 37.3936 0.102465 38.2893 0.0516279 38.9461C0.0516279 39.202 0.0346826 39.4607 0.000791152 39.7223C0.000791152 40.0294 0.000791152 40.3365 0.000791152 40.6521C-0.0497696 46.7933 2.32491 52.7031 6.60242 57.0815C10.8799 61.4599 16.7099 63.9483 22.8098 63.9992C28.9096 64.0501 34.7798 61.6594 39.1288 57.3529C43.4778 53.0465 45.9494 47.1771 46 41.036C45.9576 40.9592 45.9492 40.891 45.9492 40.8227ZM22.8691 51.5793C20.7579 51.5674 18.6977 50.925 16.9493 49.7336C15.201 48.5422 13.8431 46.8553 13.0476 44.8864C12.2521 42.9176 12.0548 40.7553 12.4807 38.6735C12.9066 36.5917 13.9365 34.684 15.44 33.1918C16.9435 31.6997 18.853 30.6902 20.9267 30.2913C23.0004 29.8924 25.1451 30.122 27.0891 30.9509C29.0332 31.7799 30.6892 33.171 31.8474 34.948C33.0057 36.7251 33.6141 38.8082 33.5957 40.9336C33.5711 43.776 32.4282 46.4926 30.4175 48.4881C28.4069 50.4836 25.6924 51.5952 22.8691 51.5793Z" fill="#F04E23"/>
</svg>
