<svg width="92" height="92" viewBox="0 0 92 92" fill="none" xmlns="http://www.w3.org/2000/svg">
<path d="M66.5366 34.8892H24.2022C23.1963 34.8892 22.3809 35.6973 22.3809 36.6942V67.1552C22.3809 68.152 23.1963 68.9602 24.2022 68.9602H66.5366C67.5425 68.9602 68.3579 68.152 68.3579 67.1552V36.6942C68.3579 35.6973 67.5425 34.8892 66.5366 34.8892Z" fill="#4989F5"/>
<path d="M66.005 34.6328H24.6824C23.4023 34.6328 22.4062 44.4507 22.4062 45.7193L45.0358 68.9598H66.005C67.289 68.9564 68.3289 67.9257 68.3325 66.6532V36.939C68.3286 35.6667 67.2888 34.6363 66.005 34.6328Z" fill="url(#paint0_linear_4207_4807)"/>
<path d="M32.8789 40.5947H46.0152V23.5078H34.8459L32.8789 40.5947Z" fill="#3C4BA6"/>
<path d="M59.1519 40.5947H46.0156V23.5078H57.1849L59.1519 40.5947ZM68.3582 26.7468L68.3745 26.8051C68.3706 26.7845 68.3627 26.7654 68.3582 26.7468Z" fill="#7BABF7"/>
<path d="M68.3751 26.8046L68.3588 26.7464C67.9424 24.8563 66.2544 23.5085 64.3024 23.5073H57.1855L59.1511 40.5947H72.2874L68.3751 26.8046Z" fill="#3F51B5"/>
<path d="M23.6746 26.7466L23.6582 26.8065C23.6622 26.7853 23.6701 26.7657 23.6746 26.7466Z" fill="#7BABF7"/>
<path d="M23.6569 26.8046L23.6732 26.7464C24.0897 24.8563 25.7776 23.5085 27.7297 23.5073H34.847L32.8785 40.5947H19.7422L23.6569 26.8046Z" fill="#7BABF7"/>
<path fill-rule="evenodd" clip-rule="evenodd" d="M32.8785 40.5874C32.8785 44.1767 29.9378 47.0864 26.3103 47.0864C22.6829 47.0864 19.7422 44.1767 19.7422 40.5874H32.8785Z" fill="#709BE0"/>
<path fill-rule="evenodd" clip-rule="evenodd" d="M46.0152 40.5874C46.0152 44.1767 43.0745 47.0864 39.4471 47.0864C35.8196 47.0864 32.8789 44.1767 32.8789 40.5874H46.0152Z" fill="#3C4BA6"/>
<path fill-rule="evenodd" clip-rule="evenodd" d="M59.15 40.5874C59.15 44.1767 56.2093 47.0864 52.5818 47.0864C48.9544 47.0864 46.0137 44.1767 46.0137 40.5874H59.15Z" fill="#709BE0"/>
<path fill-rule="evenodd" clip-rule="evenodd" d="M72.2867 40.5874C72.2867 44.1767 69.346 47.0864 65.7185 47.0864C62.0911 47.0864 59.1504 44.1767 59.1504 40.5874H72.2867Z" fill="#3C4BA6"/>
<path d="M32.9156 60.5751C32.4463 60.5751 31.9769 60.5238 31.5076 60.4211C31.0383 60.3184 30.6313 60.1681 30.2866 59.9701C30.0813 59.8601 29.9529 59.7134 29.9016 59.5301C29.8503 59.3394 29.8613 59.1561 29.9346 58.9801C30.0079 58.8041 30.1253 58.6794 30.2866 58.6061C30.4479 58.5328 30.6423 58.5511 30.8696 58.6611C31.1629 58.8298 31.4893 58.9544 31.8486 59.0351C32.2079 59.1158 32.5636 59.1561 32.9156 59.1561C33.4436 59.1561 33.8213 59.0754 34.0486 58.9141C34.2833 58.7454 34.4006 58.5364 34.4006 58.2871C34.4006 58.0744 34.3199 57.9058 34.1586 57.7811C33.9973 57.6564 33.7149 57.5501 33.3116 57.4621L32.0686 57.1981C30.6826 56.9048 29.9896 56.1861 29.9896 55.0421C29.9896 54.5508 30.1216 54.1218 30.3856 53.7551C30.6496 53.3811 31.0163 53.0914 31.4856 52.8861C31.9623 52.6808 32.5123 52.5781 33.1356 52.5781C33.5463 52.5781 33.9496 52.6294 34.3456 52.7321C34.7416 52.8274 35.0899 52.9704 35.3906 53.1611C35.5739 53.2711 35.6876 53.4141 35.7316 53.5901C35.7756 53.7661 35.7609 53.9348 35.6876 54.0961C35.6216 54.2574 35.5043 54.3711 35.3356 54.4371C35.1743 54.5031 34.9726 54.4774 34.7306 54.3601C34.4886 54.2354 34.2319 54.1438 33.9606 54.0851C33.6893 54.0264 33.4106 53.9971 33.1246 53.9971C32.6626 53.9971 32.3033 54.0888 32.0466 54.2721C31.7973 54.4481 31.6726 54.6791 31.6726 54.9651C31.6726 55.1778 31.7496 55.3501 31.9036 55.4821C32.0576 55.6141 32.3253 55.7204 32.7066 55.8011L33.9496 56.0651C35.3723 56.3731 36.0836 57.0698 36.0836 58.1551C36.0836 58.6391 35.9516 59.0644 35.6876 59.4311C35.4309 59.7904 35.0643 60.0728 34.5876 60.2781C34.1183 60.4761 33.5609 60.5751 32.9156 60.5751ZM38.1585 60.5531C37.8798 60.5531 37.6671 60.4761 37.5205 60.3221C37.3738 60.1681 37.3005 59.9518 37.3005 59.6731V53.4801C37.3005 52.8934 37.5865 52.6001 38.1585 52.6001C38.7231 52.6001 39.0055 52.8934 39.0055 53.4801V55.8121H42.6135V53.4801C42.6135 52.8934 42.8958 52.6001 43.4605 52.6001C44.0325 52.6001 44.3185 52.8934 44.3185 53.4801V59.6731C44.3185 59.9518 44.2451 60.1681 44.0985 60.3221C43.9518 60.4761 43.7391 60.5531 43.4605 60.5531C43.1891 60.5531 42.9801 60.4761 42.8335 60.3221C42.6868 60.1681 42.6135 59.9518 42.6135 59.6731V57.2311H39.0055V59.6731C39.0055 60.2598 38.7231 60.5531 38.1585 60.5531ZM49.5905 60.5751C48.8278 60.5751 48.1568 60.4101 47.5775 60.0801C47.0055 59.7428 46.5581 59.2771 46.2355 58.6831C45.9201 58.0818 45.7625 57.3778 45.7625 56.5711C45.7625 55.7644 45.9201 55.0641 46.2355 54.4701C46.5581 53.8688 47.0055 53.4031 47.5775 53.0731C48.1495 52.7431 48.8205 52.5781 49.5905 52.5781C50.3605 52.5781 51.0315 52.7431 51.6035 53.0731C52.1828 53.4031 52.6301 53.8688 52.9455 54.4701C53.2681 55.0641 53.4295 55.7608 53.4295 56.5601C53.4295 57.3668 53.2681 58.0708 52.9455 58.6721C52.6301 59.2734 52.1828 59.7428 51.6035 60.0801C51.0315 60.4101 50.3605 60.5751 49.5905 60.5751ZM49.5905 59.1231C50.2358 59.1231 50.7381 58.8994 51.0975 58.4521C51.4641 57.9974 51.6475 57.3704 51.6475 56.5711C51.6475 55.7644 51.4678 55.1411 51.1085 54.7011C50.7491 54.2538 50.2431 54.0301 49.5905 54.0301C48.9525 54.0301 48.4501 54.2538 48.0835 54.7011C47.7241 55.1411 47.5445 55.7644 47.5445 56.5711C47.5445 57.3704 47.7241 57.9974 48.0835 58.4521C48.4501 58.8994 48.9525 59.1231 49.5905 59.1231ZM55.7164 60.5531C55.4377 60.5531 55.225 60.4761 55.0784 60.3221C54.9317 60.1681 54.8584 59.9518 54.8584 59.6731V53.5681C54.8584 52.9888 55.148 52.6991 55.7274 52.6991H58.4004C59.2657 52.6991 59.933 52.9191 60.4024 53.3591C60.8717 53.7918 61.1064 54.3968 61.1064 55.1741C61.1064 55.9514 60.8717 56.5601 60.4024 57.0001C59.933 57.4401 59.2657 57.6601 58.4004 57.6601H56.5634V59.6731C56.5634 59.9518 56.49 60.1681 56.3434 60.3221C56.204 60.4761 55.995 60.5531 55.7164 60.5531ZM56.5634 56.3401H58.1144C59.0164 56.3401 59.4674 55.9514 59.4674 55.1741C59.4674 54.4114 59.0164 54.0301 58.1144 54.0301H56.5634V56.3401Z" fill="#D8E3F8"/>
<defs>
<linearGradient id="paint0_linear_4207_4807" x1="22.4062" y1="51.796" x2="68.332" y2="51.796" gradientUnits="userSpaceOnUse">
<stop offset="0.03" stop-color="#4079D8"/>
<stop offset="1" stop-color="#4989F5"/>
</linearGradient>
</defs>
</svg>
