<svg width="50" height="40" viewBox="0 0 50 40" fill="none" xmlns="http://www.w3.org/2000/svg">
<path d="M49.4905 4.65776C47.6506 5.56031 45.8108 5.86116 43.6643 6.16201C45.8108 4.95861 47.344 3.15351 47.9573 0.746718C46.1174 1.95012 43.9709 2.55182 41.5178 3.15351C39.6779 1.34842 36.9182 0.14502 34.1584 0.14502C27.7189 0.14502 22.8126 6.16201 24.3458 12.179C16.0665 11.8782 8.70707 7.96711 3.49416 1.95012C0.734377 6.46286 2.26759 12.179 6.56058 15.1875C5.02737 15.1875 3.49416 14.5858 1.96095 13.9841C1.96095 18.4968 5.33401 22.7087 9.93364 23.9121C8.40043 24.213 6.86722 24.5138 5.33401 24.213C6.56058 28.124 10.2403 31.1325 14.8399 31.1325C11.1602 33.8402 5.64065 35.3444 0.427734 34.7427C5.02737 37.4504 10.2403 39.2555 15.7598 39.2555C34.465 39.2555 44.8908 23.9121 44.2776 9.7722C46.4241 8.56881 48.2639 6.76371 49.4905 4.65776Z" fill="#1DA1F2"/>
</svg>
