<svg width="57" height="56" viewBox="0 0 57 56" fill="none" xmlns="http://www.w3.org/2000/svg">
<g clip-path="url(#clip0_4210_4754)">
<path d="M0.927734 55.1535L5.69749 40.9732C3.27723 36.9389 1.88398 32.2308 1.88398 27.1967C1.88398 12.28 14.0857 0.1875 29.137 0.1875C44.1883 0.1875 56.39 12.28 56.39 27.1967C56.39 42.1133 44.1883 54.2058 29.137 54.2058C24.5575 54.2058 20.2448 53.0809 16.4572 51.104L0.927734 55.1535Z" fill="#2CB742"/>
<path d="M46.5239 36.1854C45.2655 33.8285 40.6248 31.1332 40.6248 31.1332C39.5749 30.54 38.3078 30.4737 37.7092 31.5313C37.7092 31.5313 36.2012 33.3234 35.8178 33.5811C34.0659 34.7572 32.4432 34.7117 30.8051 33.0883L26.9983 29.3156L23.1915 25.5428C21.5535 23.9194 21.5076 22.3112 22.6943 20.575C22.9544 20.195 24.7626 18.7005 24.7626 18.7005C25.8298 18.1063 25.7629 16.8516 25.1643 15.811C25.1643 15.811 22.4447 11.2119 20.0665 9.9647C19.0548 9.43399 17.8126 9.61974 17.0037 10.4215L15.3226 12.0875C9.9896 17.3728 12.6154 23.3394 17.9484 28.6247L22.8224 33.4551L27.6964 38.2855C33.0294 43.5707 39.0499 46.1731 44.3829 40.8878L46.064 39.2218C46.8729 38.4181 47.0594 37.1871 46.5239 36.1854Z" fill="#2D2D2D"/>
</g>
<defs>
<clipPath id="clip0_4210_4754">
<rect width="55.4622" height="54.966" fill="white" transform="translate(0.927734 0.1875)"/>
</clipPath>
</defs>
</svg>
