<svg width="264" height="298" viewBox="0 0 264 298" fill="none" xmlns="http://www.w3.org/2000/svg">
<mask id="mask0_4358_5494" style="mask-type:alpha" maskUnits="userSpaceOnUse" x="0" y="0" width="264" height="298">
<rect width="264" height="298" fill="#C4C4C4"/>
</mask>
<g mask="url(#mask0_4358_5494)">
<g filter="url(#filter0_bd_4358_5494)">
<rect x="32" y="338" width="338" height="211.996" rx="15" transform="rotate(-90 32 338)" fill="url(#paint0_linear_4358_5494)"/>
<rect x="32.5" y="337.5" width="337" height="210.996" rx="14.5" transform="rotate(-90 32.5 337.5)" stroke="url(#paint1_linear_4358_5494)"/>
</g>
<path d="M73.2186 28.3306L69.8906 47.8603H75.2132L78.5439 28.3306H73.2186Z" fill="white"/>
<path d="M65.4292 28.3542L60.2162 41.6729L59.6604 39.6619C58.6323 37.2388 55.7136 33.7589 52.2871 31.5658L57.0539 47.8525L62.6858 47.8429L71.068 28.3501L65.4292 28.3542Z" fill="white"/>
<path d="M57.6396 29.7556C57.3303 28.5659 56.4336 28.2114 55.3206 28.1689H47.0684L47 28.5577C53.4218 30.1156 57.6711 33.8693 59.4344 38.3828L57.6396 29.7556Z" fill="white"/>
<path d="M89.3324 32.0795C91.0737 32.0522 92.3359 32.4327 93.3161 32.827L93.7966 33.0529L94.5167 28.82C93.4626 28.4244 91.8102 28 89.7486 28C84.489 28 80.7818 30.649 80.7531 34.4451C80.7188 37.2501 83.3938 38.8162 85.4144 39.7512C87.4884 40.7095 88.1838 41.3187 88.1743 42.1743C88.1578 43.4817 86.5205 44.0813 84.9914 44.0813C82.8599 44.0813 81.7278 43.787 79.9796 43.0587L79.2938 42.7466L78.5449 47.1177C79.7907 47.6639 82.0892 48.1334 84.4753 48.1581C90.0703 48.1581 93.7063 45.5406 93.7446 41.4844C93.7679 39.2653 92.3483 37.5718 89.2722 36.1823C87.4104 35.2761 86.2714 34.6737 86.2823 33.7593C86.2823 32.9475 87.2488 32.0795 89.3324 32.0795Z" fill="white"/>
<path d="M108.177 28.3535H104.065C102.787 28.3535 101.837 28.7012 101.276 29.9744L93.373 47.8723H98.9626C98.9626 47.8723 99.8743 45.4656 100.081 44.9386C100.693 44.9386 106.124 44.9468 106.897 44.9468C107.056 45.6286 107.546 47.8723 107.546 47.8723H112.484L108.177 28.3535ZM101.613 40.9412C102.051 39.82 103.733 35.4831 103.733 35.4831C103.705 35.5365 104.167 34.3537 104.443 33.6186L104.801 35.3024C104.801 35.3024 105.821 39.9651 106.035 40.9412H101.613Z" fill="white"/>
<path d="M51.5161 131.105C51.1061 131.105 50.9011 130.895 50.9011 130.475V128.735H46.5961C46.3961 128.735 46.2361 128.69 46.1161 128.6C46.0061 128.5 45.9511 128.36 45.9511 128.18C45.9511 128 46.0661 127.74 46.2961 127.4L50.8711 120.74C51.0511 120.46 51.2811 120.32 51.5611 120.32C51.7211 120.32 51.8561 120.375 51.9661 120.485C52.0861 120.585 52.1461 120.74 52.1461 120.95V127.685H53.2411C53.6311 127.685 53.8261 127.86 53.8261 128.21C53.8261 128.56 53.6311 128.735 53.2411 128.735H52.1461V130.475C52.1461 130.895 51.9361 131.105 51.5161 131.105ZM50.9011 127.685V122.405L47.2861 127.685H50.9011ZM58.9652 131.135C58.3852 131.135 57.8102 131.05 57.2402 130.88C56.6802 130.71 56.1752 130.445 55.7252 130.085C55.5752 129.985 55.4852 129.865 55.4552 129.725C55.4352 129.575 55.4602 129.44 55.5302 129.32C55.6002 129.2 55.7002 129.12 55.8302 129.08C55.9702 129.04 56.1252 129.075 56.2952 129.185C57.0852 129.755 57.9702 130.04 58.9502 130.04C59.6802 130.04 60.2552 129.835 60.6752 129.425C61.0952 129.015 61.3052 128.475 61.3052 127.805C61.3052 127.115 61.1052 126.55 60.7052 126.11C60.3052 125.67 59.7552 125.45 59.0552 125.45C58.6252 125.45 58.2252 125.53 57.8552 125.69C57.4952 125.85 57.1702 126.105 56.8802 126.455C56.8102 126.535 56.7252 126.605 56.6252 126.665C56.5352 126.715 56.4302 126.74 56.3102 126.74C55.9502 126.74 55.7702 126.565 55.7702 126.215V120.995C55.7702 120.615 55.9602 120.425 56.3402 120.425H61.4402C61.8202 120.425 62.0102 120.6 62.0102 120.95C62.0102 121.3 61.8202 121.475 61.4402 121.475H56.9852V125.255C57.5652 124.675 58.3302 124.385 59.2802 124.385C59.9402 124.385 60.5152 124.525 61.0052 124.805C61.4952 125.085 61.8702 125.48 62.1302 125.99C62.4002 126.49 62.5352 127.075 62.5352 127.745C62.5352 128.405 62.3902 128.99 62.1002 129.5C61.8102 130.01 61.3952 130.41 60.8552 130.7C60.3252 130.99 59.6952 131.135 58.9652 131.135ZM67.9594 131.135C67.3794 131.135 66.8044 131.05 66.2344 130.88C65.6744 130.71 65.1694 130.445 64.7194 130.085C64.5694 129.985 64.4794 129.865 64.4494 129.725C64.4294 129.575 64.4544 129.44 64.5244 129.32C64.5944 129.2 64.6944 129.12 64.8244 129.08C64.9644 129.04 65.1194 129.075 65.2894 129.185C66.0794 129.755 66.9644 130.04 67.9444 130.04C68.6744 130.04 69.2494 129.835 69.6694 129.425C70.0894 129.015 70.2994 128.475 70.2994 127.805C70.2994 127.115 70.0994 126.55 69.6994 126.11C69.2994 125.67 68.7494 125.45 68.0494 125.45C67.6194 125.45 67.2194 125.53 66.8494 125.69C66.4894 125.85 66.1644 126.105 65.8744 126.455C65.8044 126.535 65.7194 126.605 65.6194 126.665C65.5294 126.715 65.4244 126.74 65.3044 126.74C64.9444 126.74 64.7644 126.565 64.7644 126.215V120.995C64.7644 120.615 64.9544 120.425 65.3344 120.425H70.4344C70.8144 120.425 71.0044 120.6 71.0044 120.95C71.0044 121.3 70.8144 121.475 70.4344 121.475H65.9794V125.255C66.5594 124.675 67.3244 124.385 68.2744 124.385C68.9344 124.385 69.5094 124.525 69.9994 124.805C70.4894 125.085 70.8644 125.48 71.1244 125.99C71.3944 126.49 71.5294 127.075 71.5294 127.745C71.5294 128.405 71.3844 128.99 71.0944 129.5C70.8044 130.01 70.3894 130.41 69.8494 130.7C69.3194 130.99 68.6894 131.135 67.9594 131.135ZM77.0885 131.135C75.8385 131.135 74.8735 130.685 74.1935 129.785C73.5235 128.875 73.1885 127.605 73.1885 125.975C73.1885 124.145 73.5635 122.74 74.3135 121.76C75.0635 120.78 76.1135 120.29 77.4635 120.29C77.9235 120.29 78.3935 120.38 78.8735 120.56C79.3635 120.74 79.7935 120.995 80.1635 121.325C80.2935 121.435 80.3635 121.56 80.3735 121.7C80.3935 121.84 80.3685 121.97 80.2985 122.09C80.2285 122.21 80.1285 122.29 79.9985 122.33C79.8785 122.36 79.7385 122.315 79.5785 122.195C79.2385 121.905 78.8885 121.7 78.5285 121.58C78.1685 121.45 77.8035 121.385 77.4335 121.385C76.4535 121.385 75.6985 121.75 75.1685 122.48C74.6485 123.21 74.3885 124.295 74.3885 125.735V126.47C74.5785 125.81 74.9285 125.295 75.4385 124.925C75.9585 124.555 76.5685 124.37 77.2685 124.37C77.8885 124.37 78.4385 124.515 78.9185 124.805C79.3985 125.085 79.7735 125.475 80.0435 125.975C80.3135 126.475 80.4485 127.05 80.4485 127.7C80.4485 128.37 80.3035 128.965 80.0135 129.485C79.7335 129.995 79.3385 130.4 78.8285 130.7C78.3285 130.99 77.7485 131.135 77.0885 131.135ZM77.0135 130.085C77.6835 130.085 78.2235 129.87 78.6335 129.44C79.0535 129.01 79.2635 128.445 79.2635 127.745C79.2635 127.055 79.0535 126.495 78.6335 126.065C78.2235 125.625 77.6835 125.405 77.0135 125.405C76.3435 125.405 75.7985 125.625 75.3785 126.065C74.9685 126.495 74.7635 127.055 74.7635 127.745C74.7635 128.445 74.9685 129.01 75.3785 129.44C75.7985 129.87 76.3435 130.085 77.0135 130.085ZM89.4698 131.135C88.8798 131.135 88.2948 131.05 87.7148 130.88C87.1348 130.71 86.6298 130.46 86.1998 130.13C86.0398 130.01 85.9448 129.88 85.9148 129.74C85.8948 129.59 85.9148 129.455 85.9748 129.335C86.0448 129.215 86.1498 129.14 86.2898 129.11C86.4298 129.07 86.5848 129.105 86.7548 129.215C87.1948 129.505 87.6348 129.715 88.0748 129.845C88.5148 129.975 88.9698 130.04 89.4398 130.04C90.1998 130.04 90.7798 129.875 91.1798 129.545C91.5898 129.205 91.7948 128.71 91.7948 128.06C91.7948 127.44 91.5898 126.97 91.1798 126.65C90.7698 126.33 90.1748 126.17 89.3948 126.17H88.3298C87.9398 126.17 87.7448 125.99 87.7448 125.63C87.7448 125.28 87.9398 125.105 88.3298 125.105H89.2898C89.9698 125.105 90.5048 124.93 90.8948 124.58C91.2948 124.22 91.4948 123.73 91.4948 123.11C91.4948 122.56 91.3098 122.135 90.9398 121.835C90.5798 121.535 90.0648 121.385 89.3948 121.385C88.9348 121.385 88.5048 121.45 88.1048 121.58C87.7148 121.71 87.3248 121.93 86.9348 122.24C86.7848 122.35 86.6398 122.39 86.4998 122.36C86.3698 122.33 86.2648 122.26 86.1848 122.15C86.1148 122.03 86.0898 121.895 86.1098 121.745C86.1398 121.595 86.2348 121.46 86.3948 121.34C86.7848 121.01 87.2498 120.755 87.7898 120.575C88.3298 120.385 88.8898 120.29 89.4698 120.29C90.4898 120.29 91.2848 120.53 91.8548 121.01C92.4348 121.49 92.7248 122.155 92.7248 123.005C92.7248 123.595 92.5748 124.115 92.2748 124.565C91.9748 125.005 91.5598 125.325 91.0298 125.525C91.6598 125.695 92.1498 126.01 92.4998 126.47C92.8498 126.92 93.0248 127.48 93.0248 128.15C93.0248 129.06 92.7048 129.785 92.0648 130.325C91.4348 130.865 90.5698 131.135 89.4698 131.135ZM98.464 131.135C97.874 131.135 97.289 131.05 96.709 130.88C96.129 130.71 95.624 130.46 95.194 130.13C95.034 130.01 94.939 129.88 94.909 129.74C94.889 129.59 94.909 129.455 94.969 129.335C95.039 129.215 95.144 129.14 95.284 129.11C95.424 129.07 95.579 129.105 95.749 129.215C96.189 129.505 96.629 129.715 97.069 129.845C97.509 129.975 97.964 130.04 98.434 130.04C99.194 130.04 99.774 129.875 100.174 129.545C100.584 129.205 100.789 128.71 100.789 128.06C100.789 127.44 100.584 126.97 100.174 126.65C99.764 126.33 99.169 126.17 98.389 126.17H97.324C96.934 126.17 96.739 125.99 96.739 125.63C96.739 125.28 96.934 125.105 97.324 125.105H98.284C98.964 125.105 99.499 124.93 99.889 124.58C100.289 124.22 100.489 123.73 100.489 123.11C100.489 122.56 100.304 122.135 99.934 121.835C99.574 121.535 99.059 121.385 98.389 121.385C97.929 121.385 97.499 121.45 97.099 121.58C96.709 121.71 96.319 121.93 95.929 122.24C95.779 122.35 95.634 122.39 95.494 122.36C95.364 122.33 95.259 122.26 95.179 122.15C95.109 122.03 95.084 121.895 95.104 121.745C95.134 121.595 95.229 121.46 95.389 121.34C95.779 121.01 96.244 120.755 96.784 120.575C97.324 120.385 97.884 120.29 98.464 120.29C99.484 120.29 100.279 120.53 100.849 121.01C101.429 121.49 101.719 122.155 101.719 123.005C101.719 123.595 101.569 124.115 101.269 124.565C100.969 125.005 100.554 125.325 100.024 125.525C100.654 125.695 101.144 126.01 101.494 126.47C101.844 126.92 102.019 127.48 102.019 128.15C102.019 129.06 101.699 129.785 101.059 130.325C100.429 130.865 99.564 131.135 98.464 131.135ZM105.013 131C104.783 131 104.618 130.95 104.518 130.85C104.418 130.74 104.368 130.595 104.368 130.415C104.368 130.205 104.473 129.99 104.683 129.77L108.043 126.17C108.553 125.62 108.918 125.115 109.138 124.655C109.368 124.185 109.483 123.71 109.483 123.23C109.483 122 108.768 121.385 107.338 121.385C106.448 121.385 105.638 121.67 104.908 122.24C104.748 122.36 104.603 122.405 104.473 122.375C104.343 122.335 104.243 122.255 104.173 122.135C104.113 122.015 104.088 121.885 104.098 121.745C104.118 121.595 104.203 121.465 104.353 121.355C104.743 121.035 105.213 120.78 105.763 120.59C106.313 120.39 106.873 120.29 107.443 120.29C108.503 120.29 109.313 120.54 109.873 121.04C110.443 121.53 110.728 122.23 110.728 123.14C110.728 123.77 110.573 124.39 110.263 125C109.963 125.6 109.488 126.24 108.838 126.92L105.988 129.95H110.698C111.078 129.95 111.268 130.12 111.268 130.46C111.268 130.82 111.078 131 110.698 131H105.013ZM116.797 131.135C116.217 131.135 115.642 131.05 115.072 130.88C114.512 130.71 114.007 130.445 113.557 130.085C113.407 129.985 113.317 129.865 113.287 129.725C113.267 129.575 113.292 129.44 113.362 129.32C113.432 129.2 113.532 129.12 113.662 129.08C113.802 129.04 113.957 129.075 114.127 129.185C114.917 129.755 115.802 130.04 116.782 130.04C117.512 130.04 118.087 129.835 118.507 129.425C118.927 129.015 119.137 128.475 119.137 127.805C119.137 127.115 118.937 126.55 118.537 126.11C118.137 125.67 117.587 125.45 116.887 125.45C116.457 125.45 116.057 125.53 115.687 125.69C115.327 125.85 115.002 126.105 114.712 126.455C114.642 126.535 114.557 126.605 114.457 126.665C114.367 126.715 114.262 126.74 114.142 126.74C113.782 126.74 113.602 126.565 113.602 126.215V120.995C113.602 120.615 113.792 120.425 114.172 120.425H119.272C119.652 120.425 119.842 120.6 119.842 120.95C119.842 121.3 119.652 121.475 119.272 121.475H114.817V125.255C115.397 124.675 116.162 124.385 117.112 124.385C117.772 124.385 118.347 124.525 118.837 124.805C119.327 125.085 119.702 125.48 119.962 125.99C120.232 126.49 120.367 127.075 120.367 127.745C120.367 128.405 120.222 128.99 119.932 129.5C119.642 130.01 119.227 130.41 118.687 130.7C118.157 130.99 117.527 131.135 116.797 131.135ZM129.434 131.135C128.244 131.135 127.319 130.88 126.659 130.37C125.999 129.85 125.669 129.125 125.669 128.195C125.669 127.545 125.844 126.99 126.194 126.53C126.554 126.07 127.029 125.755 127.619 125.585C127.089 125.385 126.674 125.065 126.374 124.625C126.074 124.185 125.924 123.68 125.924 123.11C125.924 122.22 126.239 121.53 126.869 121.04C127.509 120.54 128.364 120.29 129.434 120.29C130.504 120.29 131.359 120.54 131.999 121.04C132.639 121.53 132.959 122.22 132.959 123.11C132.959 123.68 132.804 124.19 132.494 124.64C132.194 125.08 131.784 125.395 131.264 125.585C131.854 125.755 132.324 126.07 132.674 126.53C133.024 126.99 133.199 127.545 133.199 128.195C133.199 129.125 132.869 129.85 132.209 130.37C131.549 130.88 130.624 131.135 129.434 131.135ZM129.434 125.135C130.164 125.135 130.734 124.965 131.144 124.625C131.564 124.275 131.774 123.805 131.774 123.215C131.774 122.615 131.564 122.15 131.144 121.82C130.734 121.48 130.164 121.31 129.434 121.31C128.704 121.31 128.134 121.48 127.724 121.82C127.314 122.15 127.109 122.615 127.109 123.215C127.109 123.805 127.314 124.275 127.724 124.625C128.134 124.965 128.704 125.135 129.434 125.135ZM129.434 130.115C131.154 130.115 132.014 129.45 132.014 128.12C132.014 126.81 131.154 126.155 129.434 126.155C127.714 126.155 126.854 126.81 126.854 128.12C126.854 129.45 127.714 130.115 129.434 130.115ZM138.653 131.135C138.073 131.135 137.498 131.05 136.928 130.88C136.368 130.71 135.863 130.445 135.413 130.085C135.263 129.985 135.173 129.865 135.143 129.725C135.123 129.575 135.148 129.44 135.218 129.32C135.288 129.2 135.388 129.12 135.518 129.08C135.658 129.04 135.813 129.075 135.983 129.185C136.773 129.755 137.658 130.04 138.638 130.04C139.368 130.04 139.943 129.835 140.363 129.425C140.783 129.015 140.993 128.475 140.993 127.805C140.993 127.115 140.793 126.55 140.393 126.11C139.993 125.67 139.443 125.45 138.743 125.45C138.313 125.45 137.913 125.53 137.543 125.69C137.183 125.85 136.858 126.105 136.568 126.455C136.498 126.535 136.413 126.605 136.313 126.665C136.223 126.715 136.118 126.74 135.998 126.74C135.638 126.74 135.458 126.565 135.458 126.215V120.995C135.458 120.615 135.648 120.425 136.028 120.425H141.128C141.508 120.425 141.698 120.6 141.698 120.95C141.698 121.3 141.508 121.475 141.128 121.475H136.673V125.255C137.253 124.675 138.018 124.385 138.968 124.385C139.628 124.385 140.203 124.525 140.693 124.805C141.183 125.085 141.558 125.48 141.818 125.99C142.088 126.49 142.223 127.075 142.223 127.745C142.223 128.405 142.078 128.99 141.788 129.5C141.498 130.01 141.083 130.41 140.543 130.7C140.013 130.99 139.383 131.135 138.653 131.135ZM146.687 131.135C146.227 131.135 145.752 131.045 145.262 130.865C144.782 130.685 144.357 130.425 143.987 130.085C143.857 129.985 143.782 129.865 143.762 129.725C143.752 129.575 143.782 129.445 143.852 129.335C143.922 129.215 144.017 129.14 144.137 129.11C144.267 129.07 144.412 129.105 144.572 129.215C144.912 129.505 145.262 129.715 145.622 129.845C145.982 129.975 146.347 130.04 146.717 130.04C147.697 130.04 148.447 129.675 148.967 128.945C149.497 128.215 149.762 127.13 149.762 125.69V124.955C149.572 125.615 149.217 126.13 148.697 126.5C148.187 126.87 147.582 127.055 146.882 127.055C146.262 127.055 145.712 126.915 145.232 126.635C144.752 126.345 144.377 125.95 144.107 125.45C143.837 124.95 143.702 124.375 143.702 123.725C143.702 123.055 143.842 122.465 144.122 121.955C144.412 121.435 144.807 121.03 145.307 120.74C145.817 120.44 146.402 120.29 147.062 120.29C148.312 120.29 149.272 120.745 149.942 121.655C150.622 122.555 150.962 123.82 150.962 125.45C150.962 127.28 150.587 128.685 149.837 129.665C149.087 130.645 148.037 131.135 146.687 131.135ZM147.137 126.02C147.807 126.02 148.352 125.805 148.772 125.375C149.192 124.935 149.402 124.365 149.402 123.665C149.402 122.975 149.192 122.415 148.772 121.985C148.352 121.545 147.807 121.325 147.137 121.325C146.477 121.325 145.937 121.545 145.517 121.985C145.097 122.415 144.887 122.975 144.887 123.665C144.887 124.365 145.097 124.935 145.517 125.375C145.937 125.805 146.477 126.02 147.137 126.02ZM156.416 131.135C155.206 131.135 154.286 130.67 153.656 129.74C153.026 128.81 152.711 127.465 152.711 125.705C152.711 123.935 153.026 122.59 153.656 121.67C154.286 120.75 155.206 120.29 156.416 120.29C157.636 120.29 158.556 120.75 159.176 121.67C159.806 122.58 160.121 123.92 160.121 125.69C160.121 127.46 159.801 128.81 159.161 129.74C158.531 130.67 157.616 131.135 156.416 131.135ZM156.416 130.07C157.256 130.07 157.876 129.715 158.276 129.005C158.686 128.285 158.891 127.18 158.891 125.69C158.891 124.19 158.691 123.095 158.291 122.405C157.891 121.705 157.266 121.355 156.416 121.355C155.576 121.355 154.951 121.705 154.541 122.405C154.141 123.105 153.941 124.2 153.941 125.69C153.941 127.18 154.141 128.285 154.541 129.005C154.951 129.715 155.576 130.07 156.416 130.07ZM169.157 131.135C168.567 131.135 167.982 131.05 167.402 130.88C166.822 130.71 166.317 130.46 165.887 130.13C165.727 130.01 165.632 129.88 165.602 129.74C165.582 129.59 165.602 129.455 165.662 129.335C165.732 129.215 165.837 129.14 165.977 129.11C166.117 129.07 166.272 129.105 166.442 129.215C166.882 129.505 167.322 129.715 167.762 129.845C168.202 129.975 168.657 130.04 169.127 130.04C169.887 130.04 170.467 129.875 170.867 129.545C171.277 129.205 171.482 128.71 171.482 128.06C171.482 127.44 171.277 126.97 170.867 126.65C170.457 126.33 169.862 126.17 169.082 126.17H168.017C167.627 126.17 167.432 125.99 167.432 125.63C167.432 125.28 167.627 125.105 168.017 125.105H168.977C169.657 125.105 170.192 124.93 170.582 124.58C170.982 124.22 171.182 123.73 171.182 123.11C171.182 122.56 170.997 122.135 170.627 121.835C170.267 121.535 169.752 121.385 169.082 121.385C168.622 121.385 168.192 121.45 167.792 121.58C167.402 121.71 167.012 121.93 166.622 122.24C166.472 122.35 166.327 122.39 166.187 122.36C166.057 122.33 165.952 122.26 165.872 122.15C165.802 122.03 165.777 121.895 165.797 121.745C165.827 121.595 165.922 121.46 166.082 121.34C166.472 121.01 166.937 120.755 167.477 120.575C168.017 120.385 168.577 120.29 169.157 120.29C170.177 120.29 170.972 120.53 171.542 121.01C172.122 121.49 172.412 122.155 172.412 123.005C172.412 123.595 172.262 124.115 171.962 124.565C171.662 125.005 171.247 125.325 170.717 125.525C171.347 125.695 171.837 126.01 172.187 126.47C172.537 126.92 172.712 127.48 172.712 128.15C172.712 129.06 172.392 129.785 171.752 130.325C171.122 130.865 170.257 131.135 169.157 131.135ZM176.291 131.105C176.071 131.105 175.906 131.03 175.796 130.88C175.696 130.72 175.706 130.525 175.826 130.295L180.371 121.49H175.241C174.861 121.49 174.671 121.31 174.671 120.95C174.671 120.6 174.861 120.425 175.241 120.425H181.196C181.376 120.425 181.521 120.475 181.631 120.575C181.741 120.665 181.796 120.79 181.796 120.95C181.796 121.1 181.776 121.23 181.736 121.34C181.706 121.44 181.661 121.55 181.601 121.67L176.981 130.685C176.841 130.965 176.611 131.105 176.291 131.105ZM187.146 131.135C186.556 131.135 185.971 131.05 185.391 130.88C184.811 130.71 184.306 130.46 183.876 130.13C183.716 130.01 183.621 129.88 183.591 129.74C183.571 129.59 183.591 129.455 183.651 129.335C183.721 129.215 183.826 129.14 183.966 129.11C184.106 129.07 184.261 129.105 184.431 129.215C184.871 129.505 185.311 129.715 185.751 129.845C186.191 129.975 186.646 130.04 187.116 130.04C187.876 130.04 188.456 129.875 188.856 129.545C189.266 129.205 189.471 128.71 189.471 128.06C189.471 127.44 189.266 126.97 188.856 126.65C188.446 126.33 187.851 126.17 187.071 126.17H186.006C185.616 126.17 185.421 125.99 185.421 125.63C185.421 125.28 185.616 125.105 186.006 125.105H186.966C187.646 125.105 188.181 124.93 188.571 124.58C188.971 124.22 189.171 123.73 189.171 123.11C189.171 122.56 188.986 122.135 188.616 121.835C188.256 121.535 187.741 121.385 187.071 121.385C186.611 121.385 186.181 121.45 185.781 121.58C185.391 121.71 185.001 121.93 184.611 122.24C184.461 122.35 184.316 122.39 184.176 122.36C184.046 122.33 183.941 122.26 183.861 122.15C183.791 122.03 183.766 121.895 183.786 121.745C183.816 121.595 183.911 121.46 184.071 121.34C184.461 121.01 184.926 120.755 185.466 120.575C186.006 120.385 186.566 120.29 187.146 120.29C188.166 120.29 188.961 120.53 189.531 121.01C190.111 121.49 190.401 122.155 190.401 123.005C190.401 123.595 190.251 124.115 189.951 124.565C189.651 125.005 189.236 125.325 188.706 125.525C189.336 125.695 189.826 126.01 190.176 126.47C190.526 126.92 190.701 127.48 190.701 128.15C190.701 129.06 190.381 129.785 189.741 130.325C189.111 130.865 188.246 131.135 187.146 131.135ZM193.695 131C193.465 131 193.3 130.95 193.2 130.85C193.1 130.74 193.05 130.595 193.05 130.415C193.05 130.205 193.155 129.99 193.365 129.77L196.725 126.17C197.235 125.62 197.6 125.115 197.82 124.655C198.05 124.185 198.165 123.71 198.165 123.23C198.165 122 197.45 121.385 196.02 121.385C195.13 121.385 194.32 121.67 193.59 122.24C193.43 122.36 193.285 122.405 193.155 122.375C193.025 122.335 192.925 122.255 192.855 122.135C192.795 122.015 192.77 121.885 192.78 121.745C192.8 121.595 192.885 121.465 193.035 121.355C193.425 121.035 193.895 120.78 194.445 120.59C194.995 120.39 195.555 120.29 196.125 120.29C197.185 120.29 197.995 120.54 198.555 121.04C199.125 121.53 199.41 122.23 199.41 123.14C199.41 123.77 199.255 124.39 198.945 125C198.645 125.6 198.17 126.24 197.52 126.92L194.67 129.95H199.38C199.76 129.95 199.95 130.12 199.95 130.46C199.95 130.82 199.76 131 199.38 131H193.695Z" fill="white"/>
<path d="M56.2002 225.475C54.9202 225.475 53.7902 225.205 52.8102 224.665C51.8402 224.125 51.0802 223.37 50.5302 222.4C49.9902 221.42 49.7202 220.28 49.7202 218.98C49.7202 217.97 49.8802 217.055 50.2002 216.235C50.5202 215.415 50.9802 214.71 51.5802 214.12C52.1802 213.53 52.8902 213.075 53.7102 212.755C54.5402 212.435 55.4552 212.275 56.4552 212.275C57.6352 212.275 58.6652 212.51 59.5452 212.98C60.4352 213.44 61.1252 214.09 61.6152 214.93C62.1052 215.76 62.3502 216.74 62.3502 217.87C62.3502 218.74 62.2252 219.495 61.9752 220.135C61.7352 220.765 61.3952 221.255 60.9552 221.605C60.5252 221.945 60.0202 222.115 59.4402 222.115C58.9502 222.115 58.5452 222.005 58.2252 221.785C57.9052 221.555 57.6902 221.235 57.5802 220.825C57.3102 221.255 56.9852 221.58 56.6052 221.8C56.2252 222.01 55.8202 222.115 55.3902 222.115C54.5902 222.115 53.9702 221.865 53.5302 221.365C53.0902 220.865 52.8702 220.18 52.8702 219.31C52.8702 218.58 53.0052 217.93 53.2752 217.36C53.5552 216.79 53.9352 216.34 54.4152 216.01C54.9052 215.68 55.4602 215.515 56.0802 215.515C56.9602 215.515 57.5702 215.87 57.9102 216.58L57.9552 216.265C58.0252 215.835 58.2852 215.62 58.7352 215.62C58.9652 215.62 59.1352 215.685 59.2452 215.815C59.3652 215.945 59.4002 216.135 59.3502 216.385L58.8402 219.28C58.7802 219.61 58.7502 219.88 58.7502 220.09C58.7502 220.7 59.0102 221.005 59.5302 221.005C60.0202 221.005 60.4152 220.72 60.7152 220.15C61.0252 219.57 61.1802 218.81 61.1802 217.87C61.1802 216.94 60.9852 216.145 60.5952 215.485C60.2152 214.825 59.6702 214.32 58.9602 213.97C58.2602 213.61 57.4202 213.43 56.4402 213.43C55.3502 213.43 54.4002 213.66 53.5902 214.12C52.7802 214.57 52.1502 215.21 51.7002 216.04C51.2502 216.87 51.0252 217.85 51.0252 218.98C51.0252 220.09 51.2352 221.045 51.6552 221.845C52.0852 222.645 52.6852 223.255 53.4552 223.675C54.2352 224.105 55.1502 224.32 56.2002 224.32C56.8602 224.32 57.4552 224.24 57.9852 224.08C58.5252 223.93 59.0102 223.705 59.4402 223.405C59.6202 223.275 59.7852 223.225 59.9352 223.255C60.0952 223.295 60.2152 223.38 60.2952 223.51C60.3752 223.64 60.4002 223.785 60.3702 223.945C60.3502 224.105 60.2502 224.25 60.0702 224.38C59.6102 224.71 59.0502 224.975 58.3902 225.175C57.7402 225.375 57.0102 225.475 56.2002 225.475ZM55.6602 220.93C56.2302 220.93 56.6952 220.675 57.0552 220.165C57.4252 219.655 57.6102 218.99 57.6102 218.17C57.6102 217.2 57.1802 216.715 56.3202 216.715C55.7402 216.715 55.2652 216.955 54.8952 217.435C54.5252 217.915 54.3402 218.535 54.3402 219.295C54.3402 219.825 54.4552 220.23 54.6852 220.51C54.9152 220.79 55.2402 220.93 55.6602 220.93ZM66.9581 223.15C66.3181 223.15 65.7531 222.995 65.2631 222.685C64.7831 222.375 64.4081 221.935 64.1381 221.365C63.8681 220.785 63.7331 220.105 63.7331 219.325C63.7331 218.535 63.8681 217.86 64.1381 217.3C64.4081 216.73 64.7831 216.29 65.2631 215.98C65.7531 215.67 66.3181 215.515 66.9581 215.515C67.4781 215.515 67.9481 215.63 68.3681 215.86C68.7881 216.09 69.1031 216.395 69.3131 216.775V213.25C69.3131 212.62 69.6231 212.305 70.2431 212.305C70.8731 212.305 71.1881 212.62 71.1881 213.25V222.16C71.1881 222.8 70.8781 223.12 70.2581 223.12C69.6381 223.12 69.3281 222.8 69.3281 222.16V221.845C69.1181 222.245 68.8031 222.565 68.3831 222.805C67.9631 223.035 67.4881 223.15 66.9581 223.15ZM67.4831 221.725C68.0431 221.725 68.4931 221.525 68.8331 221.125C69.1731 220.715 69.3431 220.115 69.3431 219.325C69.3431 218.525 69.1731 217.93 68.8331 217.54C68.4931 217.14 68.0431 216.94 67.4831 216.94C66.9231 216.94 66.4731 217.14 66.1331 217.54C65.7931 217.93 65.6231 218.525 65.6231 219.325C65.6231 220.115 65.7931 220.715 66.1331 221.125C66.4731 221.525 66.9231 221.725 67.4831 221.725ZM74.0622 214.165C73.7122 214.165 73.4372 214.08 73.2372 213.91C73.0472 213.73 72.9522 213.485 72.9522 213.175C72.9522 212.855 73.0472 212.61 73.2372 212.44C73.4372 212.27 73.7122 212.185 74.0622 212.185C74.8022 212.185 75.1722 212.515 75.1722 213.175C75.1722 213.835 74.8022 214.165 74.0622 214.165ZM74.0622 223.105C73.7622 223.105 73.5322 223.015 73.3722 222.835C73.2122 222.655 73.1322 222.405 73.1322 222.085V216.58C73.1322 215.9 73.4422 215.56 74.0622 215.56C74.6922 215.56 75.0072 215.9 75.0072 216.58V222.085C75.0072 222.405 74.9272 222.655 74.7672 222.835C74.6072 223.015 74.3722 223.105 74.0622 223.105ZM80.5705 223.15C79.7405 223.15 79.0255 222.995 78.4255 222.685C77.8255 222.375 77.3605 221.935 77.0305 221.365C76.7105 220.795 76.5505 220.12 76.5505 219.34C76.5505 218.58 76.7055 217.915 77.0155 217.345C77.3355 216.775 77.7705 216.33 78.3205 216.01C78.8805 215.68 79.5155 215.515 80.2255 215.515C81.2655 215.515 82.0855 215.845 82.6855 216.505C83.2955 217.165 83.6005 218.065 83.6005 219.205C83.6005 219.575 83.3605 219.76 82.8805 219.76H78.3505C78.4905 221.07 79.2405 221.725 80.6005 221.725C80.8605 221.725 81.1505 221.695 81.4705 221.635C81.8005 221.565 82.1105 221.45 82.4005 221.29C82.6605 221.14 82.8805 221.095 83.0605 221.155C83.2405 221.205 83.3655 221.31 83.4355 221.47C83.5155 221.63 83.5255 221.81 83.4655 222.01C83.4155 222.2 83.2755 222.365 83.0455 222.505C82.6955 222.725 82.2905 222.89 81.8305 223C81.3805 223.1 80.9605 223.15 80.5705 223.15ZM80.3005 216.79C79.7505 216.79 79.3055 216.96 78.9655 217.3C78.6255 217.64 78.4205 218.1 78.3505 218.68H82.0405C82.0005 218.07 81.8305 217.605 81.5305 217.285C81.2405 216.955 80.8305 216.79 80.3005 216.79ZM88.5054 225.85C87.9654 225.85 87.4404 225.8 86.9304 225.7C86.4304 225.6 85.9754 225.445 85.5654 225.235C85.3254 225.115 85.1804 224.96 85.1304 224.77C85.0904 224.59 85.1104 224.415 85.1904 224.245C85.2704 224.075 85.3904 223.95 85.5504 223.87C85.7204 223.8 85.9004 223.81 86.0904 223.9C86.5304 224.12 86.9454 224.26 87.3354 224.32C87.7354 224.39 88.0754 224.425 88.3554 224.425C89.6954 224.425 90.3654 223.78 90.3654 222.49V221.485C90.1554 221.895 89.8304 222.22 89.3904 222.46C88.9604 222.7 88.4804 222.82 87.9504 222.82C87.2904 222.82 86.7154 222.67 86.2254 222.37C85.7354 222.06 85.3554 221.63 85.0854 221.08C84.8154 220.53 84.6804 219.89 84.6804 219.16C84.6804 218.43 84.8154 217.795 85.0854 217.255C85.3554 216.705 85.7354 216.28 86.2254 215.98C86.7154 215.67 87.2904 215.515 87.9504 215.515C88.4804 215.515 88.9604 215.63 89.3904 215.86C89.8204 216.09 90.1354 216.405 90.3354 216.805V216.49C90.3354 216.18 90.4154 215.945 90.5754 215.785C90.7454 215.625 90.9754 215.545 91.2654 215.545C91.8854 215.545 92.1954 215.86 92.1954 216.49V222.265C92.1954 223.455 91.8804 224.35 91.2504 224.95C90.6204 225.55 89.7054 225.85 88.5054 225.85ZM88.4604 221.395C89.0404 221.395 89.5004 221.195 89.8404 220.795C90.1804 220.395 90.3504 219.85 90.3504 219.16C90.3504 218.47 90.1804 217.93 89.8404 217.54C89.5004 217.14 89.0404 216.94 88.4604 216.94C87.8804 216.94 87.4204 217.14 87.0804 217.54C86.7404 217.93 86.5704 218.47 86.5704 219.16C86.5704 219.85 86.7404 220.395 87.0804 220.795C87.4204 221.195 87.8804 221.395 88.4604 221.395ZM97.4831 223.15C96.7231 223.15 96.0631 222.995 95.5031 222.685C94.9431 222.375 94.5081 221.935 94.1981 221.365C93.8881 220.785 93.7331 220.105 93.7331 219.325C93.7331 218.545 93.8881 217.87 94.1981 217.3C94.5081 216.73 94.9431 216.29 95.5031 215.98C96.0631 215.67 96.7231 215.515 97.4831 215.515C98.2431 215.515 98.9031 215.67 99.4631 215.98C100.023 216.29 100.458 216.73 100.768 217.3C101.078 217.87 101.233 218.545 101.233 219.325C101.233 220.105 101.078 220.785 100.768 221.365C100.458 221.935 100.023 222.375 99.4631 222.685C98.9031 222.995 98.2431 223.15 97.4831 223.15ZM97.4831 221.725C98.0431 221.725 98.4931 221.525 98.8331 221.125C99.1731 220.715 99.3431 220.115 99.3431 219.325C99.3431 218.525 99.1731 217.93 98.8331 217.54C98.4931 217.14 98.0431 216.94 97.4831 216.94C96.9231 216.94 96.4731 217.14 96.1331 217.54C95.7931 217.93 95.6231 218.525 95.6231 219.325C95.6231 220.115 95.7931 220.715 96.1331 221.125C96.4731 221.525 96.9231 221.725 97.4831 221.725ZM103.741 223.12C103.101 223.12 102.781 222.8 102.781 222.16V216.49C102.781 215.86 103.086 215.545 103.696 215.545C104.306 215.545 104.611 215.86 104.611 216.49V216.955C104.971 216.095 105.741 215.615 106.921 215.515C107.351 215.465 107.591 215.71 107.641 216.25C107.691 216.78 107.431 217.075 106.861 217.135L106.531 217.165C105.301 217.285 104.686 217.915 104.686 219.055V222.16C104.686 222.8 104.371 223.12 103.741 223.12ZM111.883 223.15C111.123 223.15 110.463 222.995 109.903 222.685C109.343 222.375 108.908 221.935 108.598 221.365C108.288 220.785 108.133 220.105 108.133 219.325C108.133 218.545 108.288 217.87 108.598 217.3C108.908 216.73 109.343 216.29 109.903 215.98C110.463 215.67 111.123 215.515 111.883 215.515C112.643 215.515 113.303 215.67 113.863 215.98C114.423 216.29 114.858 216.73 115.168 217.3C115.478 217.87 115.633 218.545 115.633 219.325C115.633 220.105 115.478 220.785 115.168 221.365C114.858 221.935 114.423 222.375 113.863 222.685C113.303 222.995 112.643 223.15 111.883 223.15ZM111.883 221.725C112.443 221.725 112.893 221.525 113.233 221.125C113.573 220.715 113.743 220.115 113.743 219.325C113.743 218.525 113.573 217.93 113.233 217.54C112.893 217.14 112.443 216.94 111.883 216.94C111.323 216.94 110.873 217.14 110.533 217.54C110.193 217.93 110.023 218.525 110.023 219.325C110.023 220.115 110.193 220.715 110.533 221.125C110.873 221.525 111.323 221.725 111.883 221.725ZM120 223.15C119.36 223.15 118.795 222.995 118.305 222.685C117.825 222.375 117.45 221.935 117.18 221.365C116.91 220.785 116.775 220.105 116.775 219.325C116.775 218.535 116.91 217.86 117.18 217.3C117.45 216.73 117.825 216.29 118.305 215.98C118.795 215.67 119.36 215.515 120 215.515C120.52 215.515 120.99 215.63 121.41 215.86C121.83 216.09 122.145 216.395 122.355 216.775V213.25C122.355 212.62 122.665 212.305 123.285 212.305C123.915 212.305 124.23 212.62 124.23 213.25V222.16C124.23 222.8 123.92 223.12 123.3 223.12C122.68 223.12 122.37 222.8 122.37 222.16V221.845C122.16 222.245 121.845 222.565 121.425 222.805C121.005 223.035 120.53 223.15 120 223.15ZM120.525 221.725C121.085 221.725 121.535 221.525 121.875 221.125C122.215 220.715 122.385 220.115 122.385 219.325C122.385 218.525 122.215 217.93 121.875 217.54C121.535 217.14 121.085 216.94 120.525 216.94C119.965 216.94 119.515 217.14 119.175 217.54C118.835 217.93 118.665 218.525 118.665 219.325C118.665 220.115 118.835 220.715 119.175 221.125C119.515 221.525 119.965 221.725 120.525 221.725ZM127.134 223.12C126.494 223.12 126.174 222.8 126.174 222.16V216.49C126.174 215.86 126.479 215.545 127.089 215.545C127.699 215.545 128.004 215.86 128.004 216.49V216.955C128.364 216.095 129.134 215.615 130.314 215.515C130.744 215.465 130.984 215.71 131.034 216.25C131.084 216.78 130.824 217.075 130.254 217.135L129.924 217.165C128.694 217.285 128.079 217.915 128.079 219.055V222.16C128.079 222.8 127.764 223.12 127.134 223.12ZM132.978 214.165C132.628 214.165 132.353 214.08 132.153 213.91C131.963 213.73 131.868 213.485 131.868 213.175C131.868 212.855 131.963 212.61 132.153 212.44C132.353 212.27 132.628 212.185 132.978 212.185C133.718 212.185 134.088 212.515 134.088 213.175C134.088 213.835 133.718 214.165 132.978 214.165ZM132.978 223.105C132.678 223.105 132.448 223.015 132.288 222.835C132.128 222.655 132.048 222.405 132.048 222.085V216.58C132.048 215.9 132.358 215.56 132.978 215.56C133.608 215.56 133.923 215.9 133.923 216.58V222.085C133.923 222.405 133.843 222.655 133.683 222.835C133.523 223.015 133.288 223.105 132.978 223.105ZM139.291 225.85C138.751 225.85 138.226 225.8 137.716 225.7C137.216 225.6 136.761 225.445 136.351 225.235C136.111 225.115 135.966 224.96 135.916 224.77C135.876 224.59 135.896 224.415 135.976 224.245C136.056 224.075 136.176 223.95 136.336 223.87C136.506 223.8 136.686 223.81 136.876 223.9C137.316 224.12 137.731 224.26 138.121 224.32C138.521 224.39 138.861 224.425 139.141 224.425C140.481 224.425 141.151 223.78 141.151 222.49V221.485C140.941 221.895 140.616 222.22 140.176 222.46C139.746 222.7 139.266 222.82 138.736 222.82C138.076 222.82 137.501 222.67 137.011 222.37C136.521 222.06 136.141 221.63 135.871 221.08C135.601 220.53 135.466 219.89 135.466 219.16C135.466 218.43 135.601 217.795 135.871 217.255C136.141 216.705 136.521 216.28 137.011 215.98C137.501 215.67 138.076 215.515 138.736 215.515C139.266 215.515 139.746 215.63 140.176 215.86C140.606 216.09 140.921 216.405 141.121 216.805V216.49C141.121 216.18 141.201 215.945 141.361 215.785C141.531 215.625 141.761 215.545 142.051 215.545C142.671 215.545 142.981 215.86 142.981 216.49V222.265C142.981 223.455 142.666 224.35 142.036 224.95C141.406 225.55 140.491 225.85 139.291 225.85ZM139.246 221.395C139.826 221.395 140.286 221.195 140.626 220.795C140.966 220.395 141.136 219.85 141.136 219.16C141.136 218.47 140.966 217.93 140.626 217.54C140.286 217.14 139.826 216.94 139.246 216.94C138.666 216.94 138.206 217.14 137.866 217.54C137.526 217.93 137.356 218.47 137.356 219.16C137.356 219.85 137.526 220.395 137.866 220.795C138.206 221.195 138.666 221.395 139.246 221.395ZM147.579 223.15C145.779 223.15 144.879 222.14 144.879 220.12V216.49C144.879 215.86 145.189 215.545 145.809 215.545C146.439 215.545 146.754 215.86 146.754 216.49V220.15C146.754 220.67 146.859 221.055 147.069 221.305C147.279 221.555 147.614 221.68 148.074 221.68C148.574 221.68 148.984 221.51 149.304 221.17C149.624 220.82 149.784 220.36 149.784 219.79V216.49C149.784 215.86 150.094 215.545 150.714 215.545C151.344 215.545 151.659 215.86 151.659 216.49V222.16C151.659 222.8 151.354 223.12 150.744 223.12C150.134 223.12 149.829 222.8 149.829 222.16V221.905C149.339 222.735 148.589 223.15 147.579 223.15ZM157.226 223.15C156.396 223.15 155.681 222.995 155.081 222.685C154.481 222.375 154.016 221.935 153.686 221.365C153.366 220.795 153.206 220.12 153.206 219.34C153.206 218.58 153.361 217.915 153.671 217.345C153.991 216.775 154.426 216.33 154.976 216.01C155.536 215.68 156.171 215.515 156.881 215.515C157.921 215.515 158.741 215.845 159.341 216.505C159.951 217.165 160.256 218.065 160.256 219.205C160.256 219.575 160.016 219.76 159.536 219.76H155.006C155.146 221.07 155.896 221.725 157.256 221.725C157.516 221.725 157.806 221.695 158.126 221.635C158.456 221.565 158.766 221.45 159.056 221.29C159.316 221.14 159.536 221.095 159.716 221.155C159.896 221.205 160.021 221.31 160.091 221.47C160.171 221.63 160.181 221.81 160.121 222.01C160.071 222.2 159.931 222.365 159.701 222.505C159.351 222.725 158.946 222.89 158.486 223C158.036 223.1 157.616 223.15 157.226 223.15ZM156.956 216.79C156.406 216.79 155.961 216.96 155.621 217.3C155.281 217.64 155.076 218.1 155.006 218.68H158.696C158.656 218.07 158.486 217.605 158.186 217.285C157.896 216.955 157.486 216.79 156.956 216.79ZM164.426 223.15C163.996 223.15 163.541 223.105 163.061 223.015C162.581 222.925 162.151 222.77 161.771 222.55C161.561 222.43 161.431 222.285 161.381 222.115C161.331 221.935 161.336 221.77 161.396 221.62C161.466 221.46 161.576 221.345 161.726 221.275C161.886 221.205 162.071 221.22 162.281 221.32C162.681 221.51 163.056 221.645 163.406 221.725C163.756 221.795 164.101 221.83 164.441 221.83C164.921 221.83 165.276 221.75 165.506 221.59C165.746 221.42 165.866 221.2 165.866 220.93C165.866 220.51 165.556 220.24 164.936 220.12L163.436 219.835C162.166 219.595 161.531 218.935 161.531 217.855C161.531 217.375 161.661 216.96 161.921 216.61C162.191 216.26 162.561 215.99 163.031 215.8C163.501 215.61 164.041 215.515 164.651 215.515C165.531 215.515 166.316 215.71 167.006 216.1C167.196 216.2 167.306 216.34 167.336 216.52C167.376 216.69 167.356 216.855 167.276 217.015C167.206 217.165 167.091 217.275 166.931 217.345C166.771 217.405 166.586 217.385 166.376 217.285C166.066 217.125 165.766 217.01 165.476 216.94C165.196 216.87 164.926 216.835 164.666 216.835C164.176 216.835 163.811 216.92 163.571 217.09C163.341 217.26 163.226 217.485 163.226 217.765C163.226 218.205 163.511 218.475 164.081 218.575L165.581 218.86C166.231 218.98 166.721 219.2 167.051 219.52C167.391 219.84 167.561 220.27 167.561 220.81C167.561 221.54 167.276 222.115 166.706 222.535C166.136 222.945 165.376 223.15 164.426 223.15Z" fill="white"/>
<path d="M51.387 202.07C51.1136 202.07 50.977 201.927 50.977 201.64V195.66H48.727C48.4736 195.66 48.347 195.54 48.347 195.3C48.347 195.067 48.4736 194.95 48.727 194.95H54.057C54.3103 194.95 54.437 195.067 54.437 195.3C54.437 195.54 54.3103 195.66 54.057 195.66H51.807V201.64C51.807 201.927 51.667 202.07 51.387 202.07ZM55.8163 195.97C55.4629 195.97 55.2863 195.803 55.2863 195.47C55.2863 195.143 55.4629 194.98 55.8163 194.98C56.1696 194.98 56.3463 195.143 56.3463 195.47C56.3463 195.803 56.1696 195.97 55.8163 195.97ZM55.8163 202.05C55.5496 202.05 55.4163 201.903 55.4163 201.61V197.52C55.4163 197.233 55.5496 197.09 55.8163 197.09C56.0896 197.09 56.2263 197.233 56.2263 197.52V201.61C56.2263 201.903 56.0896 202.05 55.8163 202.05ZM59.6905 202.09C59.1171 202.09 58.6871 201.94 58.4005 201.64C58.1138 201.333 57.9705 200.893 57.9705 200.32V197.77H57.3005C57.0671 197.77 56.9505 197.663 56.9505 197.45C56.9505 197.243 57.0671 197.14 57.3005 197.14H57.9705V195.99C57.9705 195.717 58.1071 195.58 58.3805 195.58C58.6471 195.58 58.7805 195.717 58.7805 195.99V197.14H60.0405C60.2738 197.14 60.3905 197.243 60.3905 197.45C60.3905 197.663 60.2738 197.77 60.0405 197.77H58.7805V200.24C58.7805 200.62 58.8605 200.91 59.0205 201.11C59.1805 201.303 59.4405 201.4 59.8005 201.4C59.9271 201.4 60.0338 201.387 60.1205 201.36C60.2071 201.333 60.2838 201.32 60.3505 201.32C60.4105 201.313 60.4605 201.333 60.5005 201.38C60.5405 201.427 60.5605 201.507 60.5605 201.62C60.5605 201.7 60.5438 201.773 60.5105 201.84C60.4838 201.907 60.4338 201.953 60.3605 201.98C60.2805 202.007 60.1738 202.03 60.0405 202.05C59.9138 202.077 59.7971 202.09 59.6905 202.09ZM62.9566 202.09C61.7899 202.09 61.2066 201.447 61.2066 200.16V197.48C61.2066 197.207 61.3399 197.07 61.6066 197.07C61.8799 197.07 62.0166 197.207 62.0166 197.48V200.15C62.0166 200.583 62.1032 200.903 62.2766 201.11C62.4566 201.317 62.7366 201.42 63.1166 201.42C63.5299 201.42 63.8666 201.283 64.1266 201.01C64.3866 200.73 64.5166 200.36 64.5166 199.9V197.48C64.5166 197.207 64.6532 197.07 64.9266 197.07C65.1932 197.07 65.3266 197.207 65.3266 197.48V201.65C65.3266 201.93 65.1966 202.07 64.9366 202.07C64.6699 202.07 64.5366 201.93 64.5366 201.65V201.18C64.3832 201.473 64.1666 201.7 63.8866 201.86C63.6132 202.013 63.3032 202.09 62.9566 202.09ZM68.322 202.09C67.842 202.09 67.4754 201.947 67.222 201.66C66.9687 201.367 66.842 200.943 66.842 200.39V195.29C66.842 195.017 66.9754 194.88 67.242 194.88C67.5154 194.88 67.652 195.017 67.652 195.29V200.33C67.652 201.043 67.9354 201.4 68.502 201.4C68.562 201.4 68.6154 201.397 68.662 201.39C68.7087 201.383 68.7554 201.38 68.802 201.38C68.8754 201.373 68.9254 201.39 68.952 201.43C68.9854 201.47 69.002 201.55 69.002 201.67C69.002 201.897 68.8887 202.027 68.662 202.06C68.6087 202.073 68.552 202.08 68.492 202.08C68.432 202.087 68.3754 202.09 68.322 202.09ZM71.331 202.09C70.9977 202.09 70.6977 202.027 70.431 201.9C70.171 201.767 69.9644 201.587 69.811 201.36C69.6577 201.133 69.581 200.88 69.581 200.6C69.581 200.247 69.671 199.967 69.851 199.76C70.0377 199.553 70.341 199.407 70.761 199.32C71.1877 199.227 71.7677 199.18 72.501 199.18H72.821V198.87C72.821 198.457 72.7344 198.16 72.561 197.98C72.3944 197.793 72.1244 197.7 71.751 197.7C71.5177 197.7 71.281 197.73 71.041 197.79C70.8077 197.85 70.5644 197.947 70.311 198.08C70.1977 198.14 70.101 198.153 70.021 198.12C69.9477 198.08 69.8944 198.02 69.861 197.94C69.8344 197.853 69.8344 197.767 69.861 197.68C69.8944 197.587 69.961 197.517 70.061 197.47C70.3477 197.323 70.6344 197.217 70.921 197.15C71.2144 197.083 71.491 197.05 71.751 197.05C72.3777 197.05 72.841 197.203 73.141 197.51C73.4477 197.817 73.601 198.293 73.601 198.94V201.65C73.601 201.93 73.4777 202.07 73.231 202.07C72.971 202.07 72.841 201.93 72.841 201.65V201.16C72.7144 201.447 72.5177 201.673 72.251 201.84C71.991 202.007 71.6844 202.09 71.331 202.09ZM71.461 201.48C71.861 201.48 72.1877 201.343 72.441 201.07C72.6944 200.79 72.821 200.437 72.821 200.01V199.71H72.511C71.971 199.71 71.5444 199.737 71.231 199.79C70.9244 199.837 70.7077 199.923 70.581 200.05C70.461 200.17 70.401 200.337 70.401 200.55C70.401 200.823 70.4944 201.047 70.681 201.22C70.8744 201.393 71.1344 201.48 71.461 201.48ZM75.5138 202.07C75.2404 202.07 75.1038 201.93 75.1038 201.65V197.48C75.1038 197.207 75.2338 197.07 75.4938 197.07C75.7604 197.07 75.8938 197.207 75.8938 197.48V198.01C76.0271 197.703 76.2338 197.47 76.5138 197.31C76.7938 197.143 77.1271 197.053 77.5138 197.04C77.7271 197.02 77.8404 197.127 77.8538 197.36C77.8738 197.593 77.7538 197.723 77.4938 197.75L77.3338 197.77C76.8738 197.81 76.5238 197.957 76.2838 198.21C76.0438 198.457 75.9238 198.797 75.9238 199.23V201.65C75.9238 201.93 75.7871 202.07 75.5138 202.07Z" fill="white"/>
<path d="M52.7819 257C52.4819 257 52.3319 256.85 52.3319 256.55V250.4C52.3319 250.1 52.4819 249.95 52.7819 249.95H56.5019C56.7352 249.95 56.8519 250.063 56.8519 250.29C56.8519 250.523 56.7352 250.64 56.5019 250.64H53.1319V253.08H56.2919C56.5252 253.08 56.6419 253.193 56.6419 253.42C56.6419 253.653 56.5252 253.77 56.2919 253.77H53.1319V256.31H56.5019C56.7352 256.31 56.8519 256.423 56.8519 256.65C56.8519 256.883 56.7352 257 56.5019 257H52.7819ZM58.072 257.06C57.9387 257.06 57.8387 257.003 57.772 256.89C57.7053 256.77 57.7353 256.633 57.862 256.48L59.452 254.49L57.972 252.65C57.8453 252.497 57.8153 252.363 57.882 252.25C57.9487 252.13 58.0487 252.07 58.182 252.07C58.2887 252.07 58.3753 252.09 58.442 252.13C58.5087 252.163 58.572 252.22 58.632 252.3L59.922 253.93L61.222 252.3C61.282 252.22 61.3453 252.163 61.412 252.13C61.4787 252.09 61.562 252.07 61.662 252.07C61.802 252.07 61.902 252.13 61.962 252.25C62.0287 252.363 61.9987 252.5 61.872 252.66L60.392 254.49L61.992 256.48C62.112 256.633 62.1387 256.77 62.072 256.89C62.0053 257.003 61.902 257.06 61.762 257.06C61.582 257.06 61.432 256.983 61.312 256.83L59.912 255.07L58.522 256.83C58.462 256.903 58.3987 256.96 58.332 257C58.2653 257.04 58.1787 257.06 58.072 257.06ZM63.7059 258.87C63.4392 258.87 63.3059 258.733 63.3059 258.46V252.48C63.3059 252.207 63.4359 252.07 63.6959 252.07C63.9692 252.07 64.1059 252.207 64.1059 252.48V253C64.2459 252.707 64.4626 252.477 64.7559 252.31C65.0492 252.137 65.3859 252.05 65.7659 252.05C66.1992 252.05 66.5759 252.153 66.8959 252.36C67.2226 252.56 67.4726 252.85 67.6459 253.23C67.8259 253.603 67.9159 254.05 67.9159 254.57C67.9159 255.083 67.8259 255.53 67.6459 255.91C67.4726 256.283 67.2226 256.573 66.8959 256.78C66.5759 256.987 66.1992 257.09 65.7659 257.09C65.3926 257.09 65.0592 257.007 64.7659 256.84C64.4726 256.673 64.2559 256.443 64.1159 256.15V258.46C64.1159 258.733 63.9792 258.87 63.7059 258.87ZM65.5959 256.44C66.0492 256.44 66.4126 256.28 66.6859 255.96C66.9592 255.633 67.0959 255.17 67.0959 254.57C67.0959 253.963 66.9592 253.5 66.6859 253.18C66.4126 252.86 66.0492 252.7 65.5959 252.7C65.1426 252.7 64.7792 252.86 64.5059 253.18C64.2326 253.5 64.0959 253.963 64.0959 254.57C64.0959 255.17 64.2326 255.633 64.5059 255.96C64.7792 256.28 65.1426 256.44 65.5959 256.44ZM69.536 250.97C69.1826 250.97 69.006 250.803 69.006 250.47C69.006 250.143 69.1826 249.98 69.536 249.98C69.8893 249.98 70.066 250.143 70.066 250.47C70.066 250.803 69.8893 250.97 69.536 250.97ZM69.536 257.05C69.2693 257.05 69.136 256.903 69.136 256.61V252.52C69.136 252.233 69.2693 252.09 69.536 252.09C69.8093 252.09 69.946 252.233 69.946 252.52V256.61C69.946 256.903 69.8093 257.05 69.536 257.05ZM71.8702 257.07C71.5969 257.07 71.4602 256.93 71.4602 256.65V252.48C71.4602 252.207 71.5902 252.07 71.8502 252.07C72.1169 252.07 72.2502 252.207 72.2502 252.48V253.01C72.3835 252.703 72.5902 252.47 72.8702 252.31C73.1502 252.143 73.4835 252.053 73.8702 252.04C74.0835 252.02 74.1969 252.127 74.2102 252.36C74.2302 252.593 74.1102 252.723 73.8502 252.75L73.6902 252.77C73.2302 252.81 72.8802 252.957 72.6402 253.21C72.4002 253.457 72.2802 253.797 72.2802 254.23V256.65C72.2802 256.93 72.1435 257.07 71.8702 257.07ZM76.5254 257.09C76.192 257.09 75.892 257.027 75.6254 256.9C75.3654 256.767 75.1587 256.587 75.0054 256.36C74.852 256.133 74.7754 255.88 74.7754 255.6C74.7754 255.247 74.8654 254.967 75.0454 254.76C75.232 254.553 75.5354 254.407 75.9554 254.32C76.382 254.227 76.962 254.18 77.6954 254.18H78.0154V253.87C78.0154 253.457 77.9287 253.16 77.7554 252.98C77.5887 252.793 77.3187 252.7 76.9454 252.7C76.712 252.7 76.4754 252.73 76.2354 252.79C76.002 252.85 75.7587 252.947 75.5054 253.08C75.392 253.14 75.2954 253.153 75.2154 253.12C75.142 253.08 75.0887 253.02 75.0554 252.94C75.0287 252.853 75.0287 252.767 75.0554 252.68C75.0887 252.587 75.1554 252.517 75.2554 252.47C75.542 252.323 75.8287 252.217 76.1154 252.15C76.4087 252.083 76.6854 252.05 76.9454 252.05C77.572 252.05 78.0354 252.203 78.3354 252.51C78.642 252.817 78.7954 253.293 78.7954 253.94V256.65C78.7954 256.93 78.672 257.07 78.4254 257.07C78.1654 257.07 78.0354 256.93 78.0354 256.65V256.16C77.9087 256.447 77.712 256.673 77.4454 256.84C77.1854 257.007 76.8787 257.09 76.5254 257.09ZM76.6554 256.48C77.0554 256.48 77.382 256.343 77.6354 256.07C77.8887 255.79 78.0154 255.437 78.0154 255.01V254.71H77.7054C77.1654 254.71 76.7387 254.737 76.4254 254.79C76.1187 254.837 75.902 254.923 75.7754 255.05C75.6554 255.17 75.5954 255.337 75.5954 255.55C75.5954 255.823 75.6887 256.047 75.8754 256.22C76.0687 256.393 76.3287 256.48 76.6554 256.48Z" fill="white"/>
<path d="M53.6608 277.083C52.6928 277.083 51.9568 276.711 51.4528 275.967C50.9488 275.223 50.6968 274.147 50.6968 272.739C50.6968 271.323 50.9488 270.247 51.4528 269.511C51.9568 268.775 52.6928 268.407 53.6608 268.407C54.6368 268.407 55.3728 268.775 55.8688 269.511C56.3728 270.239 56.6248 271.311 56.6248 272.727C56.6248 274.143 56.3688 275.223 55.8568 275.967C55.3528 276.711 54.6208 277.083 53.6608 277.083ZM53.6608 276.231C54.3328 276.231 54.8288 275.947 55.1488 275.379C55.4768 274.803 55.6408 273.919 55.6408 272.727C55.6408 271.527 55.4808 270.651 55.1608 270.099C54.8408 269.539 54.3408 269.259 53.6608 269.259C52.9888 269.259 52.4888 269.539 52.1608 270.099C51.8408 270.659 51.6808 271.535 51.6808 272.727C51.6808 273.919 51.8408 274.803 52.1608 275.379C52.4888 275.947 52.9888 276.231 53.6608 276.231ZM60.2682 277.083C59.9002 277.083 59.5202 277.011 59.1282 276.867C58.7442 276.723 58.4042 276.515 58.1082 276.243C58.0042 276.163 57.9442 276.067 57.9282 275.955C57.9202 275.835 57.9442 275.731 58.0002 275.643C58.0562 275.547 58.1322 275.487 58.2282 275.463C58.3322 275.431 58.4482 275.459 58.5762 275.547C58.8482 275.779 59.1282 275.947 59.4162 276.051C59.7042 276.155 59.9962 276.207 60.2922 276.207C61.0762 276.207 61.6762 275.915 62.0922 275.331C62.5162 274.747 62.7282 273.879 62.7282 272.727V272.139C62.5762 272.667 62.2922 273.079 61.8762 273.375C61.4682 273.671 60.9842 273.819 60.4242 273.819C59.9282 273.819 59.4882 273.707 59.1042 273.483C58.7202 273.251 58.4202 272.935 58.2042 272.535C57.9882 272.135 57.8802 271.675 57.8802 271.155C57.8802 270.619 57.9922 270.147 58.2162 269.739C58.4482 269.323 58.7642 268.999 59.1642 268.767C59.5722 268.527 60.0402 268.407 60.5682 268.407C61.5682 268.407 62.3362 268.771 62.8722 269.499C63.4162 270.219 63.6882 271.231 63.6882 272.535C63.6882 273.999 63.3882 275.123 62.7882 275.907C62.1882 276.691 61.3482 277.083 60.2682 277.083ZM60.6282 272.991C61.1642 272.991 61.6002 272.819 61.9362 272.475C62.2722 272.123 62.4402 271.667 62.4402 271.107C62.4402 270.555 62.2722 270.107 61.9362 269.763C61.6002 269.411 61.1642 269.235 60.6282 269.235C60.1002 269.235 59.6682 269.411 59.3322 269.763C58.9962 270.107 58.8282 270.555 58.8282 271.107C58.8282 271.667 58.9962 272.123 59.3322 272.475C59.6682 272.819 60.1002 272.991 60.6282 272.991ZM65.1115 277.383C65.0635 277.519 64.9915 277.607 64.8955 277.647C64.7995 277.695 64.6995 277.703 64.5955 277.671C64.4915 277.639 64.4115 277.579 64.3555 277.491C64.2995 277.403 64.2915 277.291 64.3315 277.155L67.1875 268.299C67.2355 268.171 67.3075 268.087 67.4035 268.047C67.4995 267.999 67.5995 267.991 67.7035 268.023C67.8075 268.047 67.8875 268.107 67.9435 268.203C67.9995 268.291 68.0035 268.399 67.9555 268.527L65.1115 277.383ZM69.3979 276.975C69.2139 276.975 69.0819 276.935 69.0019 276.855C68.9219 276.767 68.8819 276.651 68.8819 276.507C68.8819 276.339 68.9659 276.167 69.1339 275.991L71.8219 273.111C72.2299 272.671 72.5219 272.267 72.6979 271.899C72.8819 271.523 72.9739 271.143 72.9739 270.759C72.9739 269.775 72.4019 269.283 71.2579 269.283C70.5459 269.283 69.8979 269.511 69.3139 269.967C69.1859 270.063 69.0699 270.099 68.9659 270.075C68.8619 270.043 68.7819 269.979 68.7259 269.883C68.6779 269.787 68.6579 269.683 68.6659 269.571C68.6819 269.451 68.7499 269.347 68.8699 269.259C69.1819 269.003 69.5579 268.799 69.9979 268.647C70.4379 268.487 70.8859 268.407 71.3419 268.407C72.1899 268.407 72.8379 268.607 73.2859 269.007C73.7419 269.399 73.9699 269.959 73.9699 270.687C73.9699 271.191 73.8459 271.687 73.5979 272.175C73.3579 272.655 72.9779 273.167 72.4579 273.711L70.1779 276.135H73.9459C74.2499 276.135 74.4019 276.271 74.4019 276.543C74.4019 276.831 74.2499 276.975 73.9459 276.975H69.3979ZM78.9332 277.083C77.9332 277.083 77.1612 276.723 76.6172 276.003C76.0812 275.275 75.8132 274.259 75.8132 272.955C75.8132 271.491 76.1132 270.367 76.7132 269.583C77.3132 268.799 78.1532 268.407 79.2332 268.407C79.6012 268.407 79.9772 268.479 80.3612 268.623C80.7532 268.767 81.0972 268.971 81.3932 269.235C81.4972 269.323 81.5532 269.423 81.5612 269.535C81.5772 269.647 81.5572 269.751 81.5012 269.847C81.4452 269.943 81.3652 270.007 81.2612 270.039C81.1652 270.063 81.0532 270.027 80.9252 269.931C80.6532 269.699 80.3732 269.535 80.0852 269.439C79.7972 269.335 79.5052 269.283 79.2092 269.283C78.4252 269.283 77.8212 269.575 77.3972 270.159C76.9812 270.743 76.7732 271.611 76.7732 272.763V273.351C76.9252 272.823 77.2052 272.411 77.6132 272.115C78.0292 271.819 78.5172 271.671 79.0772 271.671C79.5732 271.671 80.0132 271.787 80.3972 272.019C80.7812 272.243 81.0812 272.555 81.2972 272.955C81.5132 273.355 81.6212 273.815 81.6212 274.335C81.6212 274.871 81.5052 275.347 81.2732 275.763C81.0492 276.171 80.7332 276.495 80.3252 276.735C79.9252 276.967 79.4612 277.083 78.9332 277.083ZM78.8732 276.243C79.4092 276.243 79.8412 276.071 80.1692 275.727C80.5052 275.383 80.6732 274.931 80.6732 274.371C80.6732 273.819 80.5052 273.371 80.1692 273.027C79.8412 272.675 79.4092 272.499 78.8732 272.499C78.3372 272.499 77.9012 272.675 77.5652 273.027C77.2372 273.371 77.0732 273.819 77.0732 274.371C77.0732 274.931 77.2372 275.383 77.5652 275.727C77.9012 276.071 78.3372 276.243 78.8732 276.243Z" fill="white"/>
<path d="M117.239 257.09C116.546 257.09 115.953 256.943 115.459 256.65C114.966 256.357 114.586 255.94 114.319 255.4C114.059 254.86 113.929 254.217 113.929 253.47C113.929 252.73 114.059 252.09 114.319 251.55C114.586 251.01 114.966 250.593 115.459 250.3C115.953 250.007 116.546 249.86 117.239 249.86C117.653 249.86 118.046 249.92 118.419 250.04C118.793 250.16 119.116 250.33 119.389 250.55C119.503 250.63 119.566 250.723 119.579 250.83C119.599 250.937 119.583 251.033 119.529 251.12C119.476 251.2 119.399 251.253 119.299 251.28C119.206 251.3 119.099 251.267 118.979 251.18C118.506 250.8 117.933 250.61 117.259 250.61C116.466 250.61 115.859 250.86 115.439 251.36C115.019 251.86 114.809 252.563 114.809 253.47C114.809 254.383 115.019 255.09 115.439 255.59C115.859 256.09 116.466 256.34 117.259 256.34C117.933 256.34 118.513 256.147 118.999 255.76C119.119 255.68 119.226 255.65 119.319 255.67C119.419 255.69 119.493 255.74 119.539 255.82C119.593 255.9 119.613 255.99 119.599 256.09C119.586 256.19 119.529 256.28 119.429 256.36C119.143 256.6 118.813 256.783 118.439 256.91C118.066 257.03 117.666 257.09 117.239 257.09ZM123.342 257.07C123.108 257.07 122.942 256.95 122.842 256.71L120.092 250.42C120.018 250.253 120.022 250.123 120.102 250.03C120.182 249.93 120.292 249.88 120.432 249.88C120.552 249.88 120.642 249.91 120.702 249.97C120.768 250.023 120.825 250.103 120.872 250.21L123.352 255.96L125.822 250.2C125.868 250.093 125.925 250.013 125.992 249.96C126.058 249.907 126.152 249.88 126.272 249.88C126.412 249.88 126.515 249.933 126.582 250.04C126.648 250.14 126.648 250.267 126.582 250.42L123.832 256.71C123.778 256.83 123.715 256.92 123.642 256.98C123.568 257.04 123.468 257.07 123.342 257.07ZM130.236 257.07C130.003 257.07 129.836 256.95 129.736 256.71L126.986 250.42C126.913 250.253 126.916 250.123 126.996 250.03C127.076 249.93 127.186 249.88 127.326 249.88C127.446 249.88 127.536 249.91 127.596 249.97C127.663 250.023 127.719 250.103 127.766 250.21L130.246 255.96L132.716 250.2C132.763 250.093 132.819 250.013 132.886 249.96C132.953 249.907 133.046 249.88 133.166 249.88C133.306 249.88 133.409 249.933 133.476 250.04C133.543 250.14 133.543 250.267 133.476 250.42L130.726 256.71C130.673 256.83 130.609 256.92 130.536 256.98C130.463 257.04 130.363 257.07 130.236 257.07Z" fill="white"/>
<path d="M114.69 276.975C114.506 276.975 114.374 276.935 114.294 276.855C114.214 276.767 114.174 276.651 114.174 276.507C114.174 276.339 114.258 276.167 114.426 275.991L117.114 273.111C117.522 272.671 117.814 272.267 117.99 271.899C118.174 271.523 118.266 271.143 118.266 270.759C118.266 269.775 117.694 269.283 116.55 269.283C115.838 269.283 115.19 269.511 114.606 269.967C114.478 270.063 114.362 270.099 114.258 270.075C114.154 270.043 114.074 269.979 114.018 269.883C113.97 269.787 113.95 269.683 113.958 269.571C113.974 269.451 114.042 269.347 114.162 269.259C114.474 269.003 114.85 268.799 115.29 268.647C115.73 268.487 116.178 268.407 116.634 268.407C117.482 268.407 118.13 268.607 118.578 269.007C119.034 269.399 119.262 269.959 119.262 270.687C119.262 271.191 119.138 271.687 118.89 272.175C118.65 272.655 118.27 273.167 117.75 273.711L115.47 276.135H119.238C119.542 276.135 119.694 276.271 119.694 276.543C119.694 276.831 119.542 276.975 119.238 276.975H114.69ZM123.349 277.083C122.981 277.083 122.601 277.011 122.209 276.867C121.825 276.723 121.485 276.515 121.189 276.243C121.085 276.163 121.025 276.067 121.009 275.955C121.001 275.835 121.025 275.731 121.081 275.643C121.137 275.547 121.213 275.487 121.309 275.463C121.413 275.431 121.529 275.459 121.657 275.547C121.929 275.779 122.209 275.947 122.497 276.051C122.785 276.155 123.077 276.207 123.373 276.207C124.157 276.207 124.757 275.915 125.173 275.331C125.597 274.747 125.809 273.879 125.809 272.727V272.139C125.657 272.667 125.373 273.079 124.957 273.375C124.549 273.671 124.065 273.819 123.505 273.819C123.009 273.819 122.569 273.707 122.185 273.483C121.801 273.251 121.501 272.935 121.285 272.535C121.069 272.135 120.961 271.675 120.961 271.155C120.961 270.619 121.073 270.147 121.297 269.739C121.529 269.323 121.845 268.999 122.245 268.767C122.653 268.527 123.121 268.407 123.649 268.407C124.649 268.407 125.417 268.771 125.953 269.499C126.497 270.219 126.769 271.231 126.769 272.535C126.769 273.999 126.469 275.123 125.869 275.907C125.269 276.691 124.429 277.083 123.349 277.083ZM123.709 272.991C124.245 272.991 124.681 272.819 125.017 272.475C125.353 272.123 125.521 271.667 125.521 271.107C125.521 270.555 125.353 270.107 125.017 269.763C124.681 269.411 124.245 269.235 123.709 269.235C123.181 269.235 122.749 269.411 122.413 269.763C122.077 270.107 121.909 270.555 121.909 271.107C121.909 271.667 122.077 272.123 122.413 272.475C122.749 272.819 123.181 272.991 123.709 272.991ZM130.544 277.083C130.176 277.083 129.796 277.011 129.404 276.867C129.02 276.723 128.68 276.515 128.384 276.243C128.28 276.163 128.22 276.067 128.204 275.955C128.196 275.835 128.22 275.731 128.276 275.643C128.332 275.547 128.408 275.487 128.504 275.463C128.608 275.431 128.724 275.459 128.852 275.547C129.124 275.779 129.404 275.947 129.692 276.051C129.98 276.155 130.272 276.207 130.568 276.207C131.352 276.207 131.952 275.915 132.368 275.331C132.792 274.747 133.004 273.879 133.004 272.727V272.139C132.852 272.667 132.568 273.079 132.152 273.375C131.744 273.671 131.26 273.819 130.7 273.819C130.204 273.819 129.764 273.707 129.38 273.483C128.996 273.251 128.696 272.935 128.48 272.535C128.264 272.135 128.156 271.675 128.156 271.155C128.156 270.619 128.268 270.147 128.492 269.739C128.724 269.323 129.04 268.999 129.44 268.767C129.848 268.527 130.316 268.407 130.844 268.407C131.844 268.407 132.612 268.771 133.148 269.499C133.692 270.219 133.964 271.231 133.964 272.535C133.964 273.999 133.664 275.123 133.064 275.907C132.464 276.691 131.624 277.083 130.544 277.083ZM130.904 272.991C131.44 272.991 131.876 272.819 132.212 272.475C132.548 272.123 132.716 271.667 132.716 271.107C132.716 270.555 132.548 270.107 132.212 269.763C131.876 269.411 131.44 269.235 130.904 269.235C130.376 269.235 129.944 269.411 129.608 269.763C129.272 270.107 129.104 270.555 129.104 271.107C129.104 271.667 129.272 272.123 129.608 272.475C129.944 272.819 130.376 272.991 130.904 272.991Z" fill="white"/>
<path d="M209.688 257.627L209.687 251.813L212.917 251.813L212.917 257.627L209.688 257.627Z" fill="white"/>
<path d="M214.855 273.259L214.855 267.445L218.085 267.445L218.085 273.259L214.855 273.259Z" fill="white"/>
<path d="M209.688 273.259L209.687 267.445L212.917 267.445L212.917 273.259L209.688 273.259Z" fill="white"/>
<path d="M210.98 265.507L210.98 259.565L216.794 259.565L216.794 265.507L210.98 265.507Z" fill="white"/>
<path d="M214.855 257.627L214.855 251.813L218.085 251.813L218.085 257.627L214.855 257.627Z" fill="white"/>
<path d="M207.75 266.476C207.75 265.941 208.184 265.507 208.719 265.507L209.042 265.507L209.042 263.505L206.781 263.505C206.524 263.505 206.278 263.403 206.096 263.221L205.812 262.937L205.812 273.259L207.75 273.259L207.75 266.476Z" fill="white"/>
<path d="M207.183 261.567L209.042 261.567L209.042 259.565L208.719 259.565C208.184 259.565 207.75 259.131 207.75 258.596L207.75 251.814L205.812 251.814L205.812 260.197L207.183 261.567Z" fill="white"/>
<path d="M220.022 258.596C220.022 259.131 219.589 259.565 219.053 259.565L218.73 259.565L218.73 261.567L220.991 261.567C221.248 261.567 221.495 261.669 221.676 261.851L221.96 262.135L221.96 251.813L220.022 251.813L220.022 258.596Z" fill="white"/>
<path d="M220.59 263.505L218.73 263.505L218.73 265.507L219.053 265.507C219.589 265.507 220.022 265.941 220.022 266.476L220.022 273.259L221.96 273.259L221.96 264.875L220.59 263.505Z" fill="white"/>
<path d="M200 250.844L200 274.228C200 276.899 202.173 279.072 204.845 279.072L222.931 279.072C225.602 279.072 227.776 276.899 227.776 274.228L227.776 250.844C227.776 248.173 225.602 246 222.931 246L204.845 246C202.173 246 200 248.173 200 250.844ZM222.931 249.876C223.466 249.876 223.9 250.309 223.9 250.844L223.9 274.228C223.9 274.763 223.466 275.197 222.931 275.197L204.845 275.197C204.309 275.197 203.876 274.763 203.876 274.228L203.876 250.844C203.876 250.309 204.309 249.876 204.845 249.876L222.931 249.876Z" fill="white"/>
</g>
<defs>
<filter id="filter0_bd_4358_5494" x="11.4944" y="-20.5056" width="276.442" height="405.376" filterUnits="userSpaceOnUse" color-interpolation-filters="sRGB">
<feFlood flood-opacity="0" result="BackgroundImageFix"/>
<feGaussianBlur in="BackgroundImage" stdDeviation="10.2528"/>
<feComposite in2="SourceAlpha" operator="in" result="effect1_backgroundBlur_4358_5494"/>
<feColorMatrix in="SourceAlpha" type="matrix" values="0 0 0 0 0 0 0 0 0 0 0 0 0 0 0 0 0 0 127 0" result="hardAlpha"/>
<feOffset dx="14.6469" dy="17.5762"/>
<feGaussianBlur stdDeviation="14.6469"/>
<feColorMatrix type="matrix" values="0 0 0 0 0 0 0 0 0 0 0 0 0 0 0 0 0 0 0.05 0"/>
<feBlend mode="normal" in2="effect1_backgroundBlur_4358_5494" result="effect2_dropShadow_4358_5494"/>
<feBlend mode="normal" in="SourceGraphic" in2="effect2_dropShadow_4358_5494" result="shape"/>
</filter>
<linearGradient id="paint0_linear_4358_5494" x1="48.8864" y1="338" x2="406.689" y2="579.09" gradientUnits="userSpaceOnUse">
<stop stop-color="white" stop-opacity="0.51"/>
<stop offset="1" stop-color="white" stop-opacity="0"/>
</linearGradient>
<linearGradient id="paint1_linear_4358_5494" x1="32" y1="346.952" x2="370" y2="549.996" gradientUnits="userSpaceOnUse">
<stop stop-color="white" stop-opacity="0.5"/>
<stop offset="1" stop-color="white" stop-opacity="0.23"/>
</linearGradient>
</defs>
</svg>
