<svg width="78" height="79" viewBox="0 0 78 79" fill="none" xmlns="http://www.w3.org/2000/svg">
<path d="M5.99081 39.0904C5.99081 37.4361 4.64972 36.095 2.9954 36.095C1.34109 36.095 0 37.4361 0 39.0904C0 40.7447 1.34109 42.0858 2.9954 42.0858C4.64972 42.0858 5.99081 40.7447 5.99081 39.0904Z" fill="#FEEE67"/>
<path d="M41.9361 27.1088C41.9361 25.4545 40.595 24.1134 38.9407 24.1134C37.2864 24.1134 35.9453 25.4545 35.9453 27.1088C35.9453 28.7631 37.2864 30.1042 38.9407 30.1042C40.595 30.1042 41.9361 28.7631 41.9361 27.1088Z" fill="#FEEE67"/>
<path d="M41.9361 15.1272C41.9361 13.4729 40.595 12.1318 38.9407 12.1318C37.2864 12.1318 35.9453 13.4729 35.9453 15.1272C35.9453 16.7815 37.2864 18.1226 38.9407 18.1226C40.595 18.1226 41.9361 16.7815 41.9361 15.1272Z" fill="#FEEE67"/>
<path d="M41.9361 39.0904C41.9361 37.4361 40.595 36.095 38.9407 36.095C37.2864 36.095 35.9453 37.4361 35.9453 39.0904C35.9453 40.7447 37.2864 42.0858 38.9407 42.0858C40.595 42.0858 41.9361 40.7447 41.9361 39.0904Z" fill="#FEEE67"/>
<path d="M41.9361 75.0353C41.9361 73.3809 40.595 72.0399 38.9407 72.0399C37.2864 72.0399 35.9453 73.3809 35.9453 75.0353C35.9453 76.6896 37.2864 78.0307 38.9407 78.0307C40.595 78.0307 41.9361 76.6896 41.9361 75.0353Z" fill="#FEEE67"/>
<path d="M41.9361 3.14555C41.9361 1.49123 40.595 0.150146 38.9407 0.150146C37.2864 0.150146 35.9453 1.49123 35.9453 3.14555C35.9453 4.79987 37.2864 6.14095 38.9407 6.14095C40.595 6.14095 41.9361 4.79987 41.9361 3.14555Z" fill="#FEEE67"/>
<path d="M77.8814 39.0904C77.8814 37.4361 76.5403 36.095 74.886 36.095C73.2317 36.095 71.8906 37.4361 71.8906 39.0904C71.8906 40.7447 73.2317 42.0858 74.886 42.0858C76.5403 42.0858 77.8814 40.7447 77.8814 39.0904Z" fill="#FEEE67"/>
<path d="M29.9557 39.0904C29.9557 37.4361 28.6146 36.095 26.9602 36.095C25.3059 36.095 23.9648 37.4361 23.9648 39.0904C23.9648 40.7447 25.3059 42.0858 26.9602 42.0858C28.6146 42.0858 29.9557 40.7447 29.9557 39.0904Z" fill="#FEEE67"/>
<path d="M17.9713 39.0904C17.9713 37.4361 16.6302 36.095 14.9759 36.095C13.3216 36.095 11.9805 37.4361 11.9805 39.0904C11.9805 40.7447 13.3216 42.0858 14.9759 42.0858C16.6302 42.0858 17.9713 40.7447 17.9713 39.0904Z" fill="#FEEE67"/>
<path d="M53.9166 39.0904C53.9166 37.4361 52.5755 36.095 50.9212 36.095C49.2669 36.095 47.9258 37.4361 47.9258 39.0904C47.9258 40.7447 49.2669 42.0858 50.9212 42.0858C52.5755 42.0858 53.9166 40.7447 53.9166 39.0904Z" fill="#FEEE67"/>
<path d="M65.8971 39.0904C65.8971 37.4361 64.556 36.095 62.9017 36.095C61.2473 36.095 59.9062 37.4361 59.9062 39.0904C59.9062 40.7447 61.2473 42.0858 62.9017 42.0858C64.556 42.0858 65.8971 40.7447 65.8971 39.0904Z" fill="#FEEE67"/>
<path d="M41.9361 51.0721C41.9361 49.4177 40.595 48.0767 38.9407 48.0767C37.2864 48.0767 35.9453 49.4177 35.9453 51.0721C35.9453 52.7264 37.2864 54.0675 38.9407 54.0675C40.595 54.0675 41.9361 52.7264 41.9361 51.0721Z" fill="#FEEE67"/>
<path d="M41.9361 63.0536C41.9361 61.3993 40.595 60.0582 38.9407 60.0582C37.2864 60.0582 35.9453 61.3993 35.9453 63.0536C35.9453 64.7079 37.2864 66.049 38.9407 66.049C40.595 66.049 41.9361 64.7079 41.9361 63.0536Z" fill="#FEEE67"/>
<path fill-rule="evenodd" clip-rule="evenodd" d="M0 2.99541C0 1.34111 1.3411 0 2.9954 0H29.954V5.99081H5.99081V29.954H0V2.99541ZM71.8897 5.99081H47.9265V0H74.8851C76.5392 0 77.8805 1.34111 77.8805 2.99541V29.954H71.8897V5.99081ZM0 74.8849V47.9265H5.99081V71.8895H29.954V77.8803H2.9954C1.3411 77.8803 0 76.5395 0 74.8849ZM71.8897 71.8895V47.9265H77.8805V74.8849C77.8805 76.5395 76.5392 77.8803 74.8851 77.8803H50.9219V71.8895H71.8897Z" fill="#FEEE67"/>
</svg>
