<svg width="98" height="81" viewBox="0 0 98 81" fill="none" xmlns="http://www.w3.org/2000/svg">
<path d="M65.9645 13.0753C65.7338 12.8426 65.447 12.6742 65.1373 12.5765L46.4842 6.71977C39.025 4.37748 34.1721 8.4635 32.8648 9.77493C32.1021 10.5377 31.518 11.342 31.2188 12.0424L22.9096 31.5871C22.4336 32.7053 22.5957 34.1954 23.3418 35.6814C24.4101 37.8034 26.3347 39.3331 28.6354 39.8838C31.2104 40.5011 33.8811 39.6635 35.9719 37.5748C36.5185 37.0282 36.9841 36.4255 37.2584 35.9142L40.0517 30.7329C40.511 29.8746 41.1782 28.985 41.8806 28.2826C44.277 25.8841 45.4159 26.9815 45.9002 27.4471C50.0797 31.4811 71.9916 53.4866 71.9916 53.4866C72.771 54.266 72.6089 55.7437 71.6342 56.7163C70.6615 57.6869 69.1817 57.8532 68.4044 57.078L62.2484 50.924C61.4545 50.128 60.1742 50.128 59.3803 50.924C58.5863 51.7117 58.5863 52.9982 59.3803 53.79L65.5363 59.9482C66.3136 60.7234 66.1515 62.2011 65.1788 63.1717C64.2062 64.1464 62.7243 64.3085 61.9512 63.5333L55.7931 57.3793C54.9991 56.5854 53.7147 56.5854 52.9249 57.3793C52.131 58.167 52.131 59.4535 52.9249 60.2474L59.081 66.4035C59.8583 67.1808 59.6899 68.6585 58.7194 69.6311C57.7488 70.6017 56.2711 70.768 55.4917 69.9886L49.3357 63.8346C48.5459 63.0428 47.2594 63.0428 46.4675 63.8346C45.6778 64.6265 45.6778 65.913 46.4675 66.7007L52.6236 72.8588C53.403 73.6382 53.2367 75.1159 52.2661 76.0885C51.2893 77.0612 49.8116 77.2254 49.0364 76.4481L41.5419 68.9474C42.6122 67.3387 42.3213 65.0048 40.7334 63.4107C38.9543 61.6337 36.2172 61.4695 34.6335 63.0573C36.2172 61.4716 36.0613 58.7386 34.2781 56.9574C32.4949 55.1784 29.7639 55.0142 28.1802 56.5979C29.7639 55.0142 29.6039 52.2832 27.8186 50.5042C26.0395 48.721 23.3086 48.5588 21.7207 50.1425C23.3086 48.5588 23.1444 45.8279 21.3633 44.0426C19.6964 42.3758 17.2128 42.1492 15.5979 43.4191L3.46252 31.2837C2.67067 30.4898 1.38417 30.4898 0.592327 31.2837C-0.197442 32.0734 -0.197442 33.3599 0.592327 34.1539L12.6966 46.256L9.10729 49.8453C7.52359 51.427 7.68363 54.1579 9.46892 55.9432C11.248 57.7222 13.9789 57.8864 15.5647 56.3007C13.9789 57.8864 14.141 60.6153 15.9242 62.3985C17.7033 64.1755 20.4363 64.3438 22.0221 62.7581C20.4363 64.3438 20.5964 67.0727 22.3796 68.8538C24.1628 70.6371 26.8937 70.7992 28.4774 69.2155C26.8937 70.7971 27.0538 73.526 28.837 75.3112C30.6181 77.0903 33.347 77.2545 34.9348 75.6687L38.7257 71.8799L46.1683 79.3204C48.5438 81.6959 52.5612 81.5296 55.1342 78.9608C56.3875 77.7076 57.0567 76.1073 57.1502 74.5236C58.7339 74.43 60.3363 73.7587 61.5875 72.5034C62.8428 71.2502 63.5162 69.6498 63.6118 68.0661C65.1934 67.9726 66.7896 67.3034 68.049 66.0481C69.3023 64.7928 69.9736 63.1945 70.065 61.6087C71.6508 61.5173 73.2511 60.8481 74.5064 59.5886C77.0753 57.0198 77.2332 52.9961 74.8639 50.6247L71.7256 47.4843L84.6113 34.6007C85.4032 33.8109 85.4032 32.5244 84.6113 31.7326L65.9645 13.0753Z" fill="#FEEE67"/>
<path d="M96.5036 17.6103L80.0826 1.18933C78.4989 -0.396444 75.928 -0.396444 74.3422 1.18933L68.6018 6.92555C67.0181 8.50925 67.0181 11.0802 68.6018 12.6639L85.0249 29.089C86.6107 30.6727 89.1816 30.6727 90.7653 29.089L96.5036 23.3507C98.0852 21.7649 98.0852 19.194 96.5036 17.6103ZM87.8847 25.9735C86.0474 25.9735 84.5552 24.4834 84.5552 22.644C84.5552 20.8047 86.0474 19.3125 87.8847 19.3125C89.724 19.3125 91.2163 20.8026 91.2163 22.644C91.2142 24.4813 89.724 25.9735 87.8847 25.9735Z" fill="#FEEE67"/>
</svg>
