<svg width="182" height="54" viewBox="0 0 182 54" fill="none" xmlns="http://www.w3.org/2000/svg">
<g clip-path="url(#clip0_4358_5223)">
<path d="M167.507 0.000175526L14.5015 0.000175502C13.9438 0.000175502 13.3928 0.000175502 12.8365 0.0028755C12.3709 0.0055755 11.909 0.013419 11.4389 0.0200205C10.4176 0.0306879 9.39871 0.110438 8.39109 0.258579C7.38488 0.409945 6.4102 0.695312 5.5 1.10503C4.59091 1.51821 3.76025 2.0551 3.03815 2.69622C2.31226 3.33554 1.70718 4.0745 1.24617 4.88469C0.783885 5.69327 0.463335 6.55974 0.295592 7.45417C0.126253 8.34748 0.0351309 9.25108 0.023042 10.1569C0.00892783 10.5708 0.00743732 10.9861 -1.75127e-09 11.4L-6.54484e-09 42.6043C0.00743731 43.0235 0.00892782 43.4295 0.023042 43.8489C0.0351346 44.7546 0.126257 45.6582 0.295592 46.5514C0.462872 47.4464 0.783441 48.3133 1.24617 49.1222C1.70697 49.9298 2.31214 50.6658 3.03815 51.3015C3.75751 51.9455 4.58871 52.4827 5.5 52.8928C6.41019 53.3036 7.38477 53.5907 8.39109 53.7444C9.39888 53.8913 10.4177 53.9711 11.4389 53.983C11.909 53.9922 12.3709 53.9975 12.8365 53.9975C13.3928 54.0002 13.9438 54.0002 14.5015 54.0002L167.507 54.0002C168.053 54.0002 168.609 54.0002 169.155 53.9975C169.619 53.9975 170.094 53.9922 170.557 53.983C171.577 53.9717 172.594 53.8919 173.599 53.7444C174.609 53.5896 175.587 53.3026 176.502 52.8928C177.412 52.4825 178.242 51.9453 178.961 51.3015C179.685 50.6633 180.292 49.9278 180.758 49.1222C181.218 48.3127 181.535 47.4459 181.7 46.5514C181.87 45.658 181.964 44.7547 181.982 43.8489C181.988 43.4295 181.988 43.0235 181.988 42.6043C182 42.1138 182 41.6261 182 41.1277L182 12.874C182 12.3796 182 11.8891 181.988 11.4C181.988 10.9861 181.988 10.5708 181.982 10.1568C181.964 9.25095 181.87 8.34754 181.7 7.45412C181.535 6.56021 181.217 5.6938 180.758 4.88464C179.819 3.26069 178.331 1.93881 176.502 1.10491C175.587 0.696191 174.609 0.4109 173.599 0.258458C172.594 0.109664 171.577 0.029886 170.557 0.0198315C170.094 0.0132435 169.619 0.00533253 169.155 0.00270003C168.609 2.59016e-08 168.053 2.58162e-08 167.507 2.57323e-08L167.507 0.000175526Z" fill="#A6A6A6"/>
<path d="M12.7138 52.8231C12.2496 52.8231 11.7966 52.8178 11.3361 52.8087C10.382 52.7976 9.43014 52.724 8.48833 52.5884C7.61014 52.4544 6.75941 52.205 5.9642 51.8486C5.17628 51.4951 4.45764 51.0316 3.8358 50.4759C3.20496 49.9267 2.67975 49.2897 2.281 48.5902C1.87785 47.8862 1.59885 47.1315 1.45371 46.3526C1.29697 45.5155 1.21217 44.6692 1.20004 43.8208C1.19038 43.536 1.17773 42.5878 1.17773 42.5878L1.17773 11.3955C1.17773 11.3955 1.1912 10.462 1.20012 10.1877C1.21173 9.34061 1.29604 8.49557 1.45231 7.65985C1.59771 6.87874 1.87693 6.1219 2.2803 5.41554C2.67759 4.71652 3.19987 4.07907 3.82692 3.52791C4.45325 2.97152 5.17419 2.50565 5.96345 2.14729C6.75683 1.79201 7.60596 1.54442 8.48237 1.41282C9.42727 1.27585 10.3824 1.20181 11.3398 1.19129L12.7145 1.1748L169.288 1.1748L170.679 1.19195C171.628 1.20194 172.574 1.27533 173.51 1.4115C174.395 1.54475 175.253 1.79407 176.056 2.15125C177.637 2.87344 178.924 4.01602 179.735 5.41884C180.132 6.12032 180.407 6.87098 180.551 7.64534C180.709 8.48792 180.797 9.33961 180.815 10.1936C180.82 10.576 180.82 10.9868 180.82 11.3955C180.832 11.9019 180.832 12.3839 180.832 12.8698L180.832 41.1294C180.832 41.6199 180.832 42.0986 180.82 42.5812C180.82 43.0203 180.82 43.4226 180.814 43.8366C180.796 44.6753 180.709 45.5118 180.554 46.3393C180.411 47.1239 180.134 47.8845 179.731 48.5943C179.329 49.2862 178.807 49.9177 178.184 50.4654C177.561 51.0241 176.841 51.4903 176.051 51.846C175.251 52.2052 174.395 52.4555 173.51 52.5884C172.568 52.7247 171.617 52.7984 170.662 52.8087C170.216 52.8178 169.749 52.8231 169.295 52.8231L167.644 52.8258L12.7138 52.8231Z" fill="black"/>
<path d="M44.2165 27.4056C44.231 26.2788 44.5299 25.174 45.0854 24.194C45.6409 23.214 46.4349 22.3905 47.3935 21.8004C46.7845 20.9294 45.9811 20.2126 45.0471 19.707C44.113 19.2013 43.0741 18.9207 42.0129 18.8875C39.749 18.6495 37.5543 20.244 36.4007 20.244C35.2247 20.244 33.4485 18.9111 31.5359 18.9505C30.2987 18.9905 29.093 19.3508 28.0362 19.9962C26.9794 20.6416 26.1076 21.5501 25.5057 22.6331C22.8984 27.1535 24.8432 33.7969 27.3408 37.4509C28.5904 39.2401 30.0508 41.2387 31.9618 41.1678C33.8317 41.0901 34.5301 39.9738 36.7873 39.9738C39.0236 39.9738 39.6788 41.1678 41.6285 41.1228C43.6351 41.0901 44.8993 39.3256 46.1051 37.5194C47.0029 36.2445 47.6938 34.8355 48.1521 33.3445C46.9864 32.8508 45.9915 32.0243 45.2917 30.9682C44.5918 29.9121 44.2179 28.6731 44.2165 27.4056Z" fill="white"/>
<path d="M40.5331 16.4848C41.6271 15.1696 42.1661 13.4792 42.0356 11.7725C40.3641 11.9483 38.8202 12.7482 37.7113 14.0129C37.1692 14.6308 36.754 15.3496 36.4894 16.1282C36.2248 16.9068 36.1161 17.7301 36.1694 18.5508C37.0055 18.5594 37.8326 18.378 38.5884 18.0201C39.3443 17.6622 40.0092 17.1373 40.5331 16.4848Z" fill="white"/>
<path d="M67.855 36.6384L61.4736 36.6384L59.9412 41.1696L57.2383 41.1696L63.2826 24.4053L66.0908 24.4053L72.1351 41.1696L69.3861 41.1696L67.855 36.6384ZM62.1345 34.5474L67.1928 34.5474L64.6992 27.1936L64.6295 27.1936L62.1345 34.5474Z" fill="white"/>
<path d="M85.1889 35.0594C85.1889 38.8576 83.1588 41.2979 80.0952 41.2979C79.3191 41.3386 78.5473 41.1595 77.8681 40.7814C77.1889 40.4032 76.6298 39.8411 76.2548 39.1595L76.1968 39.1595L76.1968 45.2134L73.6914 45.2134L73.6914 28.9475L76.1165 28.9475L76.1165 30.9804L76.1626 30.9804C76.5549 30.3021 77.1234 29.7429 77.8078 29.3625C78.4921 28.982 79.2667 28.7944 80.0491 28.8196C83.1469 28.8196 85.1889 31.2718 85.1889 35.0594ZM82.6137 35.0594C82.6137 32.5849 81.3366 30.958 79.3882 30.958C77.4739 30.958 76.1863 32.6192 76.1863 35.0594C76.1863 37.5221 77.4739 39.1714 79.3882 39.1714C81.3367 39.1714 82.6137 37.5564 82.6137 35.0594Z" fill="white"/>
<path d="M98.6225 35.0594C98.6225 38.8576 96.5924 41.2979 93.5287 41.2979C92.7527 41.3386 91.9809 41.1595 91.3017 40.7814C90.6225 40.4032 90.0634 39.8411 89.6884 39.1595L89.6304 39.1595L89.6304 45.2134L87.125 45.2134L87.125 28.9475L89.5501 28.9475L89.5501 30.9804L89.5962 30.9804C89.9884 30.3021 90.557 29.7429 91.2413 29.3624C91.9257 28.982 92.7003 28.7944 93.4826 28.8196C96.5805 28.8196 98.6225 31.2718 98.6225 35.0594ZM96.0473 35.0594C96.0473 32.5849 94.7702 30.958 92.8218 30.958C90.9075 30.958 89.6199 32.6191 89.6199 35.0594C89.6199 37.5221 90.9075 39.1714 92.8218 39.1714C94.7703 39.1714 96.0473 37.5564 96.0473 35.0594H96.0473Z" fill="white"/>
<path d="M107.502 36.4988C107.688 38.1613 109.301 39.2528 111.504 39.2528C113.616 39.2528 115.136 38.1613 115.136 36.6623C115.136 35.361 114.219 34.5819 112.05 34.048L109.88 33.5246C106.806 32.781 105.379 31.3414 105.379 29.0052C105.379 26.1127 107.896 24.126 111.47 24.126C115.008 24.126 117.433 26.1127 117.515 29.0052L114.985 29.0052C114.834 27.3322 113.453 26.3224 111.435 26.3224C109.416 26.3224 108.035 27.3441 108.035 28.8312C108.035 30.0164 108.917 30.7138 111.075 31.2477L112.92 31.7012C116.355 32.5147 117.782 33.8963 117.782 36.3484C117.782 39.4848 115.287 41.4492 111.319 41.4492C107.606 41.4492 105.099 39.531 104.937 36.4987L107.502 36.4988Z" fill="white"/>
<path d="M123.188 26.0547L123.188 28.9472L125.51 28.9472L125.51 30.9339L123.188 30.9339L123.188 37.6721C123.188 38.7188 123.653 39.2066 124.673 39.2066C124.949 39.2018 125.224 39.1825 125.498 39.1486L125.498 41.1235C125.039 41.2093 124.573 41.2482 124.106 41.2395C121.635 41.2395 120.671 40.3101 120.671 37.9397L120.671 30.9339L118.896 30.9339L118.896 28.9472L120.671 28.9472L120.671 26.0547L123.188 26.0547Z" fill="white"/>
<path d="M126.854 35.0591C126.854 31.2134 129.115 28.7969 132.642 28.7969C136.181 28.7969 138.433 31.2134 138.433 35.0591C138.433 38.9153 136.193 41.3213 132.642 41.3213C129.093 41.3213 126.854 38.9153 126.854 35.0591ZM135.88 35.0591C135.88 32.421 134.673 30.8641 132.642 30.8641C130.612 30.8641 129.406 32.4329 129.406 35.0591C129.406 37.7077 130.612 39.2528 132.642 39.2528C134.673 39.2528 135.88 37.7077 135.88 35.0591L135.88 35.0591Z" fill="white"/>
<path d="M140.498 28.9474L142.888 28.9474L142.888 31.0278L142.946 31.0278C143.107 30.378 143.487 29.8038 144.022 29.4017C144.557 28.9995 145.213 28.794 145.881 28.8195C146.17 28.8185 146.458 28.8499 146.74 28.9131L146.74 31.2598C146.375 31.1483 145.995 31.0971 145.614 31.1082C145.25 31.0934 144.887 31.1577 144.551 31.2966C144.214 31.4355 143.911 31.6457 143.663 31.9129C143.415 32.18 143.227 32.4977 143.114 32.8442C143 33.1907 142.962 33.5578 143.003 33.9202L143.003 41.1699L140.498 41.1699L140.498 28.9474Z" fill="white"/>
<path d="M158.292 37.5798C157.955 39.7986 155.797 41.3213 153.036 41.3213C149.485 41.3213 147.281 38.939 147.281 35.1171C147.281 31.2833 149.497 28.7969 152.931 28.7969C156.308 28.7969 158.431 31.1198 158.431 34.8257L158.431 35.6853L149.81 35.6853L149.81 35.8369C149.771 36.2867 149.827 36.7399 149.975 37.1663C150.124 37.5926 150.361 37.9825 150.672 38.3099C150.982 38.6374 151.359 38.8949 151.777 39.0654C152.194 39.2359 152.643 39.3155 153.094 39.2989C153.686 39.3545 154.28 39.2172 154.788 38.9074C155.296 38.5977 155.69 38.132 155.913 37.5798L158.292 37.5798ZM149.822 33.9319L155.924 33.9319C155.947 33.5274 155.886 33.1227 155.745 32.7431C155.603 32.3634 155.385 32.0171 155.104 31.7258C154.823 31.4345 154.485 31.2046 154.111 31.0504C153.737 30.8962 153.335 30.8211 152.931 30.8298C152.523 30.8273 152.118 30.9058 151.741 31.0607C151.363 31.2156 151.02 31.4439 150.731 31.7323C150.442 32.0207 150.213 32.3636 150.057 32.7411C149.901 33.1186 149.821 33.5233 149.822 33.9319V33.9319Z" fill="white"/>
<path d="M61.8197 11.7865C62.3449 11.7487 62.872 11.8282 63.3629 12.0191C63.8538 12.2101 64.2962 12.5077 64.6583 12.8906C65.0204 13.2735 65.2931 13.7321 65.4568 14.2333C65.6205 14.7345 65.671 15.2659 65.6048 15.789C65.6048 18.3625 64.2158 19.8417 61.8197 19.8417L58.9141 19.8417L58.9141 11.7865L61.8197 11.7865ZM60.1635 18.7025L61.6801 18.7025C62.0555 18.725 62.4311 18.6634 62.7796 18.5221C63.1282 18.3809 63.4409 18.1636 63.695 17.8861C63.9491 17.6086 64.1382 17.2778 64.2486 16.9179C64.359 16.558 64.3878 16.1779 64.333 15.8054C64.3838 15.4344 64.3521 15.0567 64.24 14.6994C64.128 14.3421 63.9384 14.0141 63.6848 13.7388C63.4313 13.4635 63.1201 13.2477 62.7735 13.107C62.4269 12.9663 62.0535 12.9041 61.6801 12.9248L60.1635 12.9248L60.1635 18.7025Z" fill="white"/>
<path d="M67.0155 16.7996C66.9773 16.4001 67.023 15.9971 67.1495 15.6163C67.276 15.2355 67.4806 14.8854 67.7501 14.5884C68.0197 14.2914 68.3482 14.0541 68.7147 13.8918C69.0812 13.7294 69.4776 13.6455 69.8783 13.6455C70.2791 13.6455 70.6754 13.7294 71.0419 13.8918C71.4084 14.0541 71.737 14.2914 72.0065 14.5884C72.2761 14.8854 72.4807 15.2355 72.6072 15.6163C72.7337 15.9971 72.7793 16.4001 72.7412 16.7996C72.7801 17.1995 72.735 17.6031 72.6088 17.9846C72.4826 18.366 72.2781 18.7167 72.0085 19.0143C71.7389 19.3118 71.4101 19.5496 71.0432 19.7123C70.6764 19.8751 70.2796 19.9591 69.8783 19.9591C69.4771 19.9591 69.0803 19.8751 68.7134 19.7123C68.3466 19.5496 68.0178 19.3118 67.7481 19.0143C67.4785 18.7167 67.2741 18.366 67.1479 17.9846C67.0217 17.6031 66.9766 17.1995 67.0155 16.7996ZM71.5089 16.7996C71.5089 15.4819 70.9177 14.7113 69.8803 14.7113C68.8389 14.7113 68.2531 15.4819 68.2531 16.7996C68.2531 18.1279 68.839 18.8925 69.8803 18.8925C70.9178 18.8925 71.5089 18.1226 71.5089 16.7996L71.5089 16.7996Z" fill="white"/>
<path d="M80.3534 19.8417L79.1106 19.8417L77.8559 15.3645L77.7612 15.3645L76.5117 19.8417L75.2808 19.8417L73.6074 13.7627L74.8226 13.7627L75.9101 18.4013L75.9996 18.4013L77.2477 13.7627L78.397 13.7627L79.6451 18.4013L79.7399 18.4013L80.8221 13.7627L82.0202 13.7627L80.3534 19.8417Z" fill="white"/>
<path d="M83.4277 13.763L84.581 13.763L84.581 14.7287L84.6706 14.7287C84.8224 14.3818 85.0786 14.0911 85.4033 13.8969C85.728 13.7028 86.1052 13.6149 86.4821 13.6456C86.7775 13.6234 87.0741 13.668 87.3499 13.7761C87.6258 13.8843 87.8738 14.0531 88.0756 14.2703C88.2773 14.4874 88.4278 14.7472 88.5157 15.0305C88.6036 15.3138 88.6267 15.6132 88.5833 15.9066L88.5833 19.8419L87.3853 19.8419L87.3853 16.2079C87.3853 15.231 86.9614 14.7452 86.0753 14.7452C85.8748 14.7358 85.6746 14.77 85.4885 14.8454C85.3023 14.9207 85.1347 15.0355 84.997 15.1818C84.8593 15.3281 84.7549 15.5025 84.6908 15.6931C84.6267 15.8836 84.6045 16.0857 84.6258 16.2857L84.6258 19.8419L83.4277 19.8419L83.4277 13.763Z" fill="white"/>
<path d="M90.4922 11.3896L91.6902 11.3896L91.6902 19.8416L90.4922 19.8416L90.4922 11.3896Z" fill="white"/>
<path d="M93.3553 16.7997C93.3172 16.4002 93.3628 15.9971 93.4894 15.6163C93.6159 15.2355 93.8205 14.8854 94.0901 14.5884C94.3597 14.2914 94.6883 14.0541 95.0548 13.8918C95.4213 13.7294 95.8177 13.6455 96.2185 13.6455C96.6193 13.6455 97.0156 13.7294 97.3821 13.8918C97.7487 14.0541 98.0772 14.2914 98.3468 14.5884C98.6164 14.8854 98.821 15.2355 98.9476 15.6163C99.0741 15.9971 99.1198 16.4002 99.0816 16.7997C99.1205 17.1996 99.0753 17.6033 98.9491 17.9847C98.8229 18.3661 98.6184 18.7168 98.3488 19.0144C98.0791 19.3119 97.7503 19.5497 97.3834 19.7124C97.0165 19.8751 96.6197 19.9592 96.2185 19.9592C95.8172 19.9592 95.4204 19.8751 95.0535 19.7124C94.6867 19.5497 94.3578 19.3119 94.0882 19.0144C93.8185 18.7168 93.614 18.3661 93.4878 17.9847C93.3616 17.6033 93.3165 17.1996 93.3553 16.7997ZM97.8487 16.7997C97.8487 15.482 97.2575 14.7115 96.2201 14.7115C95.1787 14.7115 94.5929 15.482 94.5929 16.7997C94.5929 18.128 95.1788 18.8926 96.2201 18.8926C97.2576 18.8926 97.8487 18.1227 97.8487 16.7997H97.8487Z" fill="white"/>
<path d="M100.342 18.1226C100.342 17.0284 101.155 16.3976 102.6 16.3079L104.244 16.213L104.244 15.6883C104.244 15.0463 103.82 14.6837 103.001 14.6837C102.332 14.6837 101.869 14.9296 101.736 15.3594L100.576 15.3594C100.699 14.3152 101.679 13.6455 103.057 13.6455C104.578 13.6455 105.437 14.4042 105.437 15.6883L105.437 19.8418L104.284 19.8418L104.284 18.9875L104.189 18.9875C103.996 19.2939 103.726 19.5438 103.406 19.7114C103.085 19.8791 102.726 19.9587 102.365 19.9419C102.11 19.9685 101.853 19.9413 101.609 19.862C101.366 19.7828 101.141 19.6533 100.95 19.4819C100.76 19.3105 100.607 19.101 100.502 18.8668C100.397 18.6327 100.343 18.3792 100.342 18.1226ZM104.244 17.6032L104.244 17.095L102.762 17.1899C101.926 17.2459 101.546 17.5307 101.546 18.0666C101.546 18.6137 102.02 18.9321 102.672 18.9321C102.863 18.9515 103.056 18.9322 103.239 18.8753C103.423 18.8185 103.593 18.7253 103.739 18.6014C103.886 18.4774 104.006 18.3251 104.093 18.1536C104.18 17.9822 104.231 17.795 104.244 17.6032Z" fill="white"/>
<path d="M107.012 16.7996C107.012 14.8787 107.998 13.6619 109.532 13.6619C109.911 13.6444 110.288 13.7353 110.617 13.9242C110.947 14.1131 111.216 14.392 111.393 14.7284L111.483 14.7284L111.483 11.3896L112.681 11.3896L112.681 19.8416L111.533 19.8416L111.533 18.8812L111.438 18.8812C111.247 19.2153 110.969 19.4908 110.632 19.6777C110.296 19.8647 109.916 19.956 109.532 19.9418C107.987 19.9419 107.012 18.725 107.012 16.7996ZM108.249 16.7996C108.249 18.0889 108.856 18.8648 109.871 18.8648C110.881 18.8648 111.505 18.0777 111.505 16.8048C111.505 15.5379 110.875 14.7396 109.871 14.7396C108.863 14.7396 108.249 15.5207 108.249 16.7996L108.249 16.7996Z" fill="white"/>
<path d="M117.639 16.7996C117.6 16.4001 117.646 15.9971 117.773 15.6163C117.899 15.2355 118.104 14.8854 118.373 14.5884C118.643 14.2914 118.971 14.0541 119.338 13.8918C119.704 13.7294 120.101 13.6455 120.501 13.6455C120.902 13.6455 121.298 13.7294 121.665 13.8918C122.031 14.0541 122.36 14.2914 122.63 14.5884C122.899 14.8854 123.104 15.2355 123.23 15.6163C123.357 15.9971 123.402 16.4001 123.364 16.7996C123.403 17.1995 123.358 17.6031 123.232 17.9846C123.106 18.366 122.901 18.7167 122.632 19.0143C122.362 19.3118 122.033 19.5496 121.666 19.7123C121.299 19.8751 120.903 19.9591 120.501 19.9591C120.1 19.9591 119.703 19.8751 119.336 19.7123C118.97 19.5496 118.641 19.3118 118.371 19.0143C118.102 18.7167 117.897 18.366 117.771 17.9846C117.645 17.6031 117.6 17.1995 117.639 16.7996ZM122.132 16.7996C122.132 15.4819 121.541 14.7113 120.503 14.7113C119.462 14.7113 118.876 15.4819 118.876 16.7996C118.876 18.1279 119.462 18.8925 120.503 18.8925C121.541 18.8925 122.132 18.1226 122.132 16.7996Z" fill="white"/>
<path d="M124.971 13.763L126.124 13.763L126.124 14.7287L126.214 14.7287C126.365 14.3818 126.622 14.0911 126.946 13.8969C127.271 13.7028 127.648 13.6149 128.025 13.6456C128.32 13.6234 128.617 13.668 128.893 13.7761C129.169 13.8843 129.417 14.0531 129.619 14.2703C129.82 14.4874 129.971 14.7472 130.059 15.0305C130.147 15.3138 130.17 15.6132 130.126 15.9066L130.126 19.8419L128.928 19.8419L128.928 16.2079C128.928 15.231 128.504 14.7452 127.618 14.7452C127.418 14.7358 127.218 14.77 127.031 14.8454C126.845 14.9207 126.678 15.0355 126.54 15.1818C126.402 15.3281 126.298 15.5025 126.234 15.6931C126.17 15.8836 126.148 16.0857 126.169 16.2857L126.169 19.8419L124.971 19.8419L124.971 13.763Z" fill="white"/>
<path d="M136.897 12.249L136.897 13.7902L138.213 13.7902L138.213 14.8007L136.897 14.8007L136.897 17.9265C136.897 18.5633 137.159 18.8421 137.756 18.8421C137.909 18.8416 138.061 18.8324 138.213 18.8145L138.213 19.8138C137.998 19.8523 137.78 19.8728 137.561 19.8751C136.229 19.8751 135.698 19.4057 135.698 18.2337L135.698 14.8007L134.734 14.8007L134.734 13.7901L135.698 13.7901L135.698 12.249L136.897 12.249Z" fill="white"/>
<path d="M139.848 11.3896L141.035 11.3896L141.035 14.7396L141.13 14.7396C141.289 14.3895 141.552 14.0971 141.884 13.9023C142.215 13.7074 142.598 13.6195 142.981 13.6506C143.275 13.6346 143.569 13.6838 143.841 13.7945C144.114 13.9053 144.359 14.0749 144.559 14.2914C144.758 14.5078 144.908 14.7658 144.997 15.0467C145.085 15.3277 145.111 15.6248 145.072 15.9169L145.072 19.8417L143.872 19.8417L143.872 16.2129C143.872 15.2419 143.421 14.7501 142.574 14.7501C142.368 14.7332 142.161 14.7616 141.967 14.8332C141.774 14.9048 141.598 15.018 141.452 15.1648C141.307 15.3116 141.195 15.4885 141.125 15.683C141.054 15.8776 141.027 16.0852 141.046 16.2913L141.046 19.8416L139.848 19.8416L139.848 11.3896Z" fill="white"/>
<path d="M152.058 18.2005C151.896 18.7561 151.543 19.2367 151.062 19.5582C150.581 19.8797 150.003 20.0217 149.428 19.9592C149.028 19.9698 148.63 19.8931 148.263 19.7344C147.896 19.5758 147.567 19.3389 147.3 19.0404C147.034 18.7419 146.835 18.3888 146.718 18.0056C146.601 17.6224 146.569 17.2184 146.624 16.8215C146.57 16.4234 146.603 16.0185 146.72 15.6342C146.836 15.2499 147.034 14.8952 147.299 14.594C147.565 14.2929 147.892 14.0524 148.258 13.8887C148.624 13.7251 149.021 13.6422 149.423 13.6456C151.112 13.6456 152.131 14.8012 152.131 16.7101L152.131 17.1287L147.844 17.1287L147.844 17.196C147.825 17.419 147.853 17.6436 147.926 17.8552C147.999 18.0668 148.115 18.2608 148.268 18.4248C148.42 18.5888 148.605 18.7191 148.81 18.8073C149.016 18.8956 149.237 18.9399 149.461 18.9375C149.747 18.9719 150.038 18.9202 150.295 18.789C150.552 18.6578 150.764 18.4529 150.905 18.2005L152.058 18.2005ZM147.844 16.2415L150.91 16.2415C150.925 16.0374 150.898 15.8325 150.829 15.6398C150.76 15.4472 150.652 15.271 150.511 15.1227C150.371 14.9744 150.2 14.8572 150.012 14.7787C149.823 14.7001 149.62 14.662 149.416 14.6667C149.209 14.6641 149.003 14.703 148.811 14.7813C148.619 14.8595 148.445 14.9754 148.298 15.1222C148.152 15.2689 148.036 15.4436 147.958 15.6358C147.88 15.828 147.841 16.034 147.844 16.2415L147.844 16.2415Z" fill="white"/>
</g>
<defs>
<clipPath id="clip0_4358_5223">
<rect width="182" height="54" fill="white"/>
</clipPath>
</defs>
</svg>
