<svg width="182" height="54" viewBox="0 0 182 54" fill="none" xmlns="http://www.w3.org/2000/svg">
<g clip-path="url(#clip0_4358_5222)">
<path d="M175.259 2.69232e-08L6.74074 1.03551e-09C3.01793 4.63613e-10 -4.64247e-10 3.02206 -1.03693e-09 6.74997L-7.25848e-09 47.2498C-7.83116e-09 50.9777 3.01793 53.9997 6.74074 53.9997L175.259 53.9997C178.982 53.9997 182 50.9777 182 47.2498L182 6.74997C182 3.02206 178.982 2.74951e-08 175.259 2.69232e-08Z" fill="black"/>
<path d="M175.259 1.07972C176.76 1.08146 178.2 1.67943 179.261 2.74244C180.323 3.80545 180.92 5.24669 180.921 6.74997L180.921 47.2498C180.92 48.753 180.323 50.1943 179.261 51.2573C178.2 52.3203 176.76 52.9182 175.259 52.92L6.74074 52.92C5.23951 52.9183 3.80027 52.3203 2.73876 51.2573C1.67726 50.1943 1.08018 48.753 1.07852 47.2498L1.07852 6.74997C1.08015 5.24667 1.67722 3.80542 2.73873 2.7424C3.80024 1.67939 5.2395 1.08143 6.74074 1.07972L175.259 1.07972ZM175.259 2.69232e-08L6.74074 1.03551e-09C4.95459 0.00523541 3.2431 0.718072 1.98009 1.9828C0.71709 3.24753 0.00522825 4.96137 -1.03692e-09 6.74997L-7.25848e-09 47.2498C0.00522824 49.0384 0.71709 50.7522 1.98009 52.0169C3.2431 53.2817 4.95459 53.9945 6.74074 53.9997L175.259 53.9997C177.045 53.9945 178.757 53.2817 180.02 52.0169C181.283 50.7522 181.995 49.0384 182 47.2498L182 6.74997C181.995 4.96137 181.283 3.24753 180.02 1.9828C178.757 0.718072 177.045 0.00523543 175.259 2.69232e-08V2.69232e-08Z" fill="#A6A6A6"/>
<path d="M63.9269 13.8283C63.9514 14.3237 63.8749 14.8189 63.7022 15.2837C63.5295 15.7486 63.2641 16.1734 62.9222 16.5322C62.5391 16.9301 62.0763 17.2426 61.5643 17.4491C61.0522 17.6556 60.5024 17.7515 59.9508 17.7306C59.3956 17.7356 58.8451 17.6294 58.3315 17.4183C57.818 17.2071 57.3517 16.8953 56.9602 16.5012C56.5687 16.107 56.2598 15.6385 56.0517 15.1231C55.8436 14.6077 55.7405 14.0559 55.7485 13.5C55.7406 12.9441 55.8437 12.3923 56.0519 11.8769C56.26 11.3615 56.5688 10.8929 56.9603 10.4987C57.3518 10.1045 57.818 9.79266 58.3316 9.58143C58.8451 9.37021 59.3956 9.26389 59.9508 9.26871C60.5216 9.26698 61.0866 9.38254 61.611 9.60824C62.0981 9.80593 62.5316 10.116 62.8763 10.5133L62.1652 11.2258C61.8943 10.9065 61.5537 10.6537 61.1698 10.4871C60.7858 10.3205 60.3688 10.2444 59.9508 10.2647C59.5301 10.2626 59.1132 10.3454 58.7252 10.5084C58.3372 10.6713 57.9861 10.911 57.6928 11.2131C57.3995 11.5152 57.1701 11.8734 57.0183 12.2664C56.8666 12.6593 56.7956 13.0789 56.8096 13.5C56.7996 14.1307 56.9768 14.7502 57.3188 15.2799C57.6608 15.8096 58.1523 16.2257 58.7307 16.4754C59.3092 16.7251 59.9487 16.7971 60.5681 16.6824C61.1876 16.5676 61.759 16.2713 62.21 15.8309C62.6251 15.383 62.8657 14.8007 62.888 14.1901L59.9508 14.1901L59.9508 13.2172L63.8703 13.2172C63.9073 13.4188 63.9263 13.6233 63.9269 13.8283V13.8283Z" fill="white" stroke="white" stroke-width="0.2" stroke-miterlimit="10"/>
<path d="M70.1404 10.4455L66.4567 10.4455L66.4567 13.0136L69.7784 13.0136L69.7784 13.9867L66.4567 13.9867L66.4567 16.5548L70.1404 16.5548L70.1404 17.5502L65.418 17.5502L65.418 9.4502L70.1404 9.4502L70.1404 10.4455Z" fill="white" stroke="white" stroke-width="0.2" stroke-miterlimit="10"/>
<path d="M74.5239 17.5502L73.4838 17.5502L73.4838 10.4455L71.2246 10.4455L71.2246 9.4502L76.7831 9.4502L76.7831 10.4455L74.5239 10.4455L74.5239 17.5502Z" fill="white" stroke="white" stroke-width="0.2" stroke-miterlimit="10"/>
<path d="M80.8047 17.5502L80.8047 9.4502L81.8434 9.4502L81.8434 17.5502L80.8047 17.5502Z" fill="white" stroke="white" stroke-width="0.2" stroke-miterlimit="10"/>
<path d="M86.4535 17.5502L85.4134 17.5502L85.4134 10.4455L83.1543 10.4455L83.1543 9.4502L88.7127 9.4502L88.7127 10.4455L86.4535 10.4455L86.4535 17.5502Z" fill="white" stroke="white" stroke-width="0.2" stroke-miterlimit="10"/>
<path d="M99.2369 16.503C98.4495 17.2891 97.3831 17.7304 96.2714 17.7304C95.1596 17.7304 94.0932 17.2891 93.3058 16.503C92.9163 16.108 92.6101 15.6385 92.4055 15.1226C92.2008 14.6067 92.1018 14.0548 92.1143 13.4998C92.1018 12.9448 92.2008 12.393 92.4055 11.877C92.6101 11.3611 92.9163 10.8917 93.3058 10.4966C93.695 10.1069 94.1571 9.79775 94.6657 9.58702C95.1743 9.37629 95.7194 9.26807 96.2698 9.26856C96.8202 9.26905 97.3652 9.37823 97.8734 9.58987C98.3816 9.8015 98.8432 10.1114 99.2316 10.5019C99.6214 10.8959 99.9282 11.3643 100.134 11.8793C100.339 12.3943 100.44 12.9453 100.428 13.4998C100.441 14.0548 100.341 14.6066 100.137 15.1224C99.9321 15.6383 99.6261 16.1078 99.2369 16.503V16.503ZM94.0733 15.8248C94.6564 16.4077 95.4467 16.7351 96.2707 16.7351C97.0946 16.7351 97.8849 16.4077 98.468 15.8248C98.767 15.5182 99.0009 15.1542 99.1554 14.7546C99.31 14.3549 99.3821 13.9281 99.3672 13.4998C99.3821 13.0716 99.31 12.6447 99.1554 12.2451C99.0009 11.8455 98.767 11.4814 98.468 11.1749C97.8849 10.592 97.0946 10.2646 96.2707 10.2646C95.4467 10.2646 94.6564 10.592 94.0733 11.1749C93.7747 11.4817 93.5413 11.8458 93.3869 12.2454C93.2326 12.645 93.1607 13.0717 93.1755 13.4998C93.1607 13.928 93.2326 14.3547 93.3869 14.7543C93.5413 15.1538 93.7747 15.518 94.0733 15.8248V15.8248Z" fill="white" stroke="white" stroke-width="0.2" stroke-miterlimit="10"/>
<path d="M101.887 17.5502L101.887 9.4502L103.152 9.4502L107.083 15.7513L107.128 15.7513L107.083 14.1903L107.083 9.4502L108.123 9.4502L108.123 17.5502L107.038 17.5502L102.925 10.9438L102.881 10.9438L102.925 12.5048L102.925 17.5502L101.887 17.5502Z" fill="white" stroke="white" stroke-width="0.2" stroke-miterlimit="10"/>
<path d="M91.8573 29.3645C90.7242 29.3688 89.6177 29.7092 88.6776 30.3427C87.7376 30.9763 87.006 31.8745 86.5754 32.9241C86.1447 33.9736 86.0343 35.1274 86.258 36.2398C86.4817 37.3521 87.0295 38.3732 87.8323 39.174C88.635 39.9748 89.6568 40.5195 90.7684 40.7393C91.8801 40.959 93.0319 40.8441 94.0784 40.4088C95.1248 39.9736 96.0191 39.2376 96.6481 38.2939C97.2772 37.3501 97.613 36.2409 97.6129 35.1062C97.6241 34.3472 97.4827 33.5938 97.1971 32.8907C96.9115 32.1876 96.4876 31.5493 95.9506 31.0136C95.4136 30.4779 94.7745 30.0558 94.0713 29.7725C93.3681 29.4892 92.6152 29.3505 91.8573 29.3645V29.3645ZM91.8573 38.586C91.1595 38.6359 90.4628 38.4742 89.858 38.122C89.2533 37.7698 88.7684 37.2434 88.4666 36.6114C88.1647 35.9794 88.0599 35.271 88.1657 34.5785C88.2716 33.886 88.5832 33.2415 89.0599 32.7288C89.5367 32.2161 90.1566 31.859 90.8389 31.704C91.5211 31.5491 92.2342 31.6034 92.8852 31.8599C93.5362 32.1164 94.095 32.5633 94.4889 33.1423C94.8827 33.7213 95.0934 34.4056 95.0934 35.1062C95.1146 35.5488 95.0471 35.9911 94.895 36.4072C94.7429 36.8233 94.5091 37.2047 94.2076 37.5289C93.906 37.8532 93.5428 38.1138 93.1391 38.2953C92.7355 38.4769 92.2997 38.5757 91.8573 38.586V38.586ZM79.3015 29.3645C78.1683 29.3688 77.0619 29.7092 76.1218 30.3427C75.1817 30.9762 74.4501 31.8744 74.0194 32.924C73.5887 33.9735 73.4783 35.1273 73.702 36.2397C73.9257 37.352 74.4735 38.3731 75.2762 39.1739C76.079 39.9748 77.1007 40.5195 78.2124 40.7393C79.3241 40.959 80.4759 40.8441 81.5224 40.4088C82.5688 39.9736 83.4631 39.2377 84.0922 38.2939C84.7212 37.3501 85.057 36.2409 85.057 35.1062C85.0681 34.3472 84.9267 33.5938 84.6411 32.8908C84.3555 32.1877 83.9316 31.5493 83.3947 31.0136C82.8577 30.4779 82.2186 30.0559 81.5154 29.7726C80.8122 29.4893 80.0593 29.3505 79.3015 29.3645V29.3645ZM79.3015 38.586C78.6036 38.6359 77.907 38.4742 77.3022 38.122C76.6974 37.7698 76.2126 37.2434 75.9107 36.6114C75.6089 35.9794 75.5041 35.271 75.6099 34.5785C75.7157 33.886 76.0273 33.2415 76.5041 32.7288C76.9809 32.2161 77.6007 31.859 78.283 31.704C78.9653 31.5491 79.6783 31.6034 80.3294 31.8599C80.9804 32.1164 81.5392 32.5633 81.933 33.1423C82.3269 33.7213 82.5375 34.4056 82.5376 35.1062C82.5587 35.5488 82.4913 35.9911 82.3392 36.4072C82.187 36.8233 81.9533 37.2047 81.6518 37.529C81.3502 37.8532 80.9869 38.1138 80.5833 38.2953C80.1797 38.4769 79.7438 38.5757 79.3015 38.586ZM64.3656 31.1263L64.3656 33.562L70.1865 33.562C70.1025 34.7046 69.6356 35.7852 68.8615 36.6287C68.2782 37.2241 67.5767 37.6904 66.8023 37.9976C66.0279 38.3047 65.1978 38.4459 64.3656 38.412C62.6642 38.389 61.0403 37.696 59.8453 36.483C58.6503 35.2701 57.9803 33.6347 57.9803 31.9309C57.9803 30.227 58.6503 28.5916 59.8453 27.3787C61.0403 26.1657 62.6642 25.4727 64.3656 25.4497C65.9998 25.4283 67.5765 26.0535 68.753 27.1895L70.4688 25.4714C69.666 24.6756 68.7127 24.0483 67.6647 23.6263C66.6167 23.2042 65.495 22.996 64.3656 23.0137C63.1853 22.9965 62.0133 23.2145 60.9179 23.6549C59.8224 24.0953 58.8253 24.7494 57.9845 25.5791C57.1438 26.4088 56.4762 27.3977 56.0205 28.4881C55.5648 29.5785 55.3301 30.7488 55.3301 31.9309C55.3301 33.1129 55.5648 34.2832 56.0205 35.3736C56.4762 36.464 57.1438 37.4529 57.9845 38.2826C58.8253 39.1123 59.8224 39.7664 60.9179 40.2068C62.0133 40.6472 63.1853 40.8652 64.3656 40.848C65.5189 40.8959 66.6691 40.6976 67.7401 40.2664C68.811 39.8352 69.7782 39.1809 70.5773 38.3468C71.9961 36.796 72.7524 34.7507 72.6842 32.6486C72.6898 32.1382 72.6461 31.6283 72.5537 31.1263L64.3656 31.1263ZM125.448 33.0183C125.103 31.9783 124.447 31.0697 123.569 30.416C122.691 29.7623 121.633 29.3952 120.539 29.3645C119.803 29.3691 119.074 29.5232 118.399 29.8176C117.723 30.1119 117.114 30.5404 116.609 31.0771C116.103 31.6138 115.712 32.2475 115.458 32.94C115.204 33.6325 115.093 34.3694 115.131 35.1062C115.115 35.8611 115.25 36.6116 115.53 37.3128C115.809 38.0141 116.227 38.6518 116.758 39.1877C117.289 39.7237 117.923 40.1469 118.621 40.4322C119.319 40.7174 120.068 40.8588 120.822 40.848C121.766 40.8532 122.697 40.6234 123.531 40.1793C124.365 39.7352 125.076 39.0905 125.6 38.3034L123.645 36.9985C123.352 37.4854 122.938 37.8878 122.443 38.1662C121.948 38.4445 121.389 38.5892 120.822 38.586C120.238 38.6084 119.66 38.4545 119.164 38.1443C118.669 37.834 118.277 37.3818 118.042 36.8462L125.709 33.6709L125.448 33.0183ZM117.629 34.9323C117.602 34.5144 117.659 34.0953 117.795 33.6995C117.932 33.3038 118.146 32.9393 118.425 32.6274C118.704 32.3155 119.043 32.0625 119.421 31.8832C119.798 31.7038 120.208 31.6018 120.626 31.583C121.061 31.5543 121.495 31.6545 121.873 31.8711C122.252 32.0877 122.558 32.4111 122.755 32.8009L117.629 34.9323ZM111.395 40.4999L113.915 40.4999L113.915 23.6229L111.395 23.6229L111.395 40.4999ZM107.269 30.6477L107.182 30.6477C106.799 30.231 106.331 29.9009 105.811 29.6796C105.29 29.4583 104.728 29.3509 104.163 29.3645C102.684 29.4275 101.287 30.06 100.263 31.1299C99.2395 32.1998 98.6679 33.6244 98.6679 35.1062C98.6679 36.5881 99.2395 38.0127 100.263 39.0826C101.287 40.1525 102.684 40.785 104.163 40.848C104.731 40.8631 105.295 40.7542 105.816 40.5288C106.338 40.3035 106.804 39.9671 107.182 39.5431L107.269 39.5431L107.269 40.3695C107.269 42.5662 106.096 43.7406 104.206 43.7406C103.577 43.7255 102.966 43.523 102.451 43.1589C101.937 42.7948 101.542 42.2856 101.318 41.6962L99.1241 42.6097C99.5375 43.6177 100.242 44.4791 101.148 45.0836C102.053 45.6881 103.118 46.008 104.206 46.0025C107.16 46.0025 109.658 44.2626 109.658 40.0215L109.658 29.7124L107.269 29.7124L107.269 30.6477ZM104.38 38.586C103.509 38.5121 102.698 38.1135 102.107 37.469C101.515 36.8246 101.187 35.9814 101.187 35.1062C101.187 34.2311 101.515 33.3879 102.107 32.7434C102.698 32.099 103.509 31.7004 104.38 31.6264C104.813 31.6476 105.238 31.7559 105.629 31.9449C106.019 32.1339 106.368 32.3997 106.653 32.7264C106.939 33.0532 107.156 33.4342 107.292 33.8468C107.427 34.2594 107.479 34.6951 107.443 35.1279C107.476 35.5581 107.423 35.9906 107.286 36.3997C107.149 36.8089 106.932 37.1861 106.646 37.509C106.36 37.8318 106.012 38.0936 105.623 38.2787C105.233 38.4637 104.811 38.5683 104.38 38.586V38.586ZM137.249 23.6231L131.222 23.6231L131.222 40.4999L133.737 40.4999L133.737 34.1058L137.249 34.1058C137.961 34.1449 138.673 34.0383 139.342 33.7925C140.011 33.5468 140.623 33.167 141.14 32.6765C141.658 32.1859 142.07 31.5949 142.351 30.9395C142.633 30.2841 142.778 29.578 142.778 28.8645C142.778 28.1509 142.633 27.4449 142.351 26.7895C142.07 26.1341 141.658 25.543 141.14 25.0525C140.623 24.5619 140.011 24.1822 139.342 23.9364C138.673 23.6907 137.961 23.5841 137.249 23.6231V23.6231ZM137.314 31.7571L133.737 31.7571L133.737 25.972L137.314 25.972C137.699 25.964 138.081 26.0329 138.438 26.1747C138.796 26.3165 139.121 26.5283 139.396 26.7977C139.671 27.0671 139.889 27.3886 140.038 27.7435C140.187 28.0984 140.264 28.4796 140.264 28.8645C140.264 29.2495 140.187 29.6306 140.038 29.9855C139.889 30.3405 139.671 30.662 139.396 30.9314C139.121 31.2008 138.796 31.4126 138.438 31.5544C138.081 31.6962 137.699 31.7651 137.314 31.7571V31.7571ZM152.861 29.3335C151.943 29.2798 151.029 29.4957 150.232 29.9547C149.434 30.4136 148.788 31.0957 148.372 31.9172L150.606 32.8509C150.827 32.4431 151.163 32.1089 151.571 31.8891C151.979 31.6693 152.442 31.5734 152.904 31.6132C153.542 31.5508 154.179 31.7443 154.675 32.1513C155.171 32.5583 155.485 33.1456 155.549 33.7844L155.549 33.9581C154.742 33.5284 153.841 33.3047 152.926 33.3068C150.519 33.3068 148.069 34.6312 148.069 37.1065C148.092 37.6281 148.22 38.1397 148.445 38.611C148.669 39.0822 148.986 39.5035 149.377 39.8498C149.767 40.1961 150.223 40.4603 150.717 40.6268C151.211 40.7934 151.734 40.8588 152.254 40.8192C152.887 40.8565 153.519 40.7232 154.083 40.4329C154.648 40.1427 155.124 39.7063 155.463 39.1691L155.549 39.1691L155.549 40.4719L157.978 40.4719L157.978 34.0016C157.978 31.0053 155.745 29.3335 152.861 29.3335V29.3335ZM152.557 38.5828C151.733 38.5828 150.584 38.1704 150.584 37.1498C150.584 35.8472 152.015 35.3477 153.251 35.3477C154.054 35.3263 154.848 35.5213 155.549 35.9123C155.457 36.6443 155.103 37.318 154.553 37.809C154.003 38.2999 153.294 38.5748 152.557 38.5828V38.5828ZM166.824 29.7026L163.941 37.0195L163.854 37.0195L160.862 29.7026L158.151 29.7026L162.64 39.929L160.081 45.6176L162.705 45.6176L169.621 29.7026L166.824 29.7026ZM144.166 40.4999L146.681 40.4999L146.681 23.6231L144.166 23.6231L144.166 40.4999Z" fill="white"/>
<path d="M14.0683 10.1761C13.6262 10.7054 13.403 11.384 13.4444 12.0727L13.4444 41.9293C13.4029 42.6181 13.6261 43.2967 14.0683 43.8259L14.168 43.9233L30.8702 27.1983L30.8702 26.8037L14.168 10.0781L14.0683 10.1761Z" fill="url(#paint0_linear_4358_5222)"/>
<path d="M36.4381 32.7755L30.8711 27.1982L30.8711 26.8036L36.4395 21.2275L36.565 21.2992L43.1612 25.0523C45.0454 26.1242 45.0454 27.8781 43.1612 28.9507L36.565 32.7038L36.4381 32.7755Z" fill="url(#paint1_linear_4358_5222)"/>
<path d="M36.5642 32.7032L30.8703 27.001L14.0684 43.8258C14.4523 44.1649 14.9425 44.3588 15.4542 44.3739C15.9659 44.389 16.4667 44.2245 16.8699 43.9087L36.5642 32.7032Z" fill="url(#paint2_linear_4358_5222)"/>
<path d="M36.5642 21.2986L16.8699 10.0931C16.4667 9.77735 15.9659 9.61277 15.4542 9.62791C14.9425 9.64305 14.4523 9.83695 14.0684 10.176L30.8703 27.001L36.5642 21.2986Z" fill="url(#paint3_linear_4358_5222)"/>
<path opacity="0.2" d="M36.4387 32.5781L16.8699 43.7119C16.4822 44.0075 16.009 44.1687 15.5218 44.1713C15.0345 44.1739 14.5596 44.0178 14.1688 43.7264L14.0684 43.8269L14.1681 43.9243L14.1688 43.9236C14.5596 44.2152 15.0345 44.3714 15.5218 44.3688C16.0091 44.3662 16.4823 44.2049 16.8699 43.9092L36.5642 32.7037L36.4387 32.5781Z" fill="black"/>
<path opacity="0.12" d="M14.0682 43.63C13.6262 43.1007 13.403 42.4222 13.4443 41.7334L13.4443 41.9306C13.403 42.6194 13.6262 43.2979 14.0682 43.8272L14.1687 43.7267L14.0682 43.63Z" fill="black"/>
<path opacity="0.12" d="M43.1612 28.7533L36.4395 32.5781L36.565 32.7036L43.1612 28.9505C43.5492 28.7819 43.885 28.5122 44.1335 28.1695C44.3821 27.8268 44.5344 27.4236 44.5744 27.002C44.491 27.3838 44.3199 27.7409 44.0746 28.0449C43.8292 28.3489 43.5165 28.5915 43.1612 28.7533V28.7533Z" fill="black"/>
<path opacity="0.25" d="M16.8708 10.2913L43.1613 25.2492C43.5168 25.411 43.8296 25.6537 44.075 25.9578C44.3203 26.262 44.4914 26.6193 44.5746 27.0013C44.5348 26.5794 44.3826 26.1761 44.134 25.8332C43.8855 25.4903 43.5495 25.2205 43.1613 25.052L16.8708 10.0941C14.9867 9.02205 13.4453 9.91251 13.4453 12.0736L13.4453 12.2708C13.4453 10.1099 14.9867 9.21942 16.8708 10.2913Z" fill="white"/>
</g>
<defs>
<linearGradient id="paint0_linear_4358_5222" x1="29.3891" y1="11.7579" x2="6.73297" y2="34.3831" gradientUnits="userSpaceOnUse">
<stop stop-color="#00A0FF"/>
<stop offset="0.00657" stop-color="#00A1FF"/>
<stop offset="0.2601" stop-color="#00BEFF"/>
<stop offset="0.5122" stop-color="#00D2FF"/>
<stop offset="0.7604" stop-color="#00DFFF"/>
<stop offset="1" stop-color="#00E3FF"/>
</linearGradient>
<linearGradient id="paint1_linear_4358_5222" x1="45.6144" y1="27.0015" x2="12.9934" y2="27.0015" gradientUnits="userSpaceOnUse">
<stop stop-color="#FFE000"/>
<stop offset="0.4087" stop-color="#FFBD00"/>
<stop offset="0.7754" stop-color="#FFA500"/>
<stop offset="1" stop-color="#FF9C00"/>
</linearGradient>
<linearGradient id="paint2_linear_4358_5222" x1="33.4703" y1="30.0993" x2="2.74681" y2="60.7809" gradientUnits="userSpaceOnUse">
<stop stop-color="#FF3A44"/>
<stop offset="1" stop-color="#C31162"/>
</linearGradient>
<linearGradient id="paint3_linear_4358_5222" x1="9.83778" y1="0.2376" x2="23.5571" y2="13.9382" gradientUnits="userSpaceOnUse">
<stop stop-color="#32A071"/>
<stop offset="0.0685" stop-color="#2DA771"/>
<stop offset="0.4762" stop-color="#15CF74"/>
<stop offset="0.8009" stop-color="#06E775"/>
<stop offset="1" stop-color="#00F076"/>
</linearGradient>
<clipPath id="clip0_4358_5222">
<rect width="182" height="54" fill="white"/>
</clipPath>
</defs>
</svg>
