<svg width="41" height="28" viewBox="0 0 41 28" fill="none" xmlns="http://www.w3.org/2000/svg">
<path d="M12.666 8.79158H28.3327V12.9583H12.666V8.79158ZM36.3619 10.8749H40.0827C40.0827 5.12492 35.696 0.458252 30.291 0.458252H22.4577V4.41658H30.291C33.6398 4.41658 36.3619 7.31242 36.3619 10.8749ZM4.63685 10.8749C4.63685 7.31242 7.35893 4.41658 10.7077 4.41658H18.541V0.458252H10.7077C5.30268 0.458252 0.916016 5.12492 0.916016 10.8749C0.916016 16.6249 5.30268 21.2916 10.7077 21.2916H18.541V17.3333H10.7077C7.35893 17.3333 4.63685 14.4374 4.63685 10.8749ZM34.2077 10.8749H30.291V17.1249H24.416V21.2916H30.291V27.5416H34.2077V21.2916H40.0827V17.1249H34.2077V10.8749Z" fill="#FEEE67"/>
</svg>
