<svg width="321" height="651" viewBox="0 0 321 651" fill="none" xmlns="http://www.w3.org/2000/svg">
<path d="M318.723 182.098H319.861C320.49 182.098 320.999 182.607 320.999 183.236V251.523C320.999 252.151 320.49 252.661 319.861 252.661H318.723V182.098Z" fill="#213744"/>
<path d="M2.27734 267.836L1.13904 267.836C0.510377 267.836 0.000743924 267.326 0.000743979 266.697L0.000747694 224.208C0.000747749 223.579 0.510381 223.07 1.13905 223.07L2.27735 223.07L2.27734 267.836Z" fill="#213744"/>
<path d="M2.27734 210.93L1.13904 210.93C0.510377 210.93 0.000743924 210.421 0.000743979 209.792L0.000747694 167.302C0.000747749 166.674 0.510381 166.164 1.13905 166.164L2.27735 166.164L2.27734 210.93Z" fill="#213744"/>
<path d="M2.27734 146.437L1.13904 146.437C0.51038 146.437 0.000746274 145.927 0.000746329 145.299L0.000747987 126.33C0.000748042 125.702 0.510381 125.192 1.13905 125.192L2.27735 125.192L2.27734 146.437Z" fill="#213744"/>
<path d="M2.27734 69.0455C2.27734 50.6865 2.27734 41.5069 4.69154 34.078C9.57079 19.0637 21.3442 7.29225 36.3609 2.4138C43.7911 0 52.9721 0 71.3341 0H249.667C268.029 0 277.21 0 284.641 2.4138C299.657 7.29225 311.431 19.0637 316.31 34.078C318.724 41.5069 318.724 50.6865 318.724 69.0455V581.955C318.724 600.314 318.724 609.493 316.31 616.922C311.431 631.936 299.657 643.708 284.641 648.586C277.21 651 268.029 651 249.667 651H71.3341C52.9721 651 43.7911 651 36.3609 648.586C21.3442 643.708 9.57079 631.936 4.69154 616.922C2.27734 609.493 2.27734 600.314 2.27734 581.955V69.0455Z" fill="#213744"/>
<path fill-rule="evenodd" clip-rule="evenodd" d="M249.97 1.51753H71.0295C52.8909 1.51753 44.0016 1.52689 36.8289 3.85706C22.2742 8.58541 10.8631 19.9947 6.13394 34.547C3.80338 41.7185 3.79402 50.6064 3.79402 68.742V582.258C3.79402 600.394 3.80338 609.282 6.13394 616.453C10.8631 631.005 22.2742 642.415 36.8289 647.143C44.0016 649.473 52.8909 649.483 71.0295 649.483H249.97C268.108 649.483 276.998 649.473 284.171 647.143C298.725 642.415 310.136 631.005 314.865 616.453C317.196 609.282 317.205 600.394 317.205 582.258V68.742C317.205 50.6064 317.196 41.7185 314.865 34.547C310.136 19.9947 298.725 8.58541 284.171 3.85706C276.998 1.52689 268.108 1.51753 249.97 1.51753ZM5.41221 34.3125C3.03516 41.6272 3.03516 50.6654 3.03516 68.742V582.258C3.03516 600.335 3.03516 609.373 5.41221 616.688C10.2164 631.471 21.8086 643.061 36.5944 647.865C43.9102 650.241 52.95 650.241 71.0295 650.241H249.97C268.049 650.241 277.089 650.241 284.405 647.865C299.191 643.061 310.783 631.471 315.587 616.688C317.964 609.373 317.964 600.335 317.964 582.258V68.742C317.964 50.6655 317.964 41.6272 315.587 34.3125C310.783 19.5292 299.191 7.93886 284.405 3.13546C277.089 0.758789 268.049 0.758789 249.97 0.758789H71.0295C52.95 0.758789 43.9102 0.758789 36.5944 3.13546C21.8086 7.93886 10.2164 19.5292 5.41221 34.3125Z" fill="#8EADC1"/>
<path d="M6.07031 67.528C6.07031 50.5812 6.07031 42.1078 8.2988 35.2503C12.8027 21.391 23.6704 10.525 37.5321 6.02183C44.3907 3.7937 52.8655 3.7937 69.815 3.7937H251.184C268.133 3.7937 276.608 3.7937 283.467 6.02183C297.328 10.525 308.196 21.391 312.7 35.2503C314.928 42.1078 314.928 50.5812 314.928 67.528V583.472C314.928 600.419 314.928 608.892 312.7 615.75C308.196 629.609 297.328 640.475 283.467 644.978C276.608 647.206 268.133 647.206 251.184 647.206H69.815C52.8655 647.206 44.3907 647.206 37.5321 644.978C23.6704 640.475 12.8027 629.609 8.2988 615.75C6.07031 608.892 6.07031 600.419 6.07031 583.472V67.528Z" fill="#121515"/>
<path d="M251.186 0H255.739V3.79371H251.186V0Z" fill="#36454C"/>
<path d="M314.93 65.2517H318.724V69.8042H314.93V65.2517Z" fill="#36454C"/>
<path d="M2.27734 65.2517H6.07167V69.8042H2.27734V65.2517Z" fill="#36454C"/>
<path d="M2.27734 581.196H6.07167V585.748H2.27734V581.196Z" fill="#36454C"/>
<path d="M314.93 581.196H318.724V585.748H314.93V581.196Z" fill="#36454C"/>
<path d="M65.2637 647.206H69.8169V651H65.2637V647.206Z" fill="#36454C"/>
<path fill-rule="evenodd" clip-rule="evenodd" d="M189.716 28.0734C192.65 28.0734 195.028 25.6955 195.028 22.7622C195.028 19.829 192.65 17.451 189.716 17.451C186.783 17.451 184.404 19.829 184.404 22.7622C184.404 25.6955 186.783 28.0734 189.716 28.0734Z" fill="#262C2D"/>
<path fill-rule="evenodd" clip-rule="evenodd" d="M189.717 26.0817C191.55 26.0817 193.037 24.5955 193.037 22.7622C193.037 20.9289 191.55 19.4427 189.717 19.4427C187.883 19.4427 186.396 20.9289 186.396 22.7622C186.396 24.5955 187.883 26.0817 189.717 26.0817Z" fill="#121515"/>
<path opacity="0.4" fill-rule="evenodd" clip-rule="evenodd" d="M189.717 22.0983C190.083 22.0983 190.381 21.8011 190.381 21.4344C190.381 21.0677 190.083 20.7705 189.717 20.7705C189.35 20.7705 189.053 21.0677 189.053 21.4344C189.053 21.8011 189.35 22.0983 189.717 22.0983Z" fill="#636F73"/>
<path fill-rule="evenodd" clip-rule="evenodd" d="M144.184 22.7622C144.184 21.5051 145.203 20.486 146.46 20.486H174.539C175.796 20.486 176.815 21.5051 176.815 22.7622V22.7622C176.815 24.0193 175.796 25.0384 174.539 25.0384H146.46C145.203 25.0384 144.184 24.0193 144.184 22.7622V22.7622Z" fill="#262C2D"/>
</svg>
