<svg width="92" height="84" viewBox="0 0 92 84" fill="none" xmlns="http://www.w3.org/2000/svg">
<path d="M18.5 46.5117C15.2057 46.5117 12.1263 47.3711 9.26172 49.0898C6.54036 50.6654 4.32031 52.8854 2.60156 55.75C1.02604 58.4714 0.238281 61.5508 0.238281 64.9883C0.238281 68.2826 1.02604 71.362 2.60156 74.2266C4.32031 76.9479 6.54036 79.168 9.26172 80.8867C12.1263 82.4622 15.2057 83.25 18.5 83.25C21.7943 83.25 24.8021 82.4622 27.5234 80.8867C30.388 79.168 32.6081 76.9479 34.1836 74.2266C35.9023 71.362 36.7617 68.2826 36.7617 64.9883C36.7617 61.5508 35.9023 58.4714 34.1836 55.75C32.6081 52.8854 30.388 50.6654 27.5234 49.0898C24.8021 47.3711 21.7943 46.5117 18.5 46.5117ZM46 0.75C42.7057 0.75 39.6263 1.60938 36.7617 3.32812C34.0404 4.90365 31.8203 7.1237 30.1016 9.98828C28.526 12.7096 27.7383 15.7174 27.7383 19.0117C27.7383 22.4492 28.526 25.6003 30.1016 28.4648C31.8203 31.1862 34.0404 33.4062 36.7617 35.125C39.6263 36.7005 42.7057 37.4883 46 37.4883C49.2943 37.4883 52.3021 36.7005 55.0234 35.125C57.888 33.4062 60.1081 31.1862 61.6836 28.4648C63.4023 25.6003 64.2617 22.4492 64.2617 19.0117C64.2617 15.7174 63.4023 12.7096 61.6836 9.98828C60.1081 7.1237 57.888 4.90365 55.0234 3.32812C52.3021 1.60938 49.2943 0.75 46 0.75ZM73.5 46.5117C70.2057 46.5117 67.1263 47.3711 64.2617 49.0898C61.5404 50.6654 59.3203 52.8854 57.6016 55.75C56.026 58.4714 55.2383 61.5508 55.2383 64.9883C55.2383 68.2826 56.026 71.362 57.6016 74.2266C59.3203 76.9479 61.5404 79.168 64.2617 80.8867C67.1263 82.4622 70.2057 83.25 73.5 83.25C76.7943 83.25 79.8021 82.4622 82.5234 80.8867C85.388 79.168 87.6081 76.9479 89.1836 74.2266C90.9023 71.362 91.7617 68.2826 91.7617 64.9883C91.7617 61.5508 90.9023 58.4714 89.1836 55.75C87.6081 52.8854 85.388 50.6654 82.5234 49.0898C79.8021 47.3711 76.7943 46.5117 73.5 46.5117Z" fill="#FEEE67"/>
</svg>
