<svg width="93" height="77" viewBox="0 0 93 77" fill="none" xmlns="http://www.w3.org/2000/svg">
<path d="M75.4075 54.7543H32.9169C31.3266 54.7543 29.9233 53.7158 29.4583 52.1947L15.7056 7.23334H3.61667C1.61923 7.23334 0 5.6141 0 3.61667C0 1.61923 1.61923 0 3.61667 0H18.382C19.9723 0 21.3755 1.0385 21.8405 2.55854L35.5932 47.521H73.004L83.9419 21.4902H77.7201C75.7227 21.4902 74.1035 19.871 74.1035 17.8736C74.1035 15.8761 75.7227 14.2569 77.7201 14.2569H89.3834C90.5945 14.2569 91.726 14.8635 92.3956 15.872C93.0652 16.8805 93.1871 18.1577 92.718 19.2748L78.7411 52.5388C78.1769 53.8811 76.8635 54.7543 75.4075 54.7543Z" fill="#FEEE67"/>
<path d="M29.8419 76.9668C33.3574 76.9668 36.2072 74.117 36.2072 70.6015C36.2072 67.086 33.3574 64.2361 29.8419 64.2361C26.3264 64.2361 23.4766 67.086 23.4766 70.6015C23.4766 74.117 26.3264 76.9668 29.8419 76.9668Z" fill="#FEEE67"/>
<path d="M77.0763 76.9668C80.5918 76.9668 83.4416 74.117 83.4416 70.6015C83.4416 67.086 80.5918 64.2361 77.0763 64.2361C73.5608 64.2361 70.7109 67.086 70.7109 70.6015C70.7109 74.117 73.5608 76.9668 77.0763 76.9668Z" fill="#FEEE67"/>
<path d="M49.793 35.742L48.0312 34.7593C44.2099 32.6275 38.4625 27.7842 35.9732 24.5974C30.2951 17.33 29.3651 8.82463 33.7123 3.9132C35.842 1.5076 38.8201 0.120861 42.0999 0.00719466C44.7679 -0.0796054 47.4246 0.688162 49.793 2.2206C52.1625 0.689195 54.8192 -0.0889055 57.4872 0.00822792C60.767 0.121895 63.7451 1.50863 65.8738 3.9132C70.221 8.8236 69.291 17.329 63.6128 24.5985C61.1235 27.7842 55.3761 32.6285 51.5549 34.7593L49.793 35.742ZM42.5256 7.2333C42.4667 7.2333 42.4088 7.23433 42.351 7.2364C41.0748 7.2798 39.9309 7.80267 39.1301 8.70683C37.2587 10.821 38.3995 15.9515 41.6741 20.1438C43.2438 22.1526 46.8883 25.3363 49.7941 27.3327C52.7008 25.3363 56.3454 22.1526 57.914 20.1438C61.1886 15.9515 62.3294 10.8221 60.4581 8.70683C59.6583 7.80267 58.5144 7.2798 57.2382 7.2364C55.5632 7.18163 53.8199 7.95353 52.3299 9.41777L49.7941 11.9122L47.2572 9.41777C45.8209 8.00417 44.1469 7.2333 42.5256 7.2333Z" fill="#FEEE67"/>
</svg>
