<svg width="96" height="88" viewBox="0 0 96 88" fill="none" xmlns="http://www.w3.org/2000/svg">
<path d="M93.225 43.8726H91.5537C91.5537 19.6811 71.8726 0 47.6811 0C45.5402 0 43.8047 1.73556 43.8047 3.87643C43.8047 6.01729 45.5402 7.75285 47.6811 7.75285C67.5974 7.75285 83.8009 23.9561 83.8009 43.8726H82.1299C80.4864 43.8726 79.4588 45.6519 80.2806 47.0755L85.8283 56.6842C86.6501 58.1076 88.7049 58.1076 89.5267 56.6842L95.0742 47.0755C95.896 45.6521 94.8686 43.8726 93.225 43.8726Z" fill="#FEEE67"/>
<path d="M47.6823 79.9923C27.7658 79.9923 11.5626 63.7891 11.5626 43.8726H13.2335C14.877 43.8726 15.9046 42.0932 15.0825 40.6695L9.53494 31.0607C8.71317 29.6373 6.65836 29.6373 5.83658 31.0607L0.289226 40.6699C-0.53255 42.0932 0.49467 43.8728 2.13822 43.8728H3.80915C3.80915 68.0643 23.4902 87.7454 47.6818 87.7454C49.8226 87.7454 51.5582 86.0098 51.5582 83.8689C51.5587 81.7279 49.823 79.9923 47.6823 79.9923Z" fill="#FEEE67"/>
<path d="M47.1547 40.0042V36.5966C45.0676 37.014 44.355 38.8253 47.1547 40.0042Z" fill="#FEEE67"/>
<path d="M48.7539 45.302V49.1395C49.7277 48.9102 50.5008 48.3663 50.5008 47.3354C50.501 46.3903 49.785 45.7889 48.7539 45.302Z" fill="#FEEE67"/>
<path d="M47.6863 15.6472C32.1226 15.6472 19.4609 28.3091 19.4609 43.8726C19.4609 59.436 32.1226 72.0979 47.6863 72.0979C63.2499 72.0979 75.9116 59.436 75.9116 43.8726C75.9116 28.3091 63.2497 15.6472 47.6863 15.6472ZM49.0471 53.1198V53.9501C49.0471 54.3512 48.503 54.7233 47.9588 54.7233C47.3287 54.7233 46.8708 54.3512 46.8708 53.9501V53.2343C43.4345 53.1198 40.628 51.3442 40.628 49.5116C40.628 48.5378 41.4872 47.1061 42.5753 47.1061C43.778 47.1061 44.7518 48.7956 46.871 49.1681V44.529C44.2366 43.5267 41.1437 42.2953 41.1437 38.6298C41.1437 34.9929 43.8356 33.2461 46.871 32.8166V32.0148C46.871 31.6139 47.3292 31.2416 47.959 31.2416C48.503 31.2416 49.0473 31.6139 49.0473 32.0148V32.7309C50.8227 32.7883 54.1733 33.2465 54.1733 35.2222C54.1733 35.9953 53.6579 37.5703 52.3979 37.5703C51.4528 37.5703 50.9088 36.6539 49.0473 36.5107V40.6917C51.6532 41.6654 54.6885 43.0113 54.6885 46.8771C54.6883 50.428 52.3977 52.5757 49.0471 53.1198Z" fill="#FEEE67"/>
</svg>
