<svg width="75" height="92" viewBox="0 0 75 92" fill="none" xmlns="http://www.w3.org/2000/svg">
<path d="M64.7727 34.2666V24.7037C64.7727 11.0826 52.5375 0 37.5 0C22.4625 0 10.2273 11.0826 10.2273 24.7037V34.2666C4.43011 35.265 0 40.3147 0 46.3919V79.6856C0 86.4749 5.52784 92 12.3222 92H62.6778C69.4722 92 75 86.4749 75 79.6839V46.3901C75 40.3147 70.5699 35.265 64.7727 34.2666ZM13.6364 24.7037C13.6364 12.9601 24.3409 3.40741 37.5 3.40741C50.6591 3.40741 61.3636 12.9601 61.3636 24.7037V34.0741H13.6364V24.7037ZM44.3182 64.7407C44.3182 68.4991 41.2602 71.5556 37.5 71.5556C33.7398 71.5556 30.6818 68.4991 30.6818 64.7407V54.5185C30.6818 50.7602 33.7398 47.7037 37.5 47.7037C41.2602 47.7037 44.3182 50.7602 44.3182 54.5185V64.7407Z" fill="#FEEE67"/>
</svg>
