<svg width="85" height="76" viewBox="0 0 85 76" fill="none" xmlns="http://www.w3.org/2000/svg">
<path d="M81.6607 25.992C79.5273 20.9352 76.4345 16.341 72.5536 12.464C68.682 8.57763 64.0943 5.4804 59.0446 3.344C53.7985 1.121 48.2394 0 42.5 0C36.7606 0 31.2015 1.121 25.9554 3.344C20.9057 5.4804 16.318 8.57763 12.4464 12.464C8.56554 16.341 5.47267 20.9352 3.33929 25.992C1.11942 31.2455 0 36.8125 0 42.56C0 55.1665 5.53069 67.0415 15.1691 75.1545L15.3304 75.2875C15.8806 75.7435 16.5731 76 17.2846 76H67.7249C68.4364 76 69.1289 75.7435 69.6791 75.2875L69.8404 75.1545C79.4693 67.0415 85 55.1665 85 42.56C85 36.8125 83.8711 31.2455 81.6607 25.992ZM39.654 11.4C39.654 10.982 39.9955 10.64 40.4129 10.64H44.5871C45.0045 10.64 45.346 10.982 45.346 11.4V19C45.346 19.418 45.0045 19.76 44.5871 19.76H40.4129C39.9955 19.76 39.654 19.418 39.654 19V11.4ZM19.5424 44.65C19.5424 45.068 19.2009 45.41 18.7835 45.41H11.1942C10.7768 45.41 10.4353 45.068 10.4353 44.65V40.47C10.4353 40.052 10.7768 39.71 11.1942 39.71H18.7835C19.2009 39.71 19.5424 40.052 19.5424 40.47V44.65ZM28.1468 25.2225L25.1964 28.177C25.0538 28.3184 24.8612 28.3978 24.6604 28.3978C24.4597 28.3978 24.2671 28.3184 24.1244 28.177L18.755 22.8C18.6138 22.6572 18.5346 22.4643 18.5346 22.2633C18.5346 22.0622 18.6138 21.8693 18.755 21.7265L21.7054 18.772C21.9994 18.4775 22.4833 18.4775 22.7773 18.772L28.1468 24.149C28.4408 24.4435 28.4408 24.928 28.1468 25.2225ZM55.7623 33.1645L47.7461 41.192C48.2204 42.9685 47.7651 44.935 46.3705 46.3315C45.8775 46.8261 45.292 47.2185 44.6473 47.4863C44.0027 47.754 43.3117 47.8919 42.6138 47.8919C41.916 47.8919 41.2249 47.754 40.5803 47.4863C39.9357 47.2185 39.3501 46.8261 38.8571 46.3315C38.3632 45.8378 37.9713 45.2514 37.704 44.6059C37.4366 43.9604 37.299 43.2684 37.299 42.5695C37.299 41.8706 37.4366 41.1787 37.704 40.5331C37.9713 39.8876 38.3632 39.3012 38.8571 38.8075C39.5159 38.1459 40.3373 37.6701 41.2384 37.4282C42.1396 37.1863 43.0886 37.187 43.9894 37.43L52.0056 29.4025C52.2997 29.108 52.7835 29.108 53.0776 29.4025L55.7623 32.091C56.0564 32.3855 56.0564 32.8605 55.7623 33.1645ZM59.8415 28.1865L56.8912 25.232C56.7499 25.0892 56.6707 24.8963 56.6707 24.6953C56.6707 24.4942 56.7499 24.3013 56.8912 24.1585L62.2606 18.7815C62.5547 18.487 63.0385 18.487 63.3326 18.7815L66.2829 21.736C66.577 22.0305 66.577 22.515 66.2829 22.8095L60.9135 28.1865C60.7709 28.3279 60.5782 28.4073 60.3775 28.4073C60.1768 28.4073 59.9842 28.3279 59.8415 28.1865ZM74.1853 44.65C74.1853 45.068 73.8438 45.41 73.4263 45.41H65.8371C65.4196 45.41 65.0781 45.068 65.0781 44.65V40.47C65.0781 40.052 65.4196 39.71 65.8371 39.71H73.4263C73.8438 39.71 74.1853 40.052 74.1853 40.47V44.65Z" fill="#FEEE67"/>
</svg>
