<svg width="80" height="68" viewBox="0 0 80 68" fill="none" xmlns="http://www.w3.org/2000/svg">
<path d="M55.5114 43.2804C60.1924 43.2804 64 39.4184 64 34.6717V8.60959C64 3.86254 60.1924 0 55.5114 0H8.48726C3.80728 0 0 3.86254 0 8.60959V34.6717C0 39.4184 3.80728 43.2804 8.48726 43.2804H14.6643V52.2916C14.6643 53.3875 15.315 54.375 16.313 54.7943C16.6437 54.9328 16.9907 55 17.3344 55C18.0293 55 18.7126 54.7249 19.2236 54.2067L29.9952 43.2804H55.5114Z" fill="#FEEE67"/>
<path d="M72.6011 22H68.3248V34.1374C68.3248 41.2762 62.6245 47.0837 55.6175 47.0837H31.9718L27 52.1504C27.5992 55.6992 30.6388 58.4085 34.2902 58.4085H54.8786L63.5126 67.2062C64.0211 67.7246 64.7018 68 65.3938 68C65.736 68 66.0815 67.932 66.4108 67.7934C67.4046 67.374 68.0523 66.3864 68.0523 65.2904V58.4082H72.6014C76.6812 58.4082 80 55.0259 80 50.8688V29.5383C79.9997 25.3818 76.6809 22 72.6011 22Z" fill="#FEEE67"/>
</svg>
