<svg width="81" height="57" viewBox="0 0 81 57" fill="none" xmlns="http://www.w3.org/2000/svg">
<path d="M80.9977 24.2207L81 45.632C81 51.5616 76.3711 56.4101 70.5297 56.7611L69.8505 56.7815H11.1524C5.22276 56.7815 0.37428 52.1526 0.0232668 46.3112L0.00291826 45.632L0 24.2207H80.9977ZM65.853 38.4323H55.7172L55.3046 38.4601C53.8204 38.6615 52.6764 39.9337 52.6764 41.4731C52.6764 43.0125 53.8204 44.2848 55.3046 44.4861L55.7172 44.5139H65.853L66.2657 44.4861C67.7499 44.2848 68.8938 43.0125 68.8938 41.4731C68.8938 39.9337 67.7499 38.6615 66.2657 38.4601L65.853 38.4323ZM69.8505 0C75.7802 0 80.6286 4.62887 80.9797 10.4703L81 11.1495L80.9977 18.1391H0L0.00291826 11.1495C0.00291826 5.21984 4.63178 0.371361 10.4732 0.0203476L11.1524 0H69.8505Z" fill="#FEEE67"/>
</svg>
